<svg width="16" height="18" viewBox="0 0 16 18" fill="none" xmlns="http://www.w3.org/2000/svg">
<path d="M1.404 17.5C1.14783 17.5 0.933167 17.4133 0.76 17.24C0.586667 17.0667 0.5 16.8519 0.5 16.5958V12.9788C0.5 12.4814 0.677 12.0562 1.031 11.703C1.385 11.3497 1.81058 11.173 2.30775 11.173H13.6923C14.1894 11.173 14.615 11.3501 14.969 11.7043C15.323 12.0584 15.5 12.4842 15.5 12.9815V16.5982C15.5 16.8546 15.4133 17.0689 15.24 17.2413C15.0668 17.4138 14.8522 17.5 14.596 17.5H1.404ZM5.14425 9.7885C3.85942 9.7885 2.76417 9.33567 1.8585 8.43C0.952833 7.52433 0.5 6.42908 0.5 5.14425C0.5 3.85942 0.952833 2.76417 1.8585 1.8585C2.76417 0.952834 3.85942 0.5 5.14425 0.5H10.8558C12.1406 0.5 13.2358 0.952834 14.1415 1.8585C15.0472 2.76417 15.5 3.85942 15.5 5.14425C15.5 6.42908 15.0472 7.52433 14.1415 8.43C13.2358 9.33567 12.1406 9.7885 10.8558 9.7885H5.14425ZM2 16H14V12.9808C14 12.8911 13.9712 12.8173 13.9135 12.7595C13.8558 12.7018 13.7821 12.673 13.6923 12.673H2.30775C2.21792 12.673 2.14417 12.7018 2.0865 12.7595C2.02883 12.8173 2 12.8911 2 12.9808V16ZM5.14425 8.2885H10.8558C11.7339 8.2885 12.4775 7.984 13.0865 7.375C13.6955 6.766 14 6.02242 14 5.14425C14 4.26608 13.6955 3.5225 13.0865 2.9135C12.4775 2.3045 11.7339 2 10.8558 2H5.14425C4.26608 2 3.5225 2.3045 2.9135 2.9135C2.3045 3.5225 2 4.26608 2 5.14425C2 6.02242 2.3045 6.766 2.9135 7.375C3.5225 7.984 4.26608 8.2885 5.14425 8.2885ZM5.144 6.0095C5.389 6.0095 5.5945 5.92667 5.7605 5.761C5.9265 5.59517 6.0095 5.38967 6.0095 5.1445C6.0095 4.8995 5.92667 4.694 5.761 4.528C5.59517 4.36183 5.38967 4.27875 5.1445 4.27875C4.8995 4.27875 4.694 4.36167 4.528 4.5275C4.36183 4.69333 4.27875 4.89883 4.27875 5.144C4.27875 5.389 4.36167 5.5945 4.5275 5.7605C4.69333 5.9265 4.89883 6.0095 5.144 6.0095ZM10.8555 6.0095C11.1005 6.0095 11.306 5.92667 11.472 5.761C11.6382 5.59517 11.7212 5.38967 11.7212 5.1445C11.7212 4.8995 11.6383 4.694 11.4725 4.528C11.3067 4.36183 11.1012 4.27875 10.856 4.27875C10.611 4.27875 10.4055 4.36167 10.2395 4.5275C10.0735 4.69333 9.9905 4.89883 9.9905 5.144C9.9905 5.389 10.0733 5.5945 10.239 5.7605C10.4048 5.9265 10.6103 6.0095 10.8555 6.0095Z" fill="#424BD1"/>
</svg>
