<svg width="24" height="24" viewBox="0 0 24 24" fill="none" xmlns="http://www.w3.org/2000/svg">
<path d="M5.404 20.5C5.14783 20.5 4.93317 20.4133 4.76 20.24C4.58667 20.0667 4.5 19.8519 4.5 19.5958V15.9788C4.5 15.4814 4.677 15.0562 5.031 14.703C5.385 14.3497 5.81058 14.173 6.30775 14.173H17.6923C18.1894 14.173 18.615 14.3501 18.969 14.7043C19.323 15.0584 19.5 15.4842 19.5 15.9815V19.5982C19.5 19.8546 19.4133 20.0689 19.24 20.2413C19.0668 20.4138 18.8522 20.5 18.596 20.5H5.404ZM9.14425 12.7885C7.85942 12.7885 6.76417 12.3357 5.8585 11.43C4.95283 10.5243 4.5 9.42908 4.5 8.14425C4.5 6.85942 4.95283 5.76417 5.8585 4.8585C6.76417 3.95283 7.85942 3.5 9.14425 3.5H14.8558C16.1406 3.5 17.2358 3.95283 18.1415 4.8585C19.0472 5.76417 19.5 6.85942 19.5 8.14425C19.5 9.42908 19.0472 10.5243 18.1415 11.43C17.2358 12.3357 16.1406 12.7885 14.8558 12.7885H9.14425ZM9.144 9.0095C9.389 9.0095 9.5945 8.92667 9.7605 8.761C9.9265 8.59517 10.0095 8.38967 10.0095 8.1445C10.0095 7.8995 9.92667 7.694 9.761 7.528C9.59517 7.36183 9.38967 7.27875 9.1445 7.27875C8.8995 7.27875 8.694 7.36167 8.528 7.5275C8.36183 7.69333 8.27875 7.89883 8.27875 8.144C8.27875 8.389 8.36167 8.5945 8.5275 8.7605C8.69333 8.9265 8.89883 9.0095 9.144 9.0095ZM14.8555 9.0095C15.1005 9.0095 15.306 8.92667 15.472 8.761C15.6382 8.59517 15.7212 8.38967 15.7212 8.1445C15.7212 7.8995 15.6383 7.694 15.4725 7.528C15.3067 7.36183 15.1012 7.27875 14.856 7.27875C14.611 7.27875 14.4055 7.36167 14.2395 7.5275C14.0735 7.69333 13.9905 7.89883 13.9905 8.144C13.9905 8.389 14.0733 8.5945 14.239 8.7605C14.4048 8.9265 14.6103 9.0095 14.8555 9.0095Z" fill="white"/>
</svg>
