<svg width="48" height="48" viewBox="0 0 48 48" fill="none" xmlns="http://www.w3.org/2000/svg">
<rect width="48" height="48" rx="10" fill="#FFBC42"/>
<path d="M21.9423 14.75C21.7298 14.75 21.5517 14.6781 21.408 14.5342C21.2642 14.3904 21.1923 14.2122 21.1923 13.9997C21.1923 13.7871 21.2642 13.609 21.408 13.4655C21.5517 13.3218 21.7298 13.25 21.9423 13.25H26.0577C26.2703 13.25 26.4483 13.3219 26.592 13.4658C26.7358 13.6096 26.8077 13.7878 26.8077 14.0003C26.8077 14.2129 26.7358 14.391 26.592 14.5345C26.4483 14.6782 26.2703 14.75 26.0577 14.75H21.9423ZM24.0003 25.8077C24.2129 25.8077 24.391 25.7358 24.5345 25.592C24.6782 25.4483 24.75 25.2703 24.75 25.0577V20.9423C24.75 20.7298 24.6781 20.5517 24.5343 20.408C24.3904 20.2642 24.2122 20.1923 23.9998 20.1923C23.7871 20.1923 23.609 20.2642 23.4655 20.408C23.3218 20.5517 23.25 20.7298 23.25 20.9423V25.0577C23.25 25.2703 23.3219 25.4483 23.4658 25.592C23.6096 25.7358 23.7878 25.8077 24.0003 25.8077ZM24 33.5C22.8338 33.5 21.7346 33.2769 20.7023 32.8307C19.6699 32.3846 18.7679 31.7756 17.9963 31.0038C17.2244 30.2321 16.6154 29.3301 16.1693 28.2978C15.7231 27.2654 15.5 26.1662 15.5 25C15.5 23.8338 15.7231 22.7346 16.1693 21.7023C16.6154 20.6699 17.2244 19.7679 17.9963 18.9962C18.7679 18.2244 19.6699 17.6154 20.7023 17.1693C21.7346 16.7231 22.8338 16.5 24 16.5C25.0013 16.5 25.9657 16.6699 26.8932 17.0098C27.8207 17.3494 28.682 17.8359 29.477 18.4693L30.1962 17.75C30.3346 17.6115 30.5086 17.5407 30.7182 17.5375C30.9279 17.5343 31.1052 17.6052 31.25 17.75C31.3948 17.8948 31.4672 18.0705 31.4672 18.277C31.4672 18.4833 31.3948 18.6589 31.25 18.8038L30.5307 19.523C31.1641 20.318 31.6506 21.1793 31.9902 22.1068C32.3301 23.0343 32.5 23.9987 32.5 25C32.5 26.1662 32.2769 27.2654 31.8307 28.2978C31.3846 29.3301 30.7756 30.2321 30.0038 31.0038C29.2321 31.7756 28.3301 32.3846 27.2977 32.8307C26.2654 33.2769 25.1662 33.5 24 33.5Z" fill="black"/>
</svg>
