<svg width="48" height="48" viewBox="0 0 48 48" fill="none" xmlns="http://www.w3.org/2000/svg">
<rect width="48" height="48" rx="10" fill="#FFBC42"/>
<path d="M31.4402 32.5C29.5557 32.5 27.6625 32.0618 25.7605 31.1855C23.8587 30.3092 22.1097 29.073 20.5135 27.477C18.9238 25.8808 17.6908 24.1333 16.8145 22.2345C15.9382 20.3358 15.5 18.4443 15.5 16.5598C15.5 16.2598 15.6 16.0081 15.8 15.8048C16 15.6016 16.25 15.5 16.55 15.5H19.8115C20.064 15.5 20.2868 15.5824 20.4798 15.7473C20.6727 15.9119 20.7955 16.1154 20.848 16.3577L21.4213 19.3C21.4609 19.573 21.4526 19.8076 21.3963 20.0038C21.3398 20.1999 21.2384 20.3647 21.0923 20.498L18.7827 22.7462C19.1544 23.4269 19.5791 24.0708 20.0567 24.678C20.5342 25.285 21.0512 25.8647 21.6077 26.4173C22.1564 26.9661 22.7397 27.4757 23.3577 27.9462C23.9757 28.4167 24.6431 28.8546 25.3598 29.2598L27.6038 26.9963C27.7603 26.8334 27.9498 26.7192 28.1723 26.6538C28.3946 26.5884 28.6257 26.5724 28.8655 26.6058L31.6423 27.1713C31.8948 27.2379 32.1008 27.3667 32.2605 27.5577C32.4202 27.7487 32.5 27.9654 32.5 28.2078V31.45C32.5 31.75 32.3984 32 32.1952 32.2C31.9919 32.4 31.7402 32.5 31.4402 32.5Z" fill="black"/>
</svg>
