<svg width="42" height="42" viewBox="0 0 42 42" fill="none" xmlns="http://www.w3.org/2000/svg">
<path d="M7.4375 30.8604C7.06563 30.8604 6.75398 30.7345 6.50256 30.4828C6.25085 30.2314 6.125 29.9196 6.125 29.5475C6.125 29.1756 6.25085 28.8639 6.50256 28.6125C6.75398 28.3614 7.06563 28.2358 7.4375 28.2358H34.5625C34.9344 28.2358 35.246 28.3615 35.4974 28.613C35.7491 28.8647 35.875 29.1766 35.875 29.5488C35.875 29.9206 35.7491 30.2323 35.4974 30.4837C35.246 30.7348 34.9344 30.8604 34.5625 30.8604H7.4375ZM7.4375 22.3125C7.06563 22.3125 6.75398 22.1867 6.50256 21.935C6.25085 21.6833 6.125 21.3715 6.125 20.9996C6.125 20.6274 6.25085 20.3158 6.50256 20.0646C6.75398 19.8132 7.06563 19.6875 7.4375 19.6875H34.5625C34.9344 19.6875 35.246 19.8134 35.4974 20.0651C35.7491 20.3168 35.875 20.6286 35.875 21.0005C35.875 21.3726 35.7491 21.6843 35.4974 21.9354C35.246 22.1868 34.9344 22.3125 34.5625 22.3125H7.4375ZM7.4375 13.7642C7.06563 13.7642 6.75398 13.6385 6.50256 13.3871C6.25085 13.1354 6.125 12.8234 6.125 12.4513C6.125 12.0794 6.25085 11.7678 6.50256 11.5163C6.75398 11.2652 7.06563 11.1396 7.4375 11.1396H34.5625C34.9344 11.1396 35.246 11.2655 35.4974 11.5172C35.7491 11.7686 35.875 12.0804 35.875 12.4526C35.875 12.8245 35.7491 13.1361 35.4974 13.3875C35.246 13.6386 34.9344 13.7642 34.5625 13.7642H7.4375Z" fill="white"/>
</svg>
