<svg width="48" height="48" viewBox="0 0 48 48" fill="none" xmlns="http://www.w3.org/2000/svg">
<rect width="48" height="48" rx="10" fill="#FFBC42"/>
<path d="M18.0385 29.5L16.0365 31.5018C15.752 31.7864 15.4248 31.8509 15.0548 31.6952C14.6849 31.5394 14.5 31.2589 14.5 30.8538V16.3077C14.5 15.8026 14.675 15.375 15.025 15.025C15.375 14.675 15.8026 14.5 16.3077 14.5H31.6923C32.1974 14.5 32.625 14.675 32.975 15.025C33.325 15.375 33.5 15.8026 33.5 16.3077V27.6923C33.5 28.1974 33.325 28.625 32.975 28.975C32.625 29.325 32.1974 29.5 31.6923 29.5H18.0385ZM20 22.8845C20.2448 22.8845 20.4535 22.7983 20.626 22.626C20.7983 22.4535 20.8845 22.2448 20.8845 22C20.8845 21.7552 20.7983 21.5465 20.626 21.374C20.4535 21.2017 20.2448 21.1155 20 21.1155C19.7552 21.1155 19.5465 21.2017 19.374 21.374C19.2017 21.5465 19.1155 21.7552 19.1155 22C19.1155 22.2448 19.2017 22.4535 19.374 22.626C19.5465 22.7983 19.7552 22.8845 20 22.8845ZM24 22.8845C24.2448 22.8845 24.4535 22.7983 24.626 22.626C24.7983 22.4535 24.8845 22.2448 24.8845 22C24.8845 21.7552 24.7983 21.5465 24.626 21.374C24.4535 21.2017 24.2448 21.1155 24 21.1155C23.7552 21.1155 23.5465 21.2017 23.374 21.374C23.2017 21.5465 23.1155 21.7552 23.1155 22C23.1155 22.2448 23.2017 22.4535 23.374 22.626C23.5465 22.7983 23.7552 22.8845 24 22.8845ZM28 22.8845C28.2448 22.8845 28.4535 22.7983 28.626 22.626C28.7983 22.4535 28.8845 22.2448 28.8845 22C28.8845 21.7552 28.7983 21.5465 28.626 21.374C28.4535 21.2017 28.2448 21.1155 28 21.1155C27.7552 21.1155 27.5465 21.2017 27.374 21.374C27.2017 21.5465 27.1155 21.7552 27.1155 22C27.1155 22.2448 27.2017 22.4535 27.374 22.626C27.5465 22.7983 27.7552 22.8845 28 22.8845Z" fill="black"/>
</svg>
