<svg width="48" height="48" viewBox="0 0 48 48" fill="none" xmlns="http://www.w3.org/2000/svg">
<rect width="48" height="48" rx="10" fill="#FFBC42"/>
<path d="M20.3463 26.5577H27.6538V26.2C27.6538 25.5692 27.3143 25.0544 26.6355 24.6558C25.9567 24.2571 25.0782 24.0577 24 24.0577C22.9218 24.0577 22.0433 24.2571 21.3645 24.6558C20.6857 25.0544 20.3463 25.5692 20.3463 26.2V26.5577ZM24 22.75C24.4858 22.75 24.899 22.5798 25.2395 22.2395C25.5798 21.899 25.75 21.4858 25.75 21C25.75 20.5142 25.5798 20.101 25.2395 19.7605C24.899 19.4202 24.4858 19.25 24 19.25C23.5142 19.25 23.101 19.4202 22.7605 19.7605C22.4202 20.101 22.25 20.5142 22.25 21C22.25 21.4858 22.4202 21.899 22.7605 22.2395C23.101 22.5798 23.5142 22.75 24 22.75ZM18.0385 30.5L16.0365 32.5018C15.752 32.7864 15.4248 32.8509 15.0548 32.6952C14.6849 32.5394 14.5 32.2589 14.5 31.8538V17.3077C14.5 16.8026 14.675 16.375 15.025 16.025C15.375 15.675 15.8026 15.5 16.3077 15.5H31.6923C32.1974 15.5 32.625 15.675 32.975 16.025C33.325 16.375 33.5 16.8026 33.5 17.3077V28.6923C33.5 29.1974 33.325 29.625 32.975 29.975C32.625 30.325 32.1974 30.5 31.6923 30.5H18.0385Z" fill="black"/>
</svg>
