<svg width="48" height="48" viewBox="0 0 48 48" fill="none" xmlns="http://www.w3.org/2000/svg">
<rect width="48" height="48" rx="10" fill="#FFBC42"/>
<path d="M19.1156 30.1153C18.865 30.1153 18.6548 30.0305 18.4851 29.861C18.3156 29.6915 18.2309 29.4814 18.2309 29.2308V27.7308H30.6059L30.9231 28.048V19H32.4231C32.6738 19 32.8839 19.0847 33.0534 19.2542C33.223 19.4239 33.3079 19.634 33.3079 19.8845V31.4693C33.3079 31.8723 33.1229 32.1522 32.7529 32.309C32.383 32.4658 32.0558 32.4019 31.7711 32.1173L29.7694 30.1153H19.1156ZM18.2309 25.7308L16.2291 27.7328C15.9445 28.0173 15.6172 28.0812 15.2474 27.9245C14.8774 27.7677 14.6924 27.4877 14.6924 27.0845V16.3848C14.6924 16.1341 14.7772 15.9239 14.9469 15.7542C15.1164 15.5847 15.3265 15.5 15.5771 15.5H28.0386C28.2893 15.5 28.4994 15.5847 28.6689 15.7542C28.8384 15.9239 28.9231 16.1341 28.9231 16.3848V24.8463C28.9231 25.0968 28.8384 25.3068 28.6689 25.4765C28.4994 25.646 28.2893 25.7308 28.0386 25.7308H18.2309Z" fill="black"/>
</svg>
