<svg width="24" height="24" viewBox="0 0 24 24" fill="none" xmlns="http://www.w3.org/2000/svg">
<path d="M12.0005 12.9463L16.0735 8.87301C16.212 8.73468 16.3861 8.66385 16.5957 8.66051C16.8052 8.65735 16.9825 8.72818 17.1275 8.87301C17.2723 9.01801 17.3447 9.19368 17.3447 9.40001C17.3447 9.60634 17.2723 9.78201 17.1275 9.92701L12.6332 14.4213C12.5396 14.5148 12.4408 14.5808 12.337 14.6193C12.2331 14.6578 12.121 14.677 12.0005 14.677C11.88 14.677 11.7678 14.6578 11.664 14.6193C11.5601 14.5808 11.4614 14.5148 11.3677 14.4213L6.87348 9.92701C6.73514 9.78851 6.66431 9.61443 6.66098 9.40476C6.65781 9.19526 6.72864 9.01801 6.87348 8.87301C7.01848 8.72818 7.19414 8.65576 7.40048 8.65576C7.60681 8.65576 7.78247 8.72818 7.92747 8.87301L12.0005 12.9463Z" fill="white"/>
</svg>
