<svg width="48" height="48" viewBox="0 0 48 48" fill="none" xmlns="http://www.w3.org/2000/svg">
<rect width="48" height="48" rx="10" fill="#FFBC42"/>
<path fill-rule="evenodd" clip-rule="evenodd" d="M16.5333 18.6667C16.5333 21.0231 18.4436 22.9333 20.8 22.9333C23.1564 22.9333 25.0667 21.0231 25.0667 18.6667C25.0667 16.3102 23.1564 14.4 20.8 14.4C18.4436 14.4 16.5333 16.3102 16.5333 18.6667ZM27.2 22.9333C27.2 24.7006 28.6327 26.1333 30.4 26.1333C32.1673 26.1333 33.6 24.7006 33.6 22.9333C33.6 21.166 32.1673 19.7333 30.4 19.7333C28.6327 19.7333 27.2 21.166 27.2 22.9333Z" fill="black"/>
<path fill-rule="evenodd" clip-rule="evenodd" d="M20.7822 25.0667C15.746 25.0667 11.6141 27.655 11.2007 32.7458C11.1782 33.0231 11.7085 33.6 11.976 33.6H29.5965C30.3978 33.6 30.4102 32.9552 30.3978 32.7467C30.0852 27.5128 25.8893 25.0667 20.7822 25.0667ZM36.2197 33.6H32.1066C32.1066 31.199 31.3133 28.9833 29.9746 27.2007C33.6082 27.2404 36.5751 29.0775 36.7984 32.96C36.8074 33.1164 36.7984 33.6 36.2197 33.6Z" fill="black"/>
</svg>
