<svg width="40" height="40" viewBox="0 0 40 40" fill="none" xmlns="http://www.w3.org/2000/svg">
<g clip-path="url(#clip0_2773_6229)">
<path d="M18.0487 0.0840645C14.1269 0.513752 10.4394 2.02938 7.46281 4.42781C6.455 5.24031 4.80656 6.93563 4.08 7.90438C2.00969 10.67 0.689373 13.8263 0.189373 17.2247C0.0174984 18.3731 -0.0371891 20.5684 0.0721859 21.7169C0.400311 25.0997 1.47844 28.2247 3.23625 30.8888C6.47062 35.8028 11.4159 38.9513 17.2284 39.8106C18.3769 39.9825 20.5722 40.0372 21.7206 39.9278C25.1034 39.5997 28.2284 38.5216 30.8925 36.7638C35.8066 33.5294 38.955 28.5841 39.8144 22.7716C39.9862 21.6231 40.0409 19.4278 39.9316 18.2794C39.5331 14.1856 38.0722 10.5606 35.5722 7.45906C34.7597 6.45125 33.0644 4.80281 32.0956 4.07625C29.33 2.00594 26.1972 0.701252 22.7753 0.185627C21.83 0.045002 18.9706 -0.017498 18.0487 0.0840645ZM25.1503 18.4278C27.8612 23.17 30.08 27.0606 30.08 27.0763C30.08 27.0919 25.6347 27.1075 20.1972 27.1075C14.7597 27.1075 10.3144 27.0919 10.3144 27.0684C10.3144 27.0059 20.1816 9.75594 20.205 9.78719C20.2128 9.795 22.4472 13.6856 25.1503 18.4278Z" fill="#18181B"/>
</g>
<defs>
<clipPath id="clip0_2773_6229">
<rect width="40" height="40" fill="white"/>
</clipPath>
</defs>
</svg>
