<svg width="107" height="48" viewBox="0 0 107 48" fill="none" xmlns="http://www.w3.org/2000/svg">
<rect width="107" height="48" rx="10" fill="#FFBC42"/>
<path d="M28.002 27.577C29.1351 27.577 30.0975 27.1804 30.8892 26.3872C31.6809 25.5941 32.0767 24.6309 32.0767 23.4978C32.0767 22.3646 31.6801 21.4022 30.887 20.6105C30.0938 19.8188 29.1306 19.423 27.9975 19.423C26.8643 19.423 25.9019 19.8196 25.1102 20.6128C24.3185 21.4059 23.9227 22.3691 23.9227 23.5023C23.9227 24.6354 24.3193 25.5978 25.1125 26.3895C25.9056 27.1812 26.8688 27.577 28.002 27.577ZM27.9997 26.2C27.2497 26.2 26.6122 25.9375 26.0872 25.4125C25.5622 24.8875 25.2997 24.25 25.2997 23.5C25.2997 22.75 25.5622 22.1125 26.0872 21.5875C26.6122 21.0625 27.2497 20.8 27.9997 20.8C28.7497 20.8 29.3872 21.0625 29.9122 21.5875C30.4372 22.1125 30.6997 22.75 30.6997 23.5C30.6997 24.25 30.4372 24.8875 29.9122 25.4125C29.3872 25.9375 28.7497 26.2 27.9997 26.2ZM27.9997 30.5C25.8945 30.5 23.9692 29.9384 22.2237 28.8152C20.4782 27.6923 19.085 26.2148 18.044 24.3828C17.9606 24.2391 17.8997 24.0943 17.8612 23.9485C17.8229 23.8027 17.8037 23.653 17.8037 23.4995C17.8037 23.346 17.8229 23.1965 17.8612 23.051C17.8997 22.9055 17.9606 22.7609 18.044 22.6172C19.085 20.7853 20.4782 19.3078 22.2237 18.1848C23.9692 17.0616 25.8945 16.5 27.9997 16.5C30.1049 16.5 32.0302 17.0616 33.7757 18.1848C35.5212 19.3078 36.9145 20.7853 37.9555 22.6172C38.0388 22.7609 38.0997 22.9057 38.1382 23.0515C38.1765 23.1973 38.1957 23.347 38.1957 23.5005C38.1957 23.654 38.1765 23.8035 38.1382 23.949C38.0997 24.0945 38.0388 24.2391 37.9555 24.3828C36.9145 26.2148 35.5212 27.6923 33.7757 28.8152C32.0302 29.9384 30.1049 30.5 27.9997 30.5ZM27.9997 29C29.883 29 31.6122 28.5042 33.1872 27.5125C34.7622 26.5208 35.9664 25.1833 36.7997 23.5C35.9664 21.8167 34.7622 20.4792 33.1872 19.4875C31.6122 18.4958 29.883 18 27.9997 18C26.1164 18 24.3872 18.4958 22.8122 19.4875C21.2372 20.4792 20.033 21.8167 19.1997 23.5C20.033 25.1833 21.2372 26.5208 22.8122 27.5125C24.3872 28.5042 26.1164 29 27.9997 29Z" fill="white"/>
<path d="M59.9619 17.9668L55.3477 30.5H53.0889L48.4834 17.9668H50.707L54.2227 27.9951L57.7295 17.9668H59.9619ZM61.79 21.6582H63.8203V30.5H61.79V21.6582ZM62.8184 19.9707C62.5957 19.9707 62.3877 19.915 62.1943 19.8037C62.001 19.6924 61.8486 19.543 61.7373 19.3555C61.626 19.1621 61.5703 18.9541 61.5703 18.7314C61.5703 18.5088 61.626 18.3037 61.7373 18.1162C61.8486 17.9229 62.001 17.7705 62.1943 17.6592C62.3877 17.5479 62.5957 17.4922 62.8184 17.4922C63.0352 17.4922 63.2373 17.5479 63.4248 17.6592C63.6182 17.7705 63.7705 17.9229 63.8818 18.1162C63.9932 18.3037 64.0488 18.5088 64.0488 18.7314C64.0488 18.9541 63.9932 19.1621 63.8818 19.3555C63.7705 19.543 63.6182 19.6924 63.4248 19.8037C63.2373 19.915 63.0352 19.9707 62.8184 19.9707ZM74.5957 26.4395H67.8721C67.8955 27.0078 68.0244 27.4883 68.2588 27.8809C68.4932 28.2676 68.7979 28.5576 69.1729 28.751C69.5479 28.9443 69.9668 29.041 70.4297 29.041C70.9219 29.041 71.3584 28.9209 71.7393 28.6807C72.126 28.4404 72.4189 28.0977 72.6182 27.6523L74.4639 27.9688C74.1592 28.8184 73.6494 29.4805 72.9346 29.9551C72.2197 30.4297 71.3906 30.667 70.4473 30.667C69.5391 30.667 68.7422 30.4854 68.0566 30.1221C67.3711 29.7588 66.8379 29.2314 66.457 28.54C66.0762 27.8486 65.8857 27.0283 65.8857 26.0791C65.8857 25.1299 66.0762 24.3096 66.457 23.6182C66.8438 22.9268 67.377 22.3994 68.0566 22.0361C68.7363 21.667 69.5127 21.4824 70.3857 21.4824C71.2178 21.4824 71.9502 21.6465 72.583 21.9746C73.2158 22.3027 73.7139 22.8008 74.0771 23.4688C74.4404 24.1309 74.6221 24.9512 74.6221 25.9297L74.5957 26.4395ZM70.3945 22.9854C69.7676 22.9854 69.2432 23.1406 68.8213 23.4512C68.4053 23.7617 68.124 24.2305 67.9775 24.8574H72.583C72.4951 24.2422 72.2549 23.7764 71.8623 23.46C71.4756 23.1436 70.9863 22.9854 70.3945 22.9854ZM89.9062 21.6582L86.8389 30.5088H84.9756L82.7607 24.1982L80.5283 30.5088H78.6475L75.6328 21.6582H77.7246L79.7285 27.916L81.9697 21.6582H83.5254L85.7578 27.9072L87.7969 21.6582H89.9062Z" fill="white"/>
</svg>
