<svg width="157" height="56" viewBox="0 0 157 56" fill="none" xmlns="http://www.w3.org/2000/svg">
<rect width="157" height="56" rx="10" fill="#FFF8EB"/>
<path d="M22.3077 35.5C21.8026 35.5 21.375 35.325 21.025 34.975C20.675 34.625 20.5 34.1974 20.5 33.6922V31.7307C20.5 31.5179 20.5718 31.3397 20.7155 31.1962C20.859 31.0525 21.0372 30.9807 21.25 30.9807C21.4628 30.9807 21.641 31.0525 21.7845 31.1962C21.9282 31.3397 22 31.5179 22 31.7307V33.6922C22 33.7692 22.0321 33.8397 22.0963 33.9037C22.1603 33.9679 22.2307 34 22.3077 34H33.6923C33.7692 34 33.8398 33.9679 33.9038 33.9037C33.9679 33.8397 34 33.7692 34 33.6922V31.7307C34 31.5179 34.0718 31.3397 34.2155 31.1962C34.359 31.0525 34.5372 30.9807 34.75 30.9807C34.9628 30.9807 35.141 31.0525 35.2845 31.1962C35.4282 31.3397 35.5 31.5179 35.5 31.7307V33.6922C35.5 34.1974 35.325 34.625 34.975 34.975C34.625 35.325 34.1974 35.5 33.6923 35.5H22.3077ZM27.25 23.3885L25.327 25.3115C25.1782 25.4601 25.0016 25.5335 24.7973 25.5317C24.5928 25.5297 24.4129 25.4511 24.2578 25.296C24.1129 25.141 24.0379 24.9654 24.0327 24.7692C24.0276 24.573 24.1026 24.3974 24.2578 24.2422L27.3672 21.1327C27.4609 21.039 27.5597 20.973 27.6635 20.9347C27.7673 20.8962 27.8795 20.877 28 20.877C28.1205 20.877 28.2327 20.8962 28.3365 20.9347C28.4403 20.973 28.5391 21.039 28.6328 21.1327L31.7423 24.2422C31.8909 24.3909 31.9643 24.565 31.9625 24.7645C31.9605 24.9638 31.8871 25.141 31.7423 25.296C31.5871 25.4511 31.4089 25.5313 31.2078 25.5365C31.0064 25.5416 30.8282 25.4666 30.673 25.3115L28.75 23.3885V31.0385C28.75 31.2513 28.6782 31.4295 28.5345 31.573C28.391 31.7166 28.2128 31.7885 28 31.7885C27.7872 31.7885 27.609 31.7166 27.4655 31.573C27.3218 31.4295 27.25 31.2513 27.25 31.0385V23.3885Z" fill="#FFBC42"/>
<path d="M51.6797 23.7734V26.3359H55.3906V28.375H51.6797V30.9297H55.8672V33H49.3203V21.7109H55.8672V23.7734H51.6797ZM60.1719 28.9766L56.875 24.9688H59.6797L61.5312 27.5L63.3828 24.9688H66.1719L62.8672 28.9844L66.1719 33H63.3828L61.5391 30.4844L59.6875 33H56.875L60.1719 28.9766ZM72.1094 24.8125C72.8177 24.8125 73.4661 24.9818 74.0547 25.3203C74.6432 25.6536 75.1094 26.138 75.4531 26.7734C75.7969 27.4036 75.9688 28.1458 75.9688 29C75.9688 29.8542 75.7969 30.599 75.4531 31.2344C75.1094 31.8646 74.6432 32.349 74.0547 32.6875C73.4661 33.0208 72.8177 33.1875 72.1094 33.1875C71.5729 33.1875 71.0859 33.0885 70.6484 32.8906C70.2109 32.6927 69.875 32.4115 69.6406 32.0469V36.9062H67.3984V24.9688H69.5312L69.5859 26.0391C69.8099 25.6484 70.1458 25.3464 70.5938 25.1328C71.0469 24.9193 71.5521 24.8125 72.1094 24.8125ZM71.5938 31.3203C71.9896 31.3203 72.349 31.2292 72.6719 31.0469C72.9948 30.8594 73.25 30.5911 73.4375 30.2422C73.625 29.888 73.7188 29.474 73.7188 29C73.7188 28.526 73.625 28.1146 73.4375 27.7656C73.25 27.4115 72.9948 27.1432 72.6719 26.9609C72.349 26.7734 71.9896 26.6797 71.5938 26.6797C71.1927 26.6797 70.8307 26.776 70.5078 26.9688C70.1849 27.1615 69.9297 27.4349 69.7422 27.7891C69.5547 28.138 69.4609 28.5417 69.4609 29C69.4609 29.4583 69.5547 29.8646 69.7422 30.2188C69.9297 30.5677 70.1849 30.8385 70.5078 31.0312C70.8307 31.224 71.1927 31.3203 71.5938 31.3203ZM81.3828 33.1562C80.5286 33.1562 79.7682 32.9896 79.1016 32.6562C78.4349 32.3229 77.9141 31.8411 77.5391 31.2109C77.1641 30.5807 76.9766 29.8359 76.9766 28.9766C76.9766 28.1224 77.1615 27.3828 77.5312 26.7578C77.9062 26.1276 78.4271 25.6458 79.0938 25.3125C79.7604 24.9792 80.5234 24.8125 81.3828 24.8125C82.2474 24.8125 83.0104 24.9792 83.6719 25.3125C84.3385 25.6458 84.8568 26.1276 85.2266 26.7578C85.6016 27.3828 85.7891 28.1224 85.7891 28.9766C85.7891 29.8359 85.6016 30.5807 85.2266 31.2109C84.8568 31.8411 84.3385 32.3229 83.6719 32.6562C83.0052 32.9896 82.2422 33.1562 81.3828 33.1562ZM81.3594 31.3672C81.7917 31.3672 82.1719 31.2682 82.5 31.0703C82.8333 30.8724 83.0911 30.5938 83.2734 30.2344C83.4609 29.8698 83.5547 29.4505 83.5547 28.9766C83.5547 28.5026 83.4609 28.0859 83.2734 27.7266C83.0911 27.362 82.8333 27.0807 82.5 26.8828C82.1719 26.6849 81.7917 26.5859 81.3594 26.5859C80.9427 26.5859 80.5703 26.6849 80.2422 26.8828C79.9193 27.0807 79.6667 27.362 79.4844 27.7266C79.3073 28.0859 79.2188 28.5026 79.2188 28.9766C79.2188 29.4505 79.3073 29.8698 79.4844 30.2344C79.6667 30.5938 79.9193 30.8724 80.2422 31.0703C80.5703 31.2682 80.9427 31.3672 81.3594 31.3672ZM89.4922 26.2344C89.6276 25.9948 89.8281 25.7708 90.0938 25.5625C90.3646 25.3542 90.6745 25.1875 91.0234 25.0625C91.3776 24.9375 91.7422 24.875 92.1172 24.875V26.8828C91.5286 26.8828 91.0521 26.9505 90.6875 27.0859C90.3229 27.2161 90.0495 27.4427 89.8672 27.7656C89.6901 28.0833 89.6016 28.5234 89.6016 29.0859V33H87.3359V24.9688H89.4922V26.2344ZM97.0703 33C96.2891 33 95.6849 32.7839 95.2578 32.3516C94.8307 31.9141 94.6172 31.2943 94.6172 30.4922V26.6953H93.0391V24.9688C93.6068 24.9688 94.0339 24.9036 94.3203 24.7734C94.612 24.638 94.8177 24.3984 94.9375 24.0547C95.0573 23.7057 95.1172 23.1875 95.1172 22.5H96.8984V24.9688H98.5547V26.6953H96.8984V30.25C96.8984 30.599 96.9792 30.8594 97.1406 31.0312C97.3021 31.2031 97.5312 31.2891 97.8281 31.2891H98.5547V33H97.0703ZM104.195 21.7109H108.281C109.458 21.7109 110.448 21.9453 111.25 22.4141C112.057 22.8776 112.661 23.5312 113.062 24.375C113.464 25.2188 113.664 26.2109 113.664 27.3516C113.664 28.4922 113.464 29.487 113.062 30.3359C112.661 31.1797 112.057 31.8359 111.25 32.3047C110.448 32.7682 109.458 33 108.281 33H104.195V21.7109ZM108.172 30.9297C109.193 30.9297 109.953 30.625 110.453 30.0156C110.953 29.401 111.203 28.513 111.203 27.3516C111.203 26.1901 110.953 25.3047 110.453 24.6953C109.953 24.0807 109.193 23.7734 108.172 23.7734H106.539V30.9297H108.172ZM123.461 24.9688V33H121.328L121.273 31.9531C121.044 32.3438 120.703 32.6484 120.25 32.8672C119.802 33.0807 119.302 33.1875 118.75 33.1875C118.036 33.1875 117.385 33.0182 116.797 32.6797C116.208 32.3411 115.742 31.8568 115.398 31.2266C115.055 30.5911 114.883 29.849 114.883 29C114.883 28.151 115.055 27.4115 115.398 26.7812C115.747 26.1458 116.216 25.6589 116.805 25.3203C117.393 24.9818 118.042 24.8125 118.75 24.8125C119.286 24.8125 119.771 24.9115 120.203 25.1094C120.641 25.3021 120.977 25.5781 121.211 25.9375V24.9688H123.461ZM119.266 31.3203C119.661 31.3203 120.021 31.224 120.344 31.0312C120.667 30.8385 120.922 30.5677 121.109 30.2188C121.297 29.8646 121.391 29.4583 121.391 29C121.391 28.5417 121.297 28.1354 121.109 27.7812C120.922 27.4271 120.667 27.1536 120.344 26.9609C120.021 26.7682 119.661 26.6719 119.266 26.6719C118.865 26.6719 118.503 26.7682 118.18 26.9609C117.857 27.1484 117.602 27.4193 117.414 27.7734C117.227 28.1224 117.133 28.5312 117.133 29C117.133 29.4688 117.227 29.8802 117.414 30.2344C117.602 30.5833 117.857 30.8516 118.18 31.0391C118.503 31.2266 118.865 31.3203 119.266 31.3203ZM128.664 33C127.883 33 127.279 32.7839 126.852 32.3516C126.424 31.9141 126.211 31.2943 126.211 30.4922V26.6953H124.633V24.9688C125.201 24.9688 125.628 24.9036 125.914 24.7734C126.206 24.638 126.411 24.3984 126.531 24.0547C126.651 23.7057 126.711 23.1875 126.711 22.5H128.492V24.9688H130.148V26.6953H128.492V30.25C128.492 30.599 128.573 30.8594 128.734 31.0312C128.896 31.2031 129.125 31.2891 129.422 31.2891H130.148V33H128.664ZM139.742 24.9688V33H137.609L137.555 31.9531C137.326 32.3438 136.984 32.6484 136.531 32.8672C136.083 33.0807 135.583 33.1875 135.031 33.1875C134.318 33.1875 133.667 33.0182 133.078 32.6797C132.49 32.3411 132.023 31.8568 131.68 31.2266C131.336 30.5911 131.164 29.849 131.164 29C131.164 28.151 131.336 27.4115 131.68 26.7812C132.029 26.1458 132.497 25.6589 133.086 25.3203C133.674 24.9818 134.323 24.8125 135.031 24.8125C135.568 24.8125 136.052 24.9115 136.484 25.1094C136.922 25.3021 137.258 25.5781 137.492 25.9375V24.9688H139.742ZM135.547 31.3203C135.943 31.3203 136.302 31.224 136.625 31.0312C136.948 30.8385 137.203 30.5677 137.391 30.2188C137.578 29.8646 137.672 29.4583 137.672 29C137.672 28.5417 137.578 28.1354 137.391 27.7812C137.203 27.4271 136.948 27.1536 136.625 26.9609C136.302 26.7682 135.943 26.6719 135.547 26.6719C135.146 26.6719 134.784 26.7682 134.461 26.9609C134.138 27.1484 133.883 27.4193 133.695 27.7734C133.508 28.1224 133.414 28.5312 133.414 29C133.414 29.4688 133.508 29.8802 133.695 30.2344C133.883 30.5833 134.138 30.8516 134.461 31.0391C134.784 31.2266 135.146 31.3203 135.547 31.3203Z" fill="#FFBC42"/>
</svg>
