<svg width="20" height="21" viewBox="0 0 20 21" fill="none" xmlns="http://www.w3.org/2000/svg">
<path fill-rule="evenodd" clip-rule="evenodd" d="M11.1414 0.5C11.1414 0.5 10.1164 3.89605 8.99204 4.9956C7.86769 6.09514 4.39665 7.09861 4.39665 7.09861C4.39665 7.09861 7.86769 8.10208 8.99204 9.20296C10.1164 10.3038 11.1414 13.7039 11.1414 13.7039C11.1414 13.7039 12.1663 10.3078 13.2907 9.2083C14.415 8.10875 17.8861 7.10395 17.8861 7.10395C17.8861 7.10395 14.4082 6.09781 13.2893 4.9956C12.1704 3.89338 11.1414 0.5 11.1414 0.5ZM4.39665 11.8864C4.39665 11.8864 3.72831 14.1002 2.99462 14.8221C2.26094 15.544 0 16.1939 0 16.1939C0 16.1939 2.2623 16.8477 2.99462 17.5643C3.72694 18.2809 4.39665 20.5 4.39665 20.5C4.39665 20.5 5.065 18.2862 5.79732 17.5643C6.52964 16.8424 8.79194 16.1939 8.79194 16.1939C8.79194 16.1939 6.52964 15.54 5.79732 14.8221C5.065 14.1042 4.39529 11.8864 4.39529 11.8864H4.39665ZM17.1075 12.0439C17.1075 12.0439 16.6664 13.5037 16.1778 13.9708C15.6891 14.4378 14.2027 14.8755 14.2027 14.8755C14.2027 14.8755 15.7 15.3065 16.1778 15.7789C16.6556 16.2513 17.1007 17.7124 17.1007 17.7124C17.1007 17.7124 17.5417 16.2526 18.0249 15.7789C18.5081 15.3052 20 14.8755 20 14.8755C20 14.8755 18.5027 14.4445 18.0249 13.9708C17.5471 13.4971 17.1061 12.0439 17.1061 12.0439H17.1075Z" fill="#FFBC42"/>
</svg>
