<svg width="738" height="379" viewBox="0 0 738 379" fill="none" xmlns="http://www.w3.org/2000/svg">
<g filter="url(#filter0_d_1_3526)">
<rect x="24" y="22" width="690" height="331" rx="14" fill="white"/>
</g>
<path d="M53.018 129C52.5233 129 52.0613 128.911 51.632 128.734C51.212 128.557 50.8433 128.314 50.526 128.006C50.218 127.689 49.9753 127.32 49.798 126.9C49.6207 126.48 49.532 126.018 49.532 125.514C49.532 125.234 49.5647 124.935 49.63 124.618C49.7047 124.301 49.812 123.965 49.952 123.61C50.1013 123.246 50.274 122.868 50.47 122.476C50.666 122.084 50.8947 121.673 51.156 121.244L52.458 119.032H54.194L54.25 119.172L52.584 121.916C52.3133 122.364 52.0753 122.789 51.87 123.19C51.6647 123.582 51.4873 123.96 51.338 124.324C51.198 124.679 51.0813 125.024 50.988 125.36L50.61 124.086C50.75 123.787 50.9227 123.517 51.128 123.274C51.3333 123.031 51.562 122.826 51.814 122.658C52.066 122.49 52.3273 122.364 52.598 122.28C52.878 122.196 53.1627 122.154 53.452 122.154C53.9933 122.154 54.4927 122.303 54.95 122.602C55.4073 122.891 55.7713 123.279 56.042 123.764C56.322 124.249 56.462 124.781 56.462 125.36C56.462 126.06 56.3127 126.685 56.014 127.236C55.7247 127.777 55.3187 128.207 54.796 128.524C54.2733 128.841 53.6807 129 53.018 129ZM53.032 127.404C53.368 127.404 53.6667 127.325 53.928 127.166C54.1987 127.007 54.4087 126.788 54.558 126.508C54.7073 126.219 54.782 125.887 54.782 125.514C54.782 125.197 54.7027 124.903 54.544 124.632C54.3947 124.352 54.1893 124.128 53.928 123.96C53.6667 123.783 53.3727 123.694 53.046 123.694C52.6913 123.694 52.374 123.778 52.094 123.946C51.8233 124.105 51.6087 124.324 51.45 124.604C51.3007 124.875 51.226 125.178 51.226 125.514C51.226 125.869 51.3007 126.191 51.45 126.48C51.6087 126.76 51.8233 126.984 52.094 127.152C52.3647 127.32 52.6773 127.404 53.032 127.404ZM61.326 129.14C60.5327 129.14 59.8513 128.939 59.282 128.538C58.722 128.127 58.288 127.549 57.98 126.802C57.6813 126.046 57.532 125.145 57.532 124.1C57.532 123.055 57.6813 122.159 57.98 121.412C58.288 120.656 58.722 120.077 59.282 119.676C59.8513 119.265 60.5327 119.06 61.326 119.06C62.1193 119.06 62.8007 119.265 63.37 119.676C63.9393 120.077 64.3733 120.656 64.672 121.412C64.98 122.159 65.134 123.055 65.134 124.1C65.134 125.145 64.98 126.046 64.672 126.802C64.3733 127.549 63.9393 128.127 63.37 128.538C62.8007 128.939 62.1193 129.14 61.326 129.14ZM61.326 127.544C61.9793 127.544 62.4833 127.245 62.838 126.648C63.202 126.041 63.384 125.192 63.384 124.1C63.384 122.999 63.202 122.145 62.838 121.538C62.4833 120.931 61.9793 120.628 61.326 120.628C60.6727 120.628 60.164 120.931 59.8 121.538C59.4453 122.145 59.268 122.999 59.268 124.1C59.268 125.192 59.4453 126.041 59.8 126.648C60.164 127.245 60.6727 127.544 61.326 127.544ZM68.366 126.746L68.03 125.136L71.53 121.622H73.826L68.366 126.746ZM66.756 129V118.64H68.478V129H66.756ZM71.74 129L69.024 125.71L70.242 124.674L73.868 129H71.74Z" fill="#8A8A8A"/>
<path d="M52.724 179.098C52.0427 179.098 51.4267 178.953 50.876 178.664C50.3253 178.365 49.868 177.936 49.504 177.376L50.512 176.284C50.9227 176.741 51.2913 177.059 51.618 177.236C51.9447 177.404 52.304 177.488 52.696 177.488C53.0507 177.488 53.368 177.413 53.648 177.264C53.928 177.105 54.152 176.895 54.32 176.634C54.488 176.363 54.572 176.069 54.572 175.752C54.572 175.407 54.4927 175.103 54.334 174.842C54.1753 174.571 53.9607 174.357 53.69 174.198C53.4193 174.039 53.1113 173.96 52.766 173.96C52.5793 173.96 52.402 173.974 52.234 174.002C52.066 174.03 51.87 174.086 51.646 174.17C51.4313 174.254 51.156 174.385 50.82 174.562L49.952 173.386L50.526 169.172H55.944V170.782H51.548L51.954 170.334L51.492 173.442L50.974 173.078C51.0953 172.966 51.2727 172.859 51.506 172.756C51.7487 172.653 52.01 172.569 52.29 172.504C52.57 172.439 52.8453 172.406 53.116 172.406C53.7227 172.406 54.264 172.546 54.74 172.826C55.216 173.106 55.594 173.493 55.874 173.988C56.154 174.473 56.294 175.033 56.294 175.668C56.294 176.312 56.1353 176.895 55.818 177.418C55.51 177.931 55.0853 178.342 54.544 178.65C54.0027 178.949 53.396 179.098 52.724 179.098ZM61.5038 179.14C60.7104 179.14 60.0291 178.939 59.4598 178.538C58.8998 178.127 58.4658 177.549 58.1578 176.802C57.8591 176.046 57.7098 175.145 57.7098 174.1C57.7098 173.055 57.8591 172.159 58.1578 171.412C58.4658 170.656 58.8998 170.077 59.4598 169.676C60.0291 169.265 60.7104 169.06 61.5038 169.06C62.2971 169.06 62.9784 169.265 63.5478 169.676C64.1171 170.077 64.5511 170.656 64.8498 171.412C65.1578 172.159 65.3118 173.055 65.3118 174.1C65.3118 175.145 65.1578 176.046 64.8498 176.802C64.5511 177.549 64.1171 178.127 63.5478 178.538C62.9784 178.939 62.2971 179.14 61.5038 179.14ZM61.5038 177.544C62.1571 177.544 62.6611 177.245 63.0158 176.648C63.3798 176.041 63.5618 175.192 63.5618 174.1C63.5618 172.999 63.3798 172.145 63.0158 171.538C62.6611 170.931 62.1571 170.628 61.5038 170.628C60.8504 170.628 60.3418 170.931 59.9778 171.538C59.6231 172.145 59.4458 172.999 59.4458 174.1C59.4458 175.192 59.6231 176.041 59.9778 176.648C60.3418 177.245 60.8504 177.544 61.5038 177.544ZM68.5438 176.746L68.2078 175.136L71.7078 171.622H74.0038L68.5438 176.746ZM66.9338 179V168.64H68.6558V179H66.9338ZM71.9178 179L69.2018 175.71L70.4198 174.674L74.0458 179H71.9178Z" fill="#8A8A8A"/>
<path d="M53.914 229V221.09L54.586 221.16L51.254 225.234L51.1 224.982H57.33V226.564H50.12L49.364 225.108L54.236 219.172H55.664V229H53.914ZM62.2967 229.14C61.5034 229.14 60.8221 228.939 60.2527 228.538C59.6927 228.127 59.2587 227.549 58.9507 226.802C58.6521 226.046 58.5027 225.145 58.5027 224.1C58.5027 223.055 58.6521 222.159 58.9507 221.412C59.2587 220.656 59.6927 220.077 60.2527 219.676C60.8221 219.265 61.5034 219.06 62.2967 219.06C63.0901 219.06 63.7714 219.265 64.3407 219.676C64.9101 220.077 65.3441 220.656 65.6427 221.412C65.9507 222.159 66.1047 223.055 66.1047 224.1C66.1047 225.145 65.9507 226.046 65.6427 226.802C65.3441 227.549 64.9101 228.127 64.3407 228.538C63.7714 228.939 63.0901 229.14 62.2967 229.14ZM62.2967 227.544C62.9501 227.544 63.4541 227.245 63.8087 226.648C64.1727 226.041 64.3547 225.192 64.3547 224.1C64.3547 222.999 64.1727 222.145 63.8087 221.538C63.4541 220.931 62.9501 220.628 62.2967 220.628C61.6434 220.628 61.1347 220.931 60.7707 221.538C60.4161 222.145 60.2387 222.999 60.2387 224.1C60.2387 225.192 60.4161 226.041 60.7707 226.648C61.1347 227.245 61.6434 227.544 62.2967 227.544ZM69.3368 226.746L69.0008 225.136L72.5008 221.622H74.7968L69.3368 226.746ZM67.7268 229V218.64H69.4488V229H67.7268ZM72.7108 229L69.9948 225.71L71.2128 224.674L74.8388 229H72.7108Z" fill="#8A8A8A"/>
<path d="M52.696 279.14C51.968 279.14 51.3333 278.981 50.792 278.664C50.2507 278.337 49.7513 277.787 49.294 277.012L50.666 276.144C50.8807 276.489 51.1 276.769 51.324 276.984C51.5573 277.189 51.7907 277.343 52.024 277.446C52.2667 277.539 52.5233 277.586 52.794 277.586C53.102 277.586 53.382 277.511 53.634 277.362C53.8953 277.213 54.1007 277.007 54.25 276.746C54.4087 276.485 54.488 276.186 54.488 275.85C54.488 275.514 54.4227 275.229 54.292 274.996C54.1707 274.763 53.9887 274.585 53.746 274.464C53.5127 274.333 53.228 274.268 52.892 274.268C52.7427 274.268 52.584 274.287 52.416 274.324C52.248 274.352 52.0707 274.399 51.884 274.464C51.6973 274.52 51.492 274.59 51.268 274.674L50.82 273.484L53.606 270.404L54.026 270.81L49.896 270.782V269.172H55.65L55.986 269.844L52.766 273.358L52.346 272.896C52.4207 272.859 52.542 272.826 52.71 272.798C52.8873 272.761 53.0413 272.742 53.172 272.742C53.5827 272.742 53.9747 272.821 54.348 272.98C54.7213 273.129 55.0433 273.344 55.314 273.624C55.594 273.904 55.8133 274.231 55.972 274.604C56.1307 274.968 56.21 275.365 56.21 275.794C56.21 276.438 56.0513 277.012 55.734 277.516C55.426 278.011 55.006 278.407 54.474 278.706C53.942 278.995 53.3493 279.14 52.696 279.14ZM61.1209 279.14C60.3276 279.14 59.6463 278.939 59.0769 278.538C58.5169 278.127 58.0829 277.549 57.7749 276.802C57.4763 276.046 57.3269 275.145 57.3269 274.1C57.3269 273.055 57.4763 272.159 57.7749 271.412C58.0829 270.656 58.5169 270.077 59.0769 269.676C59.6463 269.265 60.3276 269.06 61.1209 269.06C61.9143 269.06 62.5956 269.265 63.1649 269.676C63.7343 270.077 64.1683 270.656 64.4669 271.412C64.7749 272.159 64.9289 273.055 64.9289 274.1C64.9289 275.145 64.7749 276.046 64.4669 276.802C64.1683 277.549 63.7343 278.127 63.1649 278.538C62.5956 278.939 61.9143 279.14 61.1209 279.14ZM61.1209 277.544C61.7743 277.544 62.2783 277.245 62.6329 276.648C62.9969 276.041 63.1789 275.192 63.1789 274.1C63.1789 272.999 62.9969 272.145 62.6329 271.538C62.2783 270.931 61.7743 270.628 61.1209 270.628C60.4676 270.628 59.9589 270.931 59.5949 271.538C59.2403 272.145 59.0629 272.999 59.0629 274.1C59.0629 275.192 59.2403 276.041 59.5949 276.648C59.9589 277.245 60.4676 277.544 61.1209 277.544ZM68.161 276.746L67.825 275.136L71.325 271.622H73.621L68.161 276.746ZM66.551 279V268.64H68.273V279H66.551ZM71.535 279L68.819 275.71L70.037 274.674L73.663 279H71.535Z" fill="#8A8A8A"/>
<path d="M101.612 317.14C101.276 317.14 100.959 317.098 100.66 317.014C100.361 316.93 100.086 316.813 99.834 316.664C99.582 316.505 99.358 316.319 99.162 316.104C98.966 315.88 98.7933 315.633 98.644 315.362L99.75 314.228C99.918 314.471 100.077 314.671 100.226 314.83C100.375 314.989 100.515 315.11 100.646 315.194C100.786 315.278 100.926 315.339 101.066 315.376C101.215 315.413 101.365 315.432 101.514 315.432C101.813 315.432 102.074 315.367 102.298 315.236C102.522 315.096 102.695 314.905 102.816 314.662C102.947 314.419 103.012 314.144 103.012 313.836V308.838H101.206V307.2H106.316V308.838H104.804V314.018C104.804 314.475 104.725 314.895 104.566 315.278C104.407 315.651 104.183 315.978 103.894 316.258C103.614 316.538 103.278 316.757 102.886 316.916C102.503 317.065 102.079 317.14 101.612 317.14ZM110.202 317.14C109.596 317.14 109.045 316.972 108.55 316.636C108.056 316.3 107.659 315.843 107.36 315.264C107.062 314.685 106.912 314.027 106.912 313.29C106.912 312.553 107.062 311.895 107.36 311.316C107.659 310.737 108.065 310.285 108.578 309.958C109.092 309.631 109.67 309.468 110.314 309.468C110.688 309.468 111.028 309.524 111.336 309.636C111.644 309.739 111.915 309.888 112.148 310.084C112.382 310.28 112.573 310.504 112.722 310.756C112.881 311.008 112.988 311.279 113.044 311.568L112.666 311.47V309.622H114.402V317H112.652V315.236L113.058 315.166C112.993 315.418 112.872 315.665 112.694 315.908C112.526 316.141 112.312 316.351 112.05 316.538C111.798 316.715 111.514 316.86 111.196 316.972C110.888 317.084 110.557 317.14 110.202 317.14ZM110.678 315.614C111.08 315.614 111.434 315.516 111.742 315.32C112.05 315.124 112.288 314.853 112.456 314.508C112.634 314.153 112.722 313.747 112.722 313.29C112.722 312.842 112.634 312.445 112.456 312.1C112.288 311.755 112.05 311.484 111.742 311.288C111.434 311.092 111.08 310.994 110.678 310.994C110.277 310.994 109.922 311.092 109.614 311.288C109.316 311.484 109.082 311.755 108.914 312.1C108.746 312.445 108.662 312.842 108.662 313.29C108.662 313.747 108.746 314.153 108.914 314.508C109.082 314.853 109.316 315.124 109.614 315.32C109.922 315.516 110.277 315.614 110.678 315.614ZM116.399 317V309.622H118.079L118.107 311.134L117.785 311.302C117.878 310.966 118.06 310.663 118.331 310.392C118.601 310.112 118.923 309.888 119.297 309.72C119.67 309.552 120.053 309.468 120.445 309.468C121.005 309.468 121.471 309.58 121.845 309.804C122.227 310.028 122.512 310.364 122.699 310.812C122.895 311.26 122.993 311.82 122.993 312.492V317H121.271V312.618C121.271 312.245 121.219 311.937 121.117 311.694C121.014 311.442 120.855 311.26 120.641 311.148C120.426 311.027 120.165 310.971 119.857 310.98C119.605 310.98 119.371 311.022 119.157 311.106C118.951 311.181 118.769 311.293 118.611 311.442C118.461 311.582 118.34 311.745 118.247 311.932C118.163 312.119 118.121 312.324 118.121 312.548V317H117.267C117.099 317 116.94 317 116.791 317C116.651 317 116.52 317 116.399 317Z" fill="#8A8A8A"/>
<path d="M148.316 317V307.2H150.136V317H148.316ZM149.156 312.982V311.33H154.21V312.982H149.156ZM149.156 308.88V307.2H154.812V308.88H149.156ZM159.779 317.14C159.004 317.14 158.318 316.977 157.721 316.65C157.133 316.323 156.671 315.88 156.335 315.32C156.008 314.751 155.845 314.102 155.845 313.374C155.845 312.795 155.938 312.268 156.125 311.792C156.311 311.316 156.568 310.905 156.895 310.56C157.231 310.205 157.627 309.935 158.085 309.748C158.551 309.552 159.06 309.454 159.611 309.454C160.096 309.454 160.549 309.547 160.969 309.734C161.389 309.921 161.753 310.177 162.061 310.504C162.369 310.821 162.602 311.204 162.761 311.652C162.929 312.091 163.008 312.571 162.999 313.094L162.985 313.696H157.007L156.685 312.52H161.543L161.319 312.758V312.45C161.291 312.161 161.197 311.909 161.039 311.694C160.88 311.47 160.675 311.297 160.423 311.176C160.18 311.045 159.909 310.98 159.611 310.98C159.153 310.98 158.766 311.069 158.449 311.246C158.141 311.423 157.907 311.68 157.749 312.016C157.59 312.343 157.511 312.753 157.511 313.248C157.511 313.724 157.609 314.139 157.805 314.494C158.01 314.849 158.295 315.124 158.659 315.32C159.032 315.507 159.466 315.6 159.961 315.6C160.306 315.6 160.623 315.544 160.913 315.432C161.202 315.32 161.515 315.119 161.851 314.83L162.704 316.02C162.453 316.253 162.163 316.454 161.837 316.622C161.519 316.781 161.183 316.907 160.829 317C160.474 317.093 160.124 317.14 159.779 317.14ZM168.598 317.14C168.271 317.14 167.949 317.093 167.632 317C167.324 316.897 167.044 316.762 166.792 316.594C166.54 316.426 166.33 316.239 166.162 316.034C165.994 315.819 165.882 315.605 165.826 315.39L166.232 315.208L166.19 316.972H164.524V306.64H166.246V311.33L165.938 311.19C165.984 310.966 166.087 310.756 166.246 310.56C166.414 310.355 166.619 310.173 166.862 310.014C167.104 309.846 167.37 309.715 167.66 309.622C167.949 309.519 168.243 309.468 168.542 309.468C169.204 309.468 169.788 309.631 170.292 309.958C170.805 310.285 171.206 310.737 171.496 311.316C171.794 311.895 171.944 312.553 171.944 313.29C171.944 314.037 171.799 314.699 171.51 315.278C171.22 315.857 170.819 316.314 170.306 316.65C169.802 316.977 169.232 317.14 168.598 317.14ZM168.234 315.628C168.626 315.628 168.976 315.53 169.284 315.334C169.592 315.129 169.834 314.853 170.012 314.508C170.189 314.153 170.278 313.747 170.278 313.29C170.278 312.842 170.189 312.445 170.012 312.1C169.844 311.755 169.606 311.484 169.298 311.288C168.99 311.092 168.635 310.994 168.234 310.994C167.832 310.994 167.478 311.092 167.17 311.288C166.862 311.484 166.619 311.755 166.442 312.1C166.264 312.445 166.176 312.842 166.176 313.29C166.176 313.747 166.264 314.153 166.442 314.508C166.619 314.853 166.862 315.129 167.17 315.334C167.478 315.53 167.832 315.628 168.234 315.628Z" fill="#8A8A8A"/>
<path d="M197.316 317V307.2H199.038L202.608 313.01L201.6 312.996L205.212 307.2H206.85V317H205.044V313.318C205.044 312.478 205.063 311.722 205.1 311.05C205.147 310.378 205.221 309.711 205.324 309.048L205.548 309.65L202.51 314.34H201.586L198.646 309.692L198.842 309.048C198.945 309.673 199.015 310.317 199.052 310.98C199.099 311.633 199.122 312.413 199.122 313.318V317H197.316ZM211.962 317.14C211.355 317.14 210.805 316.972 210.31 316.636C209.815 316.3 209.419 315.843 209.12 315.264C208.821 314.685 208.672 314.027 208.672 313.29C208.672 312.553 208.821 311.895 209.12 311.316C209.419 310.737 209.825 310.285 210.338 309.958C210.851 309.631 211.43 309.468 212.074 309.468C212.447 309.468 212.788 309.524 213.096 309.636C213.404 309.739 213.675 309.888 213.908 310.084C214.141 310.28 214.333 310.504 214.482 310.756C214.641 311.008 214.748 311.279 214.804 311.568L214.426 311.47V309.622H216.162V317H214.412V315.236L214.818 315.166C214.753 315.418 214.631 315.665 214.454 315.908C214.286 316.141 214.071 316.351 213.81 316.538C213.558 316.715 213.273 316.86 212.956 316.972C212.648 317.084 212.317 317.14 211.962 317.14ZM212.438 315.614C212.839 315.614 213.194 315.516 213.502 315.32C213.81 315.124 214.048 314.853 214.216 314.508C214.393 314.153 214.482 313.747 214.482 313.29C214.482 312.842 214.393 312.445 214.216 312.1C214.048 311.755 213.81 311.484 213.502 311.288C213.194 311.092 212.839 310.994 212.438 310.994C212.037 310.994 211.682 311.092 211.374 311.288C211.075 311.484 210.842 311.755 210.674 312.1C210.506 312.445 210.422 312.842 210.422 313.29C210.422 313.747 210.506 314.153 210.674 314.508C210.842 314.853 211.075 315.124 211.374 315.32C211.682 315.516 212.037 315.614 212.438 315.614ZM218.158 317V309.622H219.852L219.88 311.974L219.642 311.442C219.745 311.069 219.922 310.733 220.174 310.434C220.426 310.135 220.716 309.902 221.042 309.734C221.378 309.557 221.728 309.468 222.092 309.468C222.251 309.468 222.4 309.482 222.54 309.51C222.69 309.538 222.811 309.571 222.904 309.608L222.442 311.498C222.34 311.442 222.214 311.395 222.064 311.358C221.915 311.321 221.766 311.302 221.616 311.302C221.383 311.302 221.159 311.349 220.944 311.442C220.739 311.526 220.557 311.647 220.398 311.806C220.24 311.965 220.114 312.151 220.02 312.366C219.936 312.571 219.894 312.805 219.894 313.066V317H218.158Z" fill="#8A8A8A"/>
<path d="M247.224 317L251.046 307.2H252.754L256.548 317H254.658L252.558 311.428C252.511 311.316 252.446 311.139 252.362 310.896C252.287 310.653 252.203 310.392 252.11 310.112C252.017 309.823 251.933 309.557 251.858 309.314C251.783 309.062 251.727 308.88 251.69 308.768L252.04 308.754C251.984 308.941 251.919 309.151 251.844 309.384C251.769 309.617 251.69 309.86 251.606 310.112C251.522 310.364 251.438 310.607 251.354 310.84C251.279 311.073 251.209 311.283 251.144 311.47L249.044 317H247.224ZM248.96 314.76L249.59 313.178H254.056L254.728 314.76H248.96ZM257.783 320.08V309.622H259.477L259.505 311.302L259.211 311.176C259.267 310.887 259.426 310.616 259.687 310.364C259.949 310.103 260.266 309.893 260.639 309.734C261.022 309.575 261.419 309.496 261.829 309.496C262.483 309.496 263.061 309.659 263.565 309.986C264.079 310.313 264.48 310.761 264.769 311.33C265.068 311.899 265.217 312.557 265.217 313.304C265.217 314.041 265.068 314.699 264.769 315.278C264.48 315.847 264.079 316.3 263.565 316.636C263.061 316.963 262.492 317.126 261.857 317.126C261.428 317.126 261.013 317.042 260.611 316.874C260.219 316.706 259.883 316.487 259.603 316.216C259.333 315.945 259.165 315.661 259.099 315.362L259.519 315.166V320.08H257.783ZM261.507 315.6C261.899 315.6 262.249 315.502 262.557 315.306C262.865 315.11 263.103 314.839 263.271 314.494C263.449 314.149 263.537 313.752 263.537 313.304C263.537 312.856 263.453 312.464 263.285 312.128C263.117 311.783 262.879 311.512 262.571 311.316C262.263 311.12 261.909 311.022 261.507 311.022C261.097 311.022 260.737 311.12 260.429 311.316C260.131 311.503 259.893 311.769 259.715 312.114C259.538 312.459 259.449 312.856 259.449 313.304C259.449 313.752 259.538 314.149 259.715 314.494C259.893 314.839 260.131 315.11 260.429 315.306C260.737 315.502 261.097 315.6 261.507 315.6ZM266.752 317V309.622H268.446L268.474 311.974L268.236 311.442C268.339 311.069 268.516 310.733 268.768 310.434C269.02 310.135 269.309 309.902 269.636 309.734C269.972 309.557 270.322 309.468 270.686 309.468C270.845 309.468 270.994 309.482 271.134 309.51C271.283 309.538 271.405 309.571 271.498 309.608L271.036 311.498C270.933 311.442 270.807 311.395 270.658 311.358C270.509 311.321 270.359 311.302 270.21 311.302C269.977 311.302 269.753 311.349 269.538 311.442C269.333 311.526 269.151 311.647 268.992 311.806C268.833 311.965 268.707 312.151 268.614 312.366C268.53 312.571 268.488 312.805 268.488 313.066V317H266.752Z" fill="#8A8A8A"/>
<path d="M296.316 317V307.2H298.038L301.608 313.01L300.6 312.996L304.212 307.2H305.85V317H304.044V313.318C304.044 312.478 304.063 311.722 304.1 311.05C304.147 310.378 304.221 309.711 304.324 309.048L304.548 309.65L301.51 314.34H300.586L297.646 309.692L297.842 309.048C297.945 309.673 298.015 310.317 298.052 310.98C298.099 311.633 298.122 312.413 298.122 313.318V317H296.316ZM310.962 317.14C310.355 317.14 309.805 316.972 309.31 316.636C308.815 316.3 308.419 315.843 308.12 315.264C307.821 314.685 307.672 314.027 307.672 313.29C307.672 312.553 307.821 311.895 308.12 311.316C308.419 310.737 308.825 310.285 309.338 309.958C309.851 309.631 310.43 309.468 311.074 309.468C311.447 309.468 311.788 309.524 312.096 309.636C312.404 309.739 312.675 309.888 312.908 310.084C313.141 310.28 313.333 310.504 313.482 310.756C313.641 311.008 313.748 311.279 313.804 311.568L313.426 311.47V309.622H315.162V317H313.412V315.236L313.818 315.166C313.753 315.418 313.631 315.665 313.454 315.908C313.286 316.141 313.071 316.351 312.81 316.538C312.558 316.715 312.273 316.86 311.956 316.972C311.648 317.084 311.317 317.14 310.962 317.14ZM311.438 315.614C311.839 315.614 312.194 315.516 312.502 315.32C312.81 315.124 313.048 314.853 313.216 314.508C313.393 314.153 313.482 313.747 313.482 313.29C313.482 312.842 313.393 312.445 313.216 312.1C313.048 311.755 312.81 311.484 312.502 311.288C312.194 311.092 311.839 310.994 311.438 310.994C311.037 310.994 310.682 311.092 310.374 311.288C310.075 311.484 309.842 311.755 309.674 312.1C309.506 312.445 309.422 312.842 309.422 313.29C309.422 313.747 309.506 314.153 309.674 314.508C309.842 314.853 310.075 315.124 310.374 315.32C310.682 315.516 311.037 315.614 311.438 315.614ZM318.114 320.22L319.682 316.594L319.696 317.742L316.056 309.622H318.044L320.074 314.438C320.14 314.559 320.205 314.723 320.27 314.928C320.336 315.124 320.392 315.32 320.438 315.516L320.088 315.628C320.154 315.451 320.224 315.264 320.298 315.068C320.373 314.863 320.443 314.653 320.508 314.438L322.244 309.622H324.246L321.166 317L319.906 320.22H318.114Z" fill="#8A8A8A"/>
<path d="M351.612 317.14C351.276 317.14 350.959 317.098 350.66 317.014C350.361 316.93 350.086 316.813 349.834 316.664C349.582 316.505 349.358 316.319 349.162 316.104C348.966 315.88 348.793 315.633 348.644 315.362L349.75 314.228C349.918 314.471 350.077 314.671 350.226 314.83C350.375 314.989 350.515 315.11 350.646 315.194C350.786 315.278 350.926 315.339 351.066 315.376C351.215 315.413 351.365 315.432 351.514 315.432C351.813 315.432 352.074 315.367 352.298 315.236C352.522 315.096 352.695 314.905 352.816 314.662C352.947 314.419 353.012 314.144 353.012 313.836V308.838H351.206V307.2H356.316V308.838H354.804V314.018C354.804 314.475 354.725 314.895 354.566 315.278C354.407 315.651 354.183 315.978 353.894 316.258C353.614 316.538 353.278 316.757 352.886 316.916C352.503 317.065 352.079 317.14 351.612 317.14ZM359.978 317.14C359.446 317.14 358.984 317.023 358.592 316.79C358.2 316.547 357.902 316.207 357.696 315.768C357.491 315.32 357.388 314.788 357.388 314.172V309.622H359.11V313.808C359.11 314.2 359.171 314.536 359.292 314.816C359.414 315.087 359.591 315.297 359.824 315.446C360.058 315.595 360.338 315.67 360.664 315.67C360.907 315.67 361.126 315.633 361.322 315.558C361.528 315.474 361.705 315.362 361.854 315.222C362.004 315.073 362.12 314.9 362.204 314.704C362.288 314.499 362.33 314.279 362.33 314.046V309.622H364.052V317H362.372L362.344 315.46L362.652 315.292C362.54 315.647 362.349 315.964 362.078 316.244C361.817 316.515 361.504 316.734 361.14 316.902C360.776 317.061 360.389 317.14 359.978 317.14ZM366.071 317V309.622H367.751L367.779 311.134L367.457 311.302C367.55 310.966 367.732 310.663 368.003 310.392C368.273 310.112 368.595 309.888 368.969 309.72C369.342 309.552 369.725 309.468 370.117 309.468C370.677 309.468 371.143 309.58 371.517 309.804C371.899 310.028 372.184 310.364 372.371 310.812C372.567 311.26 372.665 311.82 372.665 312.492V317H370.943V312.618C370.943 312.245 370.891 311.937 370.789 311.694C370.686 311.442 370.527 311.26 370.313 311.148C370.098 311.027 369.837 310.971 369.529 310.98C369.277 310.98 369.043 311.022 368.829 311.106C368.623 311.181 368.441 311.293 368.283 311.442C368.133 311.582 368.012 311.745 367.919 311.932C367.835 312.119 367.793 312.324 367.793 312.548V317H366.939C366.771 317 366.612 317 366.463 317C366.323 317 366.192 317 366.071 317Z" fill="#8A8A8A"/>
<path d="M400.612 317.14C400.276 317.14 399.959 317.098 399.66 317.014C399.361 316.93 399.086 316.813 398.834 316.664C398.582 316.505 398.358 316.319 398.162 316.104C397.966 315.88 397.793 315.633 397.644 315.362L398.75 314.228C398.918 314.471 399.077 314.671 399.226 314.83C399.375 314.989 399.515 315.11 399.646 315.194C399.786 315.278 399.926 315.339 400.066 315.376C400.215 315.413 400.365 315.432 400.514 315.432C400.813 315.432 401.074 315.367 401.298 315.236C401.522 315.096 401.695 314.905 401.816 314.662C401.947 314.419 402.012 314.144 402.012 313.836V308.838H400.206V307.2H405.316V308.838H403.804V314.018C403.804 314.475 403.725 314.895 403.566 315.278C403.407 315.651 403.183 315.978 402.894 316.258C402.614 316.538 402.278 316.757 401.886 316.916C401.503 317.065 401.079 317.14 400.612 317.14ZM408.978 317.14C408.446 317.14 407.984 317.023 407.592 316.79C407.2 316.547 406.902 316.207 406.696 315.768C406.491 315.32 406.388 314.788 406.388 314.172V309.622H408.11V313.808C408.11 314.2 408.171 314.536 408.292 314.816C408.414 315.087 408.591 315.297 408.824 315.446C409.058 315.595 409.338 315.67 409.664 315.67C409.907 315.67 410.126 315.633 410.322 315.558C410.528 315.474 410.705 315.362 410.854 315.222C411.004 315.073 411.12 314.9 411.204 314.704C411.288 314.499 411.33 314.279 411.33 314.046V309.622H413.052V317H411.372L411.344 315.46L411.652 315.292C411.54 315.647 411.349 315.964 411.078 316.244C410.817 316.515 410.504 316.734 410.14 316.902C409.776 317.061 409.389 317.14 408.978 317.14ZM415.085 317V306.64H416.821V317H415.085Z" fill="#8A8A8A"/>
<path d="M441.224 317L445.046 307.2H446.754L450.548 317H448.658L446.558 311.428C446.511 311.316 446.446 311.139 446.362 310.896C446.287 310.653 446.203 310.392 446.11 310.112C446.017 309.823 445.933 309.557 445.858 309.314C445.783 309.062 445.727 308.88 445.69 308.768L446.04 308.754C445.984 308.941 445.919 309.151 445.844 309.384C445.769 309.617 445.69 309.86 445.606 310.112C445.522 310.364 445.438 310.607 445.354 310.84C445.279 311.073 445.209 311.283 445.144 311.47L443.044 317H441.224ZM442.96 314.76L443.59 313.178H448.056L448.728 314.76H442.96ZM454.209 317.14C453.677 317.14 453.215 317.023 452.823 316.79C452.431 316.547 452.132 316.207 451.927 315.768C451.721 315.32 451.619 314.788 451.619 314.172V309.622H453.341V313.808C453.341 314.2 453.401 314.536 453.523 314.816C453.644 315.087 453.821 315.297 454.055 315.446C454.288 315.595 454.568 315.67 454.895 315.67C455.137 315.67 455.357 315.633 455.553 315.558C455.758 315.474 455.935 315.362 456.085 315.222C456.234 315.073 456.351 314.9 456.435 314.704C456.519 314.499 456.561 314.279 456.561 314.046V309.622H458.283V317H456.603L456.575 315.46L456.883 315.292C456.771 315.647 456.579 315.964 456.309 316.244C456.047 316.515 455.735 316.734 455.371 316.902C455.007 317.061 454.619 317.14 454.209 317.14ZM463.482 320.22C462.932 320.22 462.381 320.136 461.83 319.968C461.289 319.8 460.85 319.581 460.514 319.31L461.13 318.036C461.326 318.176 461.546 318.297 461.788 318.4C462.031 318.503 462.288 318.582 462.558 318.638C462.838 318.694 463.114 318.722 463.384 318.722C463.879 318.722 464.29 318.643 464.616 318.484C464.952 318.335 465.204 318.101 465.372 317.784C465.54 317.476 465.624 317.089 465.624 316.622V315.264L465.876 315.362C465.82 315.651 465.666 315.927 465.414 316.188C465.162 316.449 464.845 316.664 464.462 316.832C464.08 316.991 463.688 317.07 463.286 317.07C462.586 317.07 461.966 316.907 461.424 316.58C460.892 316.253 460.468 315.81 460.15 315.25C459.842 314.681 459.688 314.027 459.688 313.29C459.688 312.553 459.842 311.899 460.15 311.33C460.458 310.751 460.878 310.299 461.41 309.972C461.952 309.636 462.558 309.468 463.23 309.468C463.51 309.468 463.781 309.501 464.042 309.566C464.304 309.631 464.542 309.725 464.756 309.846C464.98 309.967 465.181 310.103 465.358 310.252C465.536 310.401 465.68 310.56 465.792 310.728C465.904 310.896 465.974 311.059 466.002 311.218L465.638 311.33L465.666 309.622H467.36V316.496C467.36 317.093 467.272 317.621 467.094 318.078C466.917 318.535 466.66 318.923 466.324 319.24C465.988 319.567 465.582 319.809 465.106 319.968C464.63 320.136 464.089 320.22 463.482 320.22ZM463.552 315.6C463.972 315.6 464.341 315.502 464.658 315.306C464.985 315.11 465.237 314.839 465.414 314.494C465.592 314.149 465.68 313.752 465.68 313.304C465.68 312.847 465.587 312.445 465.4 312.1C465.223 311.745 464.976 311.47 464.658 311.274C464.341 311.078 463.972 310.98 463.552 310.98C463.132 310.98 462.764 311.083 462.446 311.288C462.129 311.484 461.877 311.759 461.69 312.114C461.513 312.459 461.424 312.856 461.424 313.304C461.424 313.743 461.513 314.139 461.69 314.494C461.877 314.839 462.129 315.11 462.446 315.306C462.764 315.502 463.132 315.6 463.552 315.6Z" fill="#8A8A8A"/>
<path d="M496.424 317.14C495.855 317.14 495.332 317.07 494.856 316.93C494.38 316.781 493.951 316.561 493.568 316.272C493.185 315.983 492.845 315.633 492.546 315.222L493.736 313.878C494.193 314.513 494.641 314.951 495.08 315.194C495.519 315.437 496.013 315.558 496.564 315.558C496.881 315.558 497.171 315.511 497.432 315.418C497.693 315.315 497.899 315.18 498.048 315.012C498.197 314.835 498.272 314.634 498.272 314.41C498.272 314.251 498.239 314.107 498.174 313.976C498.118 313.836 498.029 313.715 497.908 313.612C497.787 313.5 497.637 313.397 497.46 313.304C497.283 313.211 497.082 313.131 496.858 313.066C496.634 313.001 496.387 312.94 496.116 312.884C495.603 312.781 495.155 312.646 494.772 312.478C494.389 312.301 494.067 312.086 493.806 311.834C493.545 311.573 493.353 311.283 493.232 310.966C493.111 310.639 493.05 310.271 493.05 309.86C493.05 309.449 493.139 309.071 493.316 308.726C493.503 308.381 493.755 308.082 494.072 307.83C494.389 307.578 494.758 307.382 495.178 307.242C495.598 307.102 496.051 307.032 496.536 307.032C497.087 307.032 497.577 307.097 498.006 307.228C498.445 307.359 498.827 307.555 499.154 307.816C499.49 308.068 499.765 308.376 499.98 308.74L498.776 309.93C498.589 309.641 498.379 309.403 498.146 309.216C497.913 309.02 497.661 308.875 497.39 308.782C497.119 308.679 496.835 308.628 496.536 308.628C496.2 308.628 495.906 308.675 495.654 308.768C495.411 308.861 495.22 308.997 495.08 309.174C494.94 309.342 494.87 309.547 494.87 309.79C494.87 309.977 494.912 310.145 494.996 310.294C495.08 310.434 495.197 310.56 495.346 310.672C495.505 310.784 495.705 310.882 495.948 310.966C496.191 311.05 496.466 311.125 496.774 311.19C497.287 311.293 497.749 311.433 498.16 311.61C498.571 311.778 498.921 311.983 499.21 312.226C499.499 312.459 499.719 312.73 499.868 313.038C500.017 313.337 500.092 313.673 500.092 314.046C500.092 314.69 499.938 315.245 499.63 315.712C499.331 316.169 498.907 316.524 498.356 316.776C497.805 317.019 497.161 317.14 496.424 317.14ZM505.243 317.14C504.469 317.14 503.783 316.977 503.185 316.65C502.597 316.323 502.135 315.88 501.799 315.32C501.473 314.751 501.309 314.102 501.309 313.374C501.309 312.795 501.403 312.268 501.589 311.792C501.776 311.316 502.033 310.905 502.359 310.56C502.695 310.205 503.092 309.935 503.549 309.748C504.016 309.552 504.525 309.454 505.075 309.454C505.561 309.454 506.013 309.547 506.433 309.734C506.853 309.921 507.217 310.177 507.525 310.504C507.833 310.821 508.067 311.204 508.225 311.652C508.393 312.091 508.473 312.571 508.463 313.094L508.449 313.696H502.471L502.149 312.52H507.007L506.783 312.758V312.45C506.755 312.161 506.662 311.909 506.503 311.694C506.345 311.47 506.139 311.297 505.887 311.176C505.645 311.045 505.374 310.98 505.075 310.98C504.618 310.98 504.231 311.069 503.913 311.246C503.605 311.423 503.372 311.68 503.213 312.016C503.055 312.343 502.975 312.753 502.975 313.248C502.975 313.724 503.073 314.139 503.269 314.494C503.475 314.849 503.759 315.124 504.123 315.32C504.497 315.507 504.931 315.6 505.425 315.6C505.771 315.6 506.088 315.544 506.377 315.432C506.667 315.32 506.979 315.119 507.315 314.83L508.169 316.02C507.917 316.253 507.628 316.454 507.301 316.622C506.984 316.781 506.648 316.907 506.293 317C505.939 317.093 505.589 317.14 505.243 317.14ZM509.988 320.08V309.622H511.682L511.71 311.302L511.416 311.176C511.472 310.887 511.631 310.616 511.892 310.364C512.154 310.103 512.471 309.893 512.844 309.734C513.227 309.575 513.624 309.496 514.034 309.496C514.688 309.496 515.266 309.659 515.77 309.986C516.284 310.313 516.685 310.761 516.974 311.33C517.273 311.899 517.422 312.557 517.422 313.304C517.422 314.041 517.273 314.699 516.974 315.278C516.685 315.847 516.284 316.3 515.77 316.636C515.266 316.963 514.697 317.126 514.062 317.126C513.633 317.126 513.218 317.042 512.816 316.874C512.424 316.706 512.088 316.487 511.808 316.216C511.538 315.945 511.37 315.661 511.304 315.362L511.724 315.166V320.08H509.988ZM513.712 315.6C514.104 315.6 514.454 315.502 514.762 315.306C515.07 315.11 515.308 314.839 515.476 314.494C515.654 314.149 515.742 313.752 515.742 313.304C515.742 312.856 515.658 312.464 515.49 312.128C515.322 311.783 515.084 311.512 514.776 311.316C514.468 311.12 514.114 311.022 513.712 311.022C513.302 311.022 512.942 311.12 512.634 311.316C512.336 311.503 512.098 311.769 511.92 312.114C511.743 312.459 511.654 312.856 511.654 313.304C511.654 313.752 511.743 314.149 511.92 314.494C512.098 314.839 512.336 315.11 512.634 315.306C512.942 315.502 513.302 315.6 513.712 315.6ZM519.755 317V307.746H521.477V317H519.755ZM518.299 311.218V309.622H523.087V311.218H518.299Z" fill="#8A8A8A"/>
<path d="M552.544 317.14C551.844 317.14 551.195 317.014 550.598 316.762C550.001 316.51 549.478 316.16 549.03 315.712C548.591 315.255 548.251 314.718 548.008 314.102C547.765 313.486 547.644 312.814 547.644 312.086C547.644 311.358 547.765 310.686 548.008 310.07C548.251 309.454 548.591 308.922 549.03 308.474C549.478 308.017 550.001 307.662 550.598 307.41C551.195 307.158 551.844 307.032 552.544 307.032C553.253 307.032 553.907 307.158 554.504 307.41C555.101 307.662 555.619 308.017 556.058 308.474C556.497 308.931 556.837 309.468 557.08 310.084C557.323 310.691 557.444 311.358 557.444 312.086C557.444 312.805 557.323 313.472 557.08 314.088C556.837 314.704 556.497 315.241 556.058 315.698C555.619 316.155 555.101 316.51 554.504 316.762C553.907 317.014 553.253 317.14 552.544 317.14ZM552.544 315.404C552.992 315.404 553.398 315.325 553.762 315.166C554.135 314.998 554.457 314.765 554.728 314.466C554.999 314.158 555.209 313.803 555.358 313.402C555.517 313.001 555.596 312.562 555.596 312.086C555.596 311.61 555.517 311.171 555.358 310.77C555.209 310.369 554.999 310.019 554.728 309.72C554.457 309.412 554.135 309.179 553.762 309.02C553.398 308.852 552.992 308.768 552.544 308.768C552.105 308.768 551.699 308.852 551.326 309.02C550.953 309.179 550.631 309.407 550.36 309.706C550.089 310.005 549.879 310.355 549.73 310.756C549.581 311.157 549.506 311.601 549.506 312.086C549.506 312.562 549.581 313.005 549.73 313.416C549.879 313.817 550.089 314.167 550.36 314.466C550.631 314.765 550.953 314.998 551.326 315.166C551.699 315.325 552.105 315.404 552.544 315.404ZM562.274 317.14C561.583 317.14 560.962 316.972 560.412 316.636C559.861 316.3 559.427 315.843 559.11 315.264C558.792 314.685 558.634 314.032 558.634 313.304C558.634 312.576 558.792 311.923 559.11 311.344C559.427 310.765 559.861 310.308 560.412 309.972C560.962 309.636 561.583 309.468 562.274 309.468C562.936 309.468 563.538 309.594 564.08 309.846C564.621 310.098 565.041 310.448 565.34 310.896L564.388 312.044C564.248 311.848 564.07 311.671 563.856 311.512C563.641 311.353 563.412 311.227 563.17 311.134C562.927 311.041 562.684 310.994 562.442 310.994C562.031 310.994 561.662 311.097 561.336 311.302C561.018 311.498 560.766 311.773 560.58 312.128C560.393 312.473 560.3 312.865 560.3 313.304C560.3 313.743 560.393 314.135 560.58 314.48C560.776 314.825 561.037 315.101 561.364 315.306C561.69 315.511 562.054 315.614 562.456 315.614C562.698 315.614 562.932 315.577 563.156 315.502C563.389 315.418 563.608 315.301 563.814 315.152C564.019 315.003 564.21 314.816 564.388 314.592L565.34 315.754C565.022 316.165 564.584 316.501 564.024 316.762C563.473 317.014 562.89 317.14 562.274 317.14ZM567.454 317V307.746H569.176V317H567.454ZM565.998 311.218V309.622H570.786V311.218H565.998Z" fill="#8A8A8A"/>
<path d="M596.316 317V307.2H597.954L603.638 314.858L603.33 314.914C603.293 314.653 603.26 314.387 603.232 314.116C603.204 313.836 603.176 313.547 603.148 313.248C603.129 312.949 603.111 312.637 603.092 312.31C603.083 311.983 603.073 311.643 603.064 311.288C603.055 310.924 603.05 310.541 603.05 310.14V307.2H604.856V317H603.19L597.478 309.454L597.842 309.356C597.889 309.879 597.926 310.327 597.954 310.7C597.991 311.064 598.019 311.381 598.038 311.652C598.057 311.913 598.071 312.133 598.08 312.31C598.099 312.487 598.108 312.651 598.108 312.8C598.117 312.94 598.122 313.075 598.122 313.206V317H596.316ZM610.552 317.14C609.815 317.14 609.157 316.977 608.578 316.65C607.999 316.314 607.542 315.857 607.206 315.278C606.87 314.699 606.702 314.041 606.702 313.304C606.702 312.567 606.87 311.909 607.206 311.33C607.542 310.751 607.999 310.299 608.578 309.972C609.157 309.636 609.815 309.468 610.552 309.468C611.28 309.468 611.933 309.636 612.512 309.972C613.091 310.299 613.543 310.751 613.87 311.33C614.206 311.909 614.374 312.567 614.374 313.304C614.374 314.041 614.206 314.699 613.87 315.278C613.543 315.857 613.091 316.314 612.512 316.65C611.933 316.977 611.28 317.14 610.552 317.14ZM610.552 315.614C610.953 315.614 611.308 315.511 611.616 315.306C611.933 315.101 612.181 314.825 612.358 314.48C612.545 314.135 612.633 313.743 612.624 313.304C612.633 312.856 612.545 312.459 612.358 312.114C612.181 311.769 611.933 311.498 611.616 311.302C611.308 311.097 610.953 310.994 610.552 310.994C610.151 310.994 609.787 311.097 609.46 311.302C609.143 311.498 608.895 311.773 608.718 312.128C608.541 312.473 608.452 312.865 608.452 313.304C608.452 313.743 608.541 314.135 608.718 314.48C608.895 314.825 609.143 315.101 609.46 315.306C609.787 315.511 610.151 315.614 610.552 315.614ZM618.075 317L614.967 309.622H616.843L618.943 315.138L618.579 315.236L620.791 309.622H622.625L619.363 317H618.075Z" fill="#8A8A8A"/>
<path d="M647.316 317V307.2H651.25C651.959 307.2 652.599 307.317 653.168 307.55C653.747 307.783 654.241 308.119 654.652 308.558C655.072 308.997 655.389 309.515 655.604 310.112C655.828 310.709 655.94 311.372 655.94 312.1C655.94 312.828 655.828 313.495 655.604 314.102C655.389 314.699 655.077 315.217 654.666 315.656C654.255 316.085 653.761 316.417 653.182 316.65C652.603 316.883 651.959 317 651.25 317H647.316ZM649.136 315.586L648.996 315.32H651.18C651.637 315.32 652.043 315.245 652.398 315.096C652.762 314.947 653.07 314.732 653.322 314.452C653.574 314.172 653.765 313.836 653.896 313.444C654.027 313.043 654.092 312.595 654.092 312.1C654.092 311.605 654.027 311.162 653.896 310.77C653.765 310.369 653.569 310.028 653.308 309.748C653.056 309.468 652.753 309.253 652.398 309.104C652.043 308.955 651.637 308.88 651.18 308.88H648.954L649.136 308.642V315.586ZM661.062 317.14C660.287 317.14 659.601 316.977 659.004 316.65C658.416 316.323 657.954 315.88 657.618 315.32C657.291 314.751 657.128 314.102 657.128 313.374C657.128 312.795 657.221 312.268 657.408 311.792C657.594 311.316 657.851 310.905 658.178 310.56C658.514 310.205 658.91 309.935 659.368 309.748C659.834 309.552 660.343 309.454 660.894 309.454C661.379 309.454 661.832 309.547 662.252 309.734C662.672 309.921 663.036 310.177 663.344 310.504C663.652 310.821 663.885 311.204 664.044 311.652C664.212 312.091 664.291 312.571 664.282 313.094L664.268 313.696H658.29L657.968 312.52H662.826L662.602 312.758V312.45C662.574 312.161 662.48 311.909 662.322 311.694C662.163 311.47 661.958 311.297 661.706 311.176C661.463 311.045 661.192 310.98 660.894 310.98C660.436 310.98 660.049 311.069 659.732 311.246C659.424 311.423 659.19 311.68 659.032 312.016C658.873 312.343 658.794 312.753 658.794 313.248C658.794 313.724 658.892 314.139 659.088 314.494C659.293 314.849 659.578 315.124 659.942 315.32C660.315 315.507 660.749 315.6 661.244 315.6C661.589 315.6 661.906 315.544 662.196 315.432C662.485 315.32 662.798 315.119 663.134 314.83L663.988 316.02C663.736 316.253 663.446 316.454 663.12 316.622C662.802 316.781 662.466 316.907 662.112 317C661.757 317.093 661.407 317.14 661.062 317.14ZM668.971 317.14C668.28 317.14 667.659 316.972 667.109 316.636C666.558 316.3 666.124 315.843 665.807 315.264C665.489 314.685 665.331 314.032 665.331 313.304C665.331 312.576 665.489 311.923 665.807 311.344C666.124 310.765 666.558 310.308 667.109 309.972C667.659 309.636 668.28 309.468 668.971 309.468C669.633 309.468 670.235 309.594 670.777 309.846C671.318 310.098 671.738 310.448 672.037 310.896L671.085 312.044C670.945 311.848 670.767 311.671 670.553 311.512C670.338 311.353 670.109 311.227 669.867 311.134C669.624 311.041 669.381 310.994 669.139 310.994C668.728 310.994 668.359 311.097 668.033 311.302C667.715 311.498 667.463 311.773 667.277 312.128C667.09 312.473 666.997 312.865 666.997 313.304C666.997 313.743 667.09 314.135 667.277 314.48C667.473 314.825 667.734 315.101 668.061 315.306C668.387 315.511 668.751 315.614 669.153 315.614C669.395 315.614 669.629 315.577 669.853 315.502C670.086 315.418 670.305 315.301 670.511 315.152C670.716 315.003 670.907 314.816 671.085 314.592L672.037 315.754C671.719 316.165 671.281 316.501 670.721 316.762C670.17 317.014 669.587 317.14 668.971 317.14Z" fill="#8A8A8A"/>
<path d="M99 116C99 113.791 100.791 112 103 112H105.212H108.924H112.636H115C117.209 112 119 113.791 119 116V282C119 284.209 117.209 286 115 286H103C100.791 286 99 284.209 99 282V116Z" fill="#F0F6FF"/>
<path d="M499 116C499 113.791 500.791 112 503 112H505.212H508.924H512.636H515C517.209 112 519 113.791 519 116V282C519 284.209 517.209 286 515 286H503C500.791 286 499 284.209 499 282V116Z" fill="#F0F6FF"/>
<path d="M299 116C299 113.791 300.791 112 303 112H305.212H308.924H312.636H315C317.209 112 319 113.791 319 116V282C319 284.209 317.209 286 315 286H303C300.791 286 299 284.209 299 282V116Z" fill="#F0F6FF"/>
<path d="M149 116C149 113.791 150.791 112 153 112H155.212H158.924H162.636H165C167.209 112 169 113.791 169 116V282C169 284.209 167.209 286 165 286H153C150.791 286 149 284.209 149 282V116Z" fill="#F0F6FF"/>
<path d="M549 116C549 113.791 550.791 112 553 112H555.212H558.924H562.636H565C567.209 112 569 113.791 569 116V282C569 284.209 567.209 286 565 286H553C550.791 286 549 284.209 549 282V116Z" fill="#F0F6FF"/>
<path d="M349 116C349 113.791 350.791 112 353 112H355.212H358.924H362.636H365C367.209 112 369 113.791 369 116V282C369 284.209 367.209 286 365 286H353C350.791 286 349 284.209 349 282V116Z" fill="#F0F6FF"/>
<path d="M199 116C199 113.791 200.791 112 203 112H205.212H208.924H212.636H215C217.209 112 219 113.791 219 116V282C219 284.209 217.209 286 215 286H203C200.791 286 199 284.209 199 282V116Z" fill="#F0F6FF"/>
<path d="M599 116C599 113.791 600.791 112 603 112H605.212H608.924H612.636H615C617.209 112 619 113.791 619 116V282C619 284.209 617.209 286 615 286H603C600.791 286 599 284.209 599 282V116Z" fill="#F0F6FF"/>
<path d="M399 116C399 113.791 400.791 112 403 112H405.212H408.924H412.636H415C417.209 112 419 113.791 419 116V282C419 284.209 417.209 286 415 286H403C400.791 286 399 284.209 399 282V116Z" fill="#F0F6FF"/>
<path d="M249 116C249 113.791 250.791 112 253 112H255.212H258.924H262.636H265C267.209 112 269 113.791 269 116V282C269 284.209 267.209 286 265 286H253C250.791 286 249 284.209 249 282V116Z" fill="#F0F6FF"/>
<path d="M649 116C649 113.791 650.791 112 653 112H655.212H658.924H662.636H665C667.209 112 669 113.791 669 116V282C669 284.209 667.209 286 665 286H653C650.791 286 649 284.209 649 282V116Z" fill="#F0F6FF"/>
<path d="M449 116C449 113.791 450.791 112 453 112H455.212H458.924H462.636H465C467.209 112 469 113.791 469 116V282C469 284.209 467.209 286 465 286H453C450.791 286 449 284.209 449 282V116Z" fill="#F0F6FF"/>
<path d="M98.9999 207.782L124.604 199.518L145.031 191.788C148.801 190.362 152.914 190.108 156.831 191.059L173.399 195.084C175.402 195.571 177.319 196.365 179.08 197.437L202.027 211.412L211.295 216.239C220.777 221.177 232.465 217.786 237.831 208.54L251.616 184.79C253.472 181.592 256.178 178.972 259.433 177.219L270.688 171.159C276.546 168.005 283.589 167.971 289.478 171.068L302.081 177.696C304.837 179.145 307.894 179.931 311.007 179.99L333.453 180.42C336.192 180.473 338.911 179.962 341.444 178.921L371.593 166.52C379.25 163.37 388.057 165.264 393.742 171.285L395.362 173L408.144 193L418.695 208.786C419.235 209.594 419.834 210.362 420.485 211.083L436.124 228.388C441.106 233.9 449.593 234.384 455.169 229.474V229.474C459.163 225.956 464.844 225.097 469.7 227.276L477.428 230.745C483.605 233.516 490.764 232.975 496.454 229.307L503.942 224.479C509.893 220.642 517.429 220.238 523.756 223.416L532.692 227.904C536.865 230 541.64 230.569 546.189 229.514L550.302 228.559C559.172 226.501 568.313 230.694 572.539 238.76L582.536 257.843C587.318 266.97 598.252 270.971 607.795 267.085L612.749 265.067C615.663 263.881 618.816 263.398 621.952 263.66L630.369 264.361C637.97 264.994 645.269 261.249 649.188 254.706L669 221.624" stroke="#424BD1" stroke-width="3" stroke-linecap="round" stroke-linejoin="round"/>
<path d="M98.9999 185.782L124.604 177.518L145.031 169.788C148.801 168.362 152.914 168.108 156.831 169.059L163.484 170.676C171.321 172.579 177.247 179.003 178.515 186.967L180.918 202.073C183.891 220.757 208.741 225.251 218.07 208.792L222.09 201.699L251.793 161.501C253.546 159.129 255.801 157.175 258.397 155.777L270.688 149.159C276.546 146.005 283.589 145.971 289.478 149.068L302.093 155.701C304.841 157.147 307.89 157.931 310.995 157.99L323.361 158.227C330.481 158.364 335.474 165.299 333.345 172.094V172.094C329.561 184.171 346.698 191.9 353.471 181.209C358.738 172.892 363.087 166.263 365.537 163C376.425 148.5 393.469 150.5 398.203 160C402 167.62 402.447 173.953 402.475 176.161C402.482 176.723 402.47 177.281 402.482 177.843L402.939 199.353C403.191 211.201 413.633 220.233 425.395 218.775L435.796 217.486C441.697 216.755 447.618 218.687 451.951 222.758L463.642 233.743C472.619 242.177 487.331 235.812 487.331 223.495V223.495C487.331 217.36 491.309 211.933 497.159 210.086L510.381 205.912C516.09 204.109 522.306 204.959 527.322 208.228L533.432 212.21C537.34 214.757 542.316 215.005 546.458 212.859V212.859C555.078 208.394 565.364 214.649 565.364 224.356V248V248C569.982 260.739 585.752 265.534 596.477 257.252L608.871 247.68C613.874 243.816 620.745 243.446 626.135 246.749V246.749C632.121 250.418 639.84 249.518 644.822 244.571L668.053 221.5" stroke="#FFBC42" stroke-width="3" stroke-linecap="round" stroke-linejoin="round"/>
<path d="M57.0566 66.1953C55.7025 66.1953 54.4883 65.9023 53.4141 65.3164C52.3398 64.724 51.4967 63.8841 50.8848 62.7969C50.2728 61.7096 49.9668 60.4434 49.9668 58.998C49.9668 57.5592 50.2728 56.2962 50.8848 55.209C51.4967 54.1217 52.3398 53.2852 53.4141 52.6992C54.4883 52.1133 55.7025 51.8203 57.0566 51.8203C58.0527 51.8203 58.9772 51.9831 59.8301 52.3086C60.6829 52.6341 61.4251 53.1029 62.0566 53.7148C62.6947 54.3268 63.1829 55.0527 63.5215 55.8926L61.168 56.7812C60.8229 55.9544 60.2858 55.3132 59.5566 54.8574C58.8275 54.3952 57.9941 54.1641 57.0566 54.1641C56.1908 54.1641 55.4095 54.3594 54.7129 54.75C54.0228 55.1341 53.4792 55.6908 53.082 56.4199C52.6849 57.1491 52.4863 58.0085 52.4863 58.998C52.4863 59.9941 52.6849 60.8568 53.082 61.5859C53.4792 62.3151 54.0228 62.875 54.7129 63.2656C55.4095 63.6497 56.1908 63.8418 57.0566 63.8418C57.9941 63.8418 58.8275 63.6139 59.5566 63.1582C60.2858 62.696 60.8229 62.0514 61.168 61.2246L63.5215 62.1133C63.1829 62.9596 62.6947 63.6888 62.0566 64.3008C61.4251 64.9128 60.6829 65.3815 59.8301 65.707C58.9772 66.0326 58.0527 66.1953 57.0566 66.1953ZM71.2266 55.9121C72.3203 55.9121 73.1732 56.2246 73.7852 56.8496C74.4036 57.4681 74.7129 58.373 74.7129 59.5645V66H72.2617V59.9844C72.2617 59.2552 72.0859 58.7246 71.7344 58.3926C71.3828 58.0605 70.9206 57.8945 70.3477 57.8945C69.7096 57.8945 69.1725 58.0931 68.7363 58.4902C68.3066 58.8874 68.0885 59.5221 68.082 60.3945V66H65.6504V51H68.082V57.3281C68.4271 56.8789 68.8665 56.5306 69.4004 56.2832C69.9408 56.0358 70.5495 55.9121 71.2266 55.9121ZM87.0371 56.1074V66H84.7129L84.6543 64.5254C84.3613 65.0592 83.9284 65.4759 83.3555 65.7754C82.7826 66.0749 82.138 66.2246 81.4219 66.2246C80.556 66.2246 79.7617 66.0163 79.0391 65.5996C78.3229 65.1764 77.7533 64.5742 77.3301 63.793C76.9134 63.0117 76.7051 62.1035 76.7051 61.0684C76.7051 60.0332 76.9167 59.125 77.3398 58.3438C77.763 57.5625 78.3327 56.9635 79.0488 56.5469C79.7715 56.1237 80.5625 55.9121 81.4219 55.9121C82.1185 55.9121 82.75 56.0553 83.3164 56.3418C83.8828 56.6283 84.3125 57.0254 84.6055 57.5332V56.1074H87.0371ZM81.9688 64.1836C82.4961 64.1836 82.9746 64.0534 83.4043 63.793C83.834 63.526 84.1725 63.1582 84.4199 62.6895C84.6673 62.2142 84.791 61.6738 84.791 61.0684C84.791 60.4629 84.6673 59.9258 84.4199 59.457C84.1725 58.9818 83.834 58.6139 83.4043 58.3535C82.9746 58.0866 82.4961 57.9531 81.9688 57.9531C81.4414 57.9531 80.9629 58.0801 80.5332 58.334C80.1035 58.5879 79.7617 58.9525 79.5078 59.4277C79.2604 59.8965 79.1367 60.4434 79.1367 61.0684C79.1367 61.6934 79.2604 62.2435 79.5078 62.7188C79.7617 63.1875 80.1035 63.5488 80.5332 63.8027C80.9629 64.0566 81.4414 64.1836 81.9688 64.1836ZM93.5117 66C92.6003 66 91.8906 65.7428 91.3828 65.2285C90.875 64.7077 90.6211 63.9785 90.6211 63.041V57.9922H88.6484V56.1074C89.3451 56.1074 89.8626 56.0326 90.2012 55.8828C90.5462 55.7266 90.7871 55.4401 90.9238 55.0234C91.0671 54.6003 91.1387 53.9622 91.1387 53.1094H93.082V56.1074H95.2012V57.9922H93.082V62.7773C93.082 63.2266 93.1895 63.5651 93.4043 63.793C93.6191 64.0143 93.9186 64.125 94.3027 64.125H95.2012V66H93.5117ZM109.762 58.5586C110.595 58.7799 111.236 59.1803 111.686 59.7598C112.135 60.3392 112.359 61.1107 112.359 62.0742C112.359 63.3047 111.995 64.2682 111.266 64.9648C110.536 65.6549 109.4 66 107.857 66H102.457V52.0059H106.598C108.238 52.0059 109.439 52.3411 110.201 53.0117C110.969 53.6758 111.354 54.5905 111.354 55.7559C111.354 56.4069 111.217 56.9766 110.943 57.4648C110.676 57.9466 110.283 58.3112 109.762 58.5586ZM104.908 54.1445V57.7676H107.027C107.704 57.7676 108.202 57.6016 108.521 57.2695C108.847 56.9375 109.01 56.4883 109.01 55.9219C109.01 55.3099 108.798 54.8607 108.375 54.5742C107.958 54.2878 107.369 54.1445 106.607 54.1445H104.908ZM107.398 63.8125C108.323 63.8125 108.971 63.6335 109.342 63.2754C109.713 62.9108 109.898 62.4258 109.898 61.8203C109.898 61.1823 109.71 60.6777 109.332 60.3066C108.961 59.9355 108.346 59.75 107.486 59.75H104.908V63.8125H107.398ZM119.234 66.1953C118.219 66.1953 117.311 65.9902 116.51 65.5801C115.715 65.1634 115.09 64.5677 114.635 63.793C114.186 63.0117 113.961 62.0938 113.961 61.0391C113.961 59.9974 114.186 59.0892 114.635 58.3145C115.084 57.5397 115.706 56.9473 116.5 56.5371C117.301 56.1204 118.212 55.9121 119.234 55.9121C120.263 55.9121 121.174 56.1204 121.969 56.5371C122.77 56.9473 123.395 57.5397 123.844 58.3145C124.293 59.0892 124.518 59.9974 124.518 61.0391C124.518 62.0938 124.293 63.0117 123.844 63.793C123.395 64.5677 122.77 65.1634 121.969 65.5801C121.168 65.9902 120.257 66.1953 119.234 66.1953ZM119.215 64.2324C119.775 64.2324 120.273 64.1022 120.709 63.8418C121.145 63.5749 121.487 63.2005 121.734 62.7188C121.982 62.2305 122.105 61.6706 122.105 61.0391C122.105 60.4141 121.982 59.8607 121.734 59.3789C121.487 58.8906 121.142 58.5163 120.699 58.2559C120.263 57.9889 119.768 57.8555 119.215 57.8555C118.674 57.8555 118.189 57.9889 117.76 58.2559C117.33 58.5163 116.992 58.8906 116.744 59.3789C116.503 59.8607 116.383 60.4141 116.383 61.0391C116.383 61.6706 116.503 62.2305 116.744 62.7188C116.985 63.2005 117.32 63.5749 117.75 63.8418C118.18 64.1022 118.668 64.2324 119.215 64.2324ZM130.406 66C129.495 66 128.785 65.7428 128.277 65.2285C127.77 64.7077 127.516 63.9785 127.516 63.041V57.9922H125.543V56.1074C126.24 56.1074 126.757 56.0326 127.096 55.8828C127.441 55.7266 127.682 55.4401 127.818 55.0234C127.962 54.6003 128.033 53.9622 128.033 53.1094H129.977V56.1074H132.096V57.9922H129.977V62.7773C129.977 63.2266 130.084 63.5651 130.299 63.793C130.514 64.0143 130.813 64.125 131.197 64.125H132.096V66H130.406Z" fill="#8A8A8A"/>
<rect x="571" y="56" width="12" height="7" rx="3.5" fill="#FFBC42"/>
<path d="M596.867 64.1113C596.277 64.1113 595.744 64.0215 595.268 63.8418C594.795 63.6582 594.406 63.3926 594.102 63.0449C593.797 62.6934 593.6 62.2754 593.51 61.791L594.951 61.457C595.025 61.9297 595.24 62.2969 595.596 62.5586C595.955 62.8164 596.398 62.9453 596.926 62.9453C597.367 62.9453 597.734 62.8477 598.027 62.6523C598.32 62.4531 598.467 62.1504 598.467 61.7441C598.467 61.4551 598.373 61.2188 598.186 61.0352C597.998 60.8477 597.768 60.7031 597.494 60.6016C597.225 60.4961 596.842 60.373 596.346 60.2324C595.799 60.0723 595.352 59.9141 595.004 59.7578C594.656 59.5977 594.365 59.3691 594.131 59.0723C593.896 58.7715 593.779 58.3828 593.779 57.9062C593.779 57.4023 593.904 56.9727 594.154 56.6172C594.408 56.2578 594.752 55.9863 595.186 55.8027C595.619 55.6191 596.105 55.5273 596.645 55.5273C597.156 55.5273 597.633 55.6016 598.074 55.75C598.516 55.8984 598.891 56.1309 599.199 56.4473C599.512 56.7637 599.719 57.1621 599.82 57.6426L598.467 57.9824C598.377 57.5527 598.176 57.2324 597.863 57.0215C597.555 56.8066 597.172 56.6992 596.715 56.6992C596.285 56.6992 595.924 56.7969 595.631 56.9922C595.342 57.1875 595.197 57.4844 595.197 57.8828C595.197 58.125 595.279 58.3242 595.443 58.4805C595.607 58.6367 595.812 58.7617 596.059 58.8555C596.305 58.9453 596.65 59.0527 597.096 59.1777C597.682 59.3418 598.164 59.5059 598.543 59.6699C598.922 59.834 599.244 60.0781 599.51 60.4023C599.779 60.7227 599.914 61.1426 599.914 61.6621C599.914 62.2129 599.775 62.6719 599.498 63.0391C599.221 63.4062 598.852 63.6777 598.391 63.8535C597.934 64.0254 597.426 64.1113 596.867 64.1113ZM606.781 61.293H602.299C602.314 61.6719 602.4 61.9922 602.557 62.2539C602.713 62.5117 602.916 62.7051 603.166 62.834C603.416 62.9629 603.695 63.0273 604.004 63.0273C604.332 63.0273 604.623 62.9473 604.877 62.7871C605.135 62.627 605.33 62.3984 605.463 62.1016L606.693 62.3125C606.49 62.8789 606.15 63.3203 605.674 63.6367C605.197 63.9531 604.645 64.1113 604.016 64.1113C603.41 64.1113 602.879 63.9902 602.422 63.748C601.965 63.5059 601.609 63.1543 601.355 62.6934C601.102 62.2324 600.975 61.6855 600.975 61.0527C600.975 60.4199 601.102 59.873 601.355 59.4121C601.613 58.9512 601.969 58.5996 602.422 58.3574C602.875 58.1113 603.393 57.9883 603.975 57.9883C604.529 57.9883 605.018 58.0977 605.439 58.3164C605.861 58.5352 606.193 58.8672 606.436 59.3125C606.678 59.7539 606.799 60.3008 606.799 60.9531L606.781 61.293ZM603.98 58.9902C603.562 58.9902 603.213 59.0938 602.932 59.3008C602.654 59.5078 602.467 59.8203 602.369 60.2383H605.439C605.381 59.8281 605.221 59.5176 604.959 59.3066C604.701 59.0957 604.375 58.9902 603.98 58.9902ZM610.174 64.1113C609.51 64.1113 608.957 63.9727 608.516 63.6953C608.078 63.4141 607.811 63.0078 607.713 62.4766L608.855 62.1543C608.934 62.4824 609.088 62.7305 609.318 62.8984C609.549 63.0625 609.834 63.1445 610.174 63.1445C610.451 63.1445 610.688 63.0879 610.883 62.9746C611.078 62.8574 611.176 62.6719 611.176 62.418C611.176 62.2461 611.123 62.1055 611.018 61.9961C610.912 61.8828 610.775 61.793 610.607 61.7266C610.443 61.6602 610.211 61.584 609.91 61.498C609.711 61.4434 609.529 61.3887 609.365 61.334C609.061 61.2363 608.803 61.127 608.592 61.0059C608.381 60.8848 608.207 60.7207 608.07 60.5137C607.934 60.3027 607.865 60.0371 607.865 59.7168C607.865 59.334 607.961 59.0156 608.152 58.7617C608.344 58.5039 608.605 58.3125 608.938 58.1875C609.27 58.0625 609.645 58 610.062 58C610.652 58 611.148 58.127 611.551 58.3809C611.957 58.6348 612.209 59.0234 612.307 59.5469L611.24 59.7988C611.166 59.502 611.023 59.2832 610.812 59.1426C610.605 59.002 610.357 58.9316 610.068 58.9316C609.799 58.9316 609.57 58.9883 609.383 59.1016C609.199 59.2109 609.107 59.3789 609.107 59.6055C609.107 59.7656 609.16 59.8965 609.266 59.998C609.371 60.0957 609.502 60.1738 609.658 60.2324C609.818 60.2871 610.043 60.3516 610.332 60.4258C610.367 60.4375 610.439 60.457 610.549 60.4844C610.932 60.5859 611.258 60.6992 611.527 60.8242C611.797 60.9492 612.021 61.1348 612.201 61.3809C612.385 61.623 612.477 61.9375 612.477 62.3242C612.477 62.7383 612.371 63.0801 612.16 63.3496C611.953 63.6152 611.676 63.8086 611.328 63.9297C610.984 64.0508 610.6 64.1113 610.174 64.1113ZM615.846 64.1113C615.182 64.1113 614.629 63.9727 614.188 63.6953C613.75 63.4141 613.482 63.0078 613.385 62.4766L614.527 62.1543C614.605 62.4824 614.76 62.7305 614.99 62.8984C615.221 63.0625 615.506 63.1445 615.846 63.1445C616.123 63.1445 616.359 63.0879 616.555 62.9746C616.75 62.8574 616.848 62.6719 616.848 62.418C616.848 62.2461 616.795 62.1055 616.689 61.9961C616.584 61.8828 616.447 61.793 616.279 61.7266C616.115 61.6602 615.883 61.584 615.582 61.498C615.383 61.4434 615.201 61.3887 615.037 61.334C614.732 61.2363 614.475 61.127 614.264 61.0059C614.053 60.8848 613.879 60.7207 613.742 60.5137C613.605 60.3027 613.537 60.0371 613.537 59.7168C613.537 59.334 613.633 59.0156 613.824 58.7617C614.016 58.5039 614.277 58.3125 614.609 58.1875C614.941 58.0625 615.316 58 615.734 58C616.324 58 616.82 58.127 617.223 58.3809C617.629 58.6348 617.881 59.0234 617.979 59.5469L616.912 59.7988C616.838 59.502 616.695 59.2832 616.484 59.1426C616.277 59.002 616.029 58.9316 615.74 58.9316C615.471 58.9316 615.242 58.9883 615.055 59.1016C614.871 59.2109 614.779 59.3789 614.779 59.6055C614.779 59.7656 614.832 59.8965 614.938 59.998C615.043 60.0957 615.174 60.1738 615.33 60.2324C615.49 60.2871 615.715 60.3516 616.004 60.4258C616.039 60.4375 616.111 60.457 616.221 60.4844C616.604 60.5859 616.93 60.6992 617.199 60.8242C617.469 60.9492 617.693 61.1348 617.873 61.3809C618.057 61.623 618.148 61.9375 618.148 62.3242C618.148 62.7383 618.043 63.0801 617.832 63.3496C617.625 63.6152 617.348 63.8086 617 63.9297C616.656 64.0508 616.271 64.1113 615.846 64.1113ZM619.514 58.1055H620.867V64H619.514V58.1055ZM620.199 56.9805C620.051 56.9805 619.912 56.9434 619.783 56.8691C619.654 56.7949 619.553 56.6953 619.479 56.5703C619.404 56.4414 619.367 56.3027 619.367 56.1543C619.367 56.0059 619.404 55.8691 619.479 55.7441C619.553 55.6152 619.654 55.5137 619.783 55.4395C619.912 55.3652 620.051 55.3281 620.199 55.3281C620.344 55.3281 620.479 55.3652 620.604 55.4395C620.732 55.5137 620.834 55.6152 620.908 55.7441C620.982 55.8691 621.02 56.0059 621.02 56.1543C621.02 56.3027 620.982 56.4414 620.908 56.5703C620.834 56.6953 620.732 56.7949 620.604 56.8691C620.479 56.9434 620.344 56.9805 620.199 56.9805ZM625.332 64.1113C624.738 64.1113 624.205 63.9883 623.732 63.7422C623.264 63.4922 622.896 63.1367 622.631 62.6758C622.365 62.2148 622.232 61.6719 622.232 61.0469C622.232 60.4297 622.365 59.8906 622.631 59.4297C622.896 58.9688 623.264 58.6152 623.732 58.3691C624.201 58.1191 624.734 57.9941 625.332 57.9941C625.934 57.9941 626.469 58.1191 626.938 58.3691C627.406 58.6152 627.773 58.9688 628.039 59.4297C628.305 59.8906 628.438 60.4297 628.438 61.0469C628.438 61.6719 628.305 62.2168 628.039 62.6816C627.773 63.1426 627.404 63.4961 626.932 63.7422C626.463 63.9883 625.93 64.1113 625.332 64.1113ZM625.32 63.0215C625.66 63.0215 625.965 62.9395 626.234 62.7754C626.504 62.6113 626.715 62.3809 626.867 62.084C627.02 61.7832 627.096 61.4375 627.096 61.0469C627.096 60.6562 627.02 60.3125 626.867 60.0156C626.715 59.7188 626.504 59.4883 626.234 59.3242C625.965 59.1602 625.66 59.0781 625.32 59.0781C624.984 59.0781 624.684 59.1602 624.418 59.3242C624.156 59.4883 623.949 59.7188 623.797 60.0156C623.648 60.3125 623.574 60.6562 623.574 61.0469C623.574 61.4375 623.648 61.7832 623.797 62.084C623.949 62.3809 624.156 62.6113 624.418 62.7754C624.684 62.9395 624.984 63.0215 625.32 63.0215ZM632.938 57.9941C633.602 57.9941 634.121 58.1719 634.496 58.5273C634.871 58.8828 635.059 59.3848 635.059 60.0332V64H633.699V60.3262C633.699 59.9082 633.59 59.5996 633.371 59.4004C633.156 59.1973 632.879 59.0957 632.539 59.0957C632.133 59.0957 631.801 59.2207 631.543 59.4707C631.285 59.7168 631.154 60.0977 631.15 60.6133V64H629.803V58.1055H631.15V58.8027C631.35 58.5449 631.602 58.3457 631.906 58.2051C632.215 58.0645 632.559 57.9941 632.938 57.9941ZM643.555 64.1113C642.754 64.1113 642.033 63.9375 641.393 63.5898C640.752 63.2383 640.248 62.7383 639.881 62.0898C639.518 61.4414 639.336 60.6836 639.336 59.8164C639.336 58.9531 639.518 58.1973 639.881 57.5488C640.248 56.9004 640.752 56.4023 641.393 56.0547C642.033 55.7031 642.754 55.5273 643.555 55.5273C644.137 55.5273 644.68 55.623 645.184 55.8145C645.688 56.002 646.127 56.2754 646.502 56.6348C646.881 56.9902 647.174 57.416 647.381 57.9121L646.074 58.4102C645.859 57.9141 645.527 57.5273 645.078 57.25C644.633 56.9727 644.125 56.834 643.555 56.834C643.023 56.834 642.543 56.9531 642.113 57.1914C641.688 57.4297 641.352 57.7754 641.105 58.2285C640.859 58.6777 640.736 59.207 640.736 59.8164C640.736 60.4297 640.859 60.9629 641.105 61.416C641.352 61.8652 641.688 62.209 642.113 62.4473C642.543 62.6855 643.023 62.8047 643.555 62.8047C644.129 62.8047 644.639 62.668 645.084 62.3945C645.529 62.1172 645.859 61.7305 646.074 61.2344L647.381 61.7324C647.174 62.2246 646.881 62.6504 646.502 63.0098C646.127 63.3652 645.688 63.6387 645.184 63.8301C644.68 64.0176 644.137 64.1113 643.555 64.1113ZM650.018 59.084C650.115 58.8926 650.26 58.7188 650.451 58.5625C650.643 58.4023 650.863 58.2754 651.113 58.1816C651.367 58.0879 651.633 58.041 651.91 58.041V59.2715C651.289 59.2715 650.826 59.4043 650.521 59.6699C650.221 59.9316 650.07 60.373 650.07 60.9941V64H648.717V58.1055H650.018V59.084ZM658.309 61.293H653.826C653.842 61.6719 653.928 61.9922 654.084 62.2539C654.24 62.5117 654.443 62.7051 654.693 62.834C654.943 62.9629 655.223 63.0273 655.531 63.0273C655.859 63.0273 656.15 62.9473 656.404 62.7871C656.662 62.627 656.857 62.3984 656.99 62.1016L658.221 62.3125C658.018 62.8789 657.678 63.3203 657.201 63.6367C656.725 63.9531 656.172 64.1113 655.543 64.1113C654.938 64.1113 654.406 63.9902 653.949 63.748C653.492 63.5059 653.137 63.1543 652.883 62.6934C652.629 62.2324 652.502 61.6855 652.502 61.0527C652.502 60.4199 652.629 59.873 652.883 59.4121C653.141 58.9512 653.496 58.5996 653.949 58.3574C654.402 58.1113 654.92 57.9883 655.502 57.9883C656.057 57.9883 656.545 58.0977 656.967 58.3164C657.389 58.5352 657.721 58.8672 657.963 59.3125C658.205 59.7539 658.326 60.3008 658.326 60.9531L658.309 61.293ZM655.508 58.9902C655.09 58.9902 654.74 59.0938 654.459 59.3008C654.182 59.5078 653.994 59.8203 653.896 60.2383H656.967C656.908 59.8281 656.748 59.5176 656.486 59.3066C656.229 59.0957 655.902 58.9902 655.508 58.9902ZM665.352 58.1055V64H664.062L664.027 63.0566C663.855 63.3926 663.594 63.6562 663.242 63.8477C662.891 64.0391 662.498 64.1348 662.064 64.1348C661.553 64.1348 661.084 64.0098 660.658 63.7598C660.232 63.5059 659.895 63.1465 659.645 62.6816C659.395 62.2168 659.27 61.6758 659.27 61.0586C659.27 60.4453 659.395 59.9082 659.645 59.4473C659.895 58.9824 660.232 58.625 660.658 58.375C661.084 58.1211 661.553 57.9941 662.064 57.9941C662.49 57.9941 662.875 58.0859 663.219 58.2695C663.562 58.4492 663.824 58.6992 664.004 59.0195V58.1055H665.352ZM662.363 62.9922C662.688 62.9922 662.982 62.9102 663.248 62.7461C663.514 62.582 663.723 62.3535 663.875 62.0605C664.027 61.7637 664.104 61.4297 664.104 61.0586C664.104 60.6875 664.025 60.3555 663.869 60.0625C663.717 59.7695 663.508 59.541 663.242 59.377C662.977 59.2129 662.684 59.1309 662.363 59.1309C662.039 59.1309 661.744 59.2109 661.479 59.3711C661.213 59.5273 661.002 59.752 660.846 60.0449C660.693 60.3379 660.617 60.6758 660.617 61.0586C660.617 61.4453 660.693 61.7852 660.846 62.0781C661.002 62.3711 661.213 62.5977 661.479 62.7578C661.744 62.9141 662.039 62.9922 662.363 62.9922ZM669.242 64C668.711 64 668.297 63.8496 668 63.5488C667.703 63.248 667.555 62.8242 667.555 62.2773V59.1602H666.377V58.1055C666.787 58.1055 667.092 58.0605 667.291 57.9707C667.494 57.8809 667.635 57.7129 667.713 57.4668C667.795 57.2207 667.836 56.8438 667.836 56.3359H668.92V58.1055H670.203V59.1602H668.92V62.1367C668.92 62.4062 668.986 62.6113 669.119 62.752C669.256 62.8887 669.439 62.957 669.67 62.957H670.203V64H669.242ZM676.848 61.293H672.365C672.381 61.6719 672.467 61.9922 672.623 62.2539C672.779 62.5117 672.982 62.7051 673.232 62.834C673.482 62.9629 673.762 63.0273 674.07 63.0273C674.398 63.0273 674.689 62.9473 674.943 62.7871C675.201 62.627 675.396 62.3984 675.529 62.1016L676.76 62.3125C676.557 62.8789 676.217 63.3203 675.74 63.6367C675.264 63.9531 674.711 64.1113 674.082 64.1113C673.477 64.1113 672.945 63.9902 672.488 63.748C672.031 63.5059 671.676 63.1543 671.422 62.6934C671.168 62.2324 671.041 61.6855 671.041 61.0527C671.041 60.4199 671.168 59.873 671.422 59.4121C671.68 58.9512 672.035 58.5996 672.488 58.3574C672.941 58.1113 673.459 57.9883 674.041 57.9883C674.596 57.9883 675.084 58.0977 675.506 58.3164C675.928 58.5352 676.26 58.8672 676.502 59.3125C676.744 59.7539 676.865 60.3008 676.865 60.9531L676.848 61.293ZM674.047 58.9902C673.629 58.9902 673.279 59.0938 672.998 59.3008C672.721 59.5078 672.533 59.8203 672.436 60.2383H675.506C675.447 59.8281 675.287 59.5176 675.025 59.3066C674.768 59.0957 674.441 58.9902 674.047 58.9902ZM683.891 55V64H682.602L682.566 63.0801C682.398 63.4199 682.139 63.6816 681.787 63.8652C681.439 64.0449 681.043 64.1348 680.598 64.1348C680.086 64.1348 679.617 64.0098 679.191 63.7598C678.766 63.5059 678.428 63.1465 678.178 62.6816C677.932 62.2168 677.809 61.6758 677.809 61.0586C677.809 60.4453 677.934 59.9082 678.184 59.4473C678.434 58.9824 678.77 58.625 679.191 58.375C679.617 58.1211 680.086 57.9941 680.598 57.9941C681.031 57.9941 681.42 58.0801 681.764 58.252C682.107 58.4238 682.367 58.6738 682.543 59.002L682.549 55H683.891ZM680.902 62.9922C681.23 62.9922 681.525 62.9141 681.787 62.7578C682.053 62.5977 682.262 62.373 682.414 62.084C682.566 61.791 682.643 61.4492 682.643 61.0586C682.643 60.6719 682.566 60.332 682.414 60.0391C682.262 59.7461 682.053 59.5215 681.787 59.3652C681.521 59.209 681.227 59.1309 680.902 59.1309C680.578 59.1309 680.283 59.2109 680.018 59.3711C679.752 59.5273 679.541 59.752 679.385 60.0449C679.232 60.3379 679.156 60.6758 679.156 61.0586C679.156 61.4453 679.232 61.7852 679.385 62.0781C679.541 62.3711 679.752 62.5977 680.018 62.7578C680.283 62.9141 680.578 62.9922 680.902 62.9922Z" fill="black"/>
<rect x="439" y="56" width="12" height="7" rx="3.5" fill="#424BD1"/>
<path d="M466.285 62.7461V64H462.119V55.6445H463.525V62.7461H466.285ZM472.906 61.293H468.424C468.439 61.6719 468.525 61.9922 468.682 62.2539C468.838 62.5117 469.041 62.7051 469.291 62.834C469.541 62.9629 469.82 63.0273 470.129 63.0273C470.457 63.0273 470.748 62.9473 471.002 62.7871C471.26 62.627 471.455 62.3984 471.588 62.1016L472.818 62.3125C472.615 62.8789 472.275 63.3203 471.799 63.6367C471.322 63.9531 470.77 64.1113 470.141 64.1113C469.535 64.1113 469.004 63.9902 468.547 63.748C468.09 63.5059 467.734 63.1543 467.48 62.6934C467.227 62.2324 467.1 61.6855 467.1 61.0527C467.1 60.4199 467.227 59.873 467.48 59.4121C467.738 58.9512 468.094 58.5996 468.547 58.3574C469 58.1113 469.518 57.9883 470.1 57.9883C470.654 57.9883 471.143 58.0977 471.564 58.3164C471.986 58.5352 472.318 58.8672 472.561 59.3125C472.803 59.7539 472.924 60.3008 472.924 60.9531L472.906 61.293ZM470.105 58.9902C469.688 58.9902 469.338 59.0938 469.057 59.3008C468.779 59.5078 468.592 59.8203 468.494 60.2383H471.564C471.506 59.8281 471.346 59.5176 471.084 59.3066C470.826 59.0957 470.5 58.9902 470.105 58.9902ZM479.949 58.1055V64H478.66L478.625 63.0566C478.453 63.3926 478.191 63.6562 477.84 63.8477C477.488 64.0391 477.096 64.1348 476.662 64.1348C476.15 64.1348 475.682 64.0098 475.256 63.7598C474.83 63.5059 474.492 63.1465 474.242 62.6816C473.992 62.2168 473.867 61.6758 473.867 61.0586C473.867 60.4453 473.992 59.9082 474.242 59.4473C474.492 58.9824 474.83 58.625 475.256 58.375C475.682 58.1211 476.15 57.9941 476.662 57.9941C477.088 57.9941 477.473 58.0859 477.816 58.2695C478.16 58.4492 478.422 58.6992 478.602 59.0195V58.1055H479.949ZM476.961 62.9922C477.285 62.9922 477.58 62.9102 477.846 62.7461C478.111 62.582 478.32 62.3535 478.473 62.0605C478.625 61.7637 478.701 61.4297 478.701 61.0586C478.701 60.6875 478.623 60.3555 478.467 60.0625C478.314 59.7695 478.105 59.541 477.84 59.377C477.574 59.2129 477.281 59.1309 476.961 59.1309C476.637 59.1309 476.342 59.2109 476.076 59.3711C475.811 59.5273 475.6 59.752 475.443 60.0449C475.291 60.3379 475.215 60.6758 475.215 61.0586C475.215 61.4453 475.291 61.7852 475.443 62.0781C475.6 62.3711 475.811 62.5977 476.076 62.7578C476.342 62.9141 476.637 62.9922 476.961 62.9922ZM487.262 55V64H485.973L485.938 63.0801C485.77 63.4199 485.51 63.6816 485.158 63.8652C484.811 64.0449 484.414 64.1348 483.969 64.1348C483.457 64.1348 482.988 64.0098 482.562 63.7598C482.137 63.5059 481.799 63.1465 481.549 62.6816C481.303 62.2168 481.18 61.6758 481.18 61.0586C481.18 60.4453 481.305 59.9082 481.555 59.4473C481.805 58.9824 482.141 58.625 482.562 58.375C482.988 58.1211 483.457 57.9941 483.969 57.9941C484.402 57.9941 484.791 58.0801 485.135 58.252C485.479 58.4238 485.738 58.6738 485.914 59.002L485.92 55H487.262ZM484.273 62.9922C484.602 62.9922 484.896 62.9141 485.158 62.7578C485.424 62.5977 485.633 62.373 485.785 62.084C485.938 61.791 486.014 61.4492 486.014 61.0586C486.014 60.6719 485.938 60.332 485.785 60.0391C485.633 59.7461 485.424 59.5215 485.158 59.3652C484.893 59.209 484.598 59.1309 484.273 59.1309C483.949 59.1309 483.654 59.2109 483.389 59.3711C483.123 59.5273 482.912 59.752 482.756 60.0449C482.604 60.3379 482.527 60.6758 482.527 61.0586C482.527 61.4453 482.604 61.7852 482.756 62.0781C482.912 62.3711 483.123 62.5977 483.389 62.7578C483.654 62.9141 483.949 62.9922 484.273 62.9922ZM491.064 64.1113C490.4 64.1113 489.848 63.9727 489.406 63.6953C488.969 63.4141 488.701 63.0078 488.604 62.4766L489.746 62.1543C489.824 62.4824 489.979 62.7305 490.209 62.8984C490.439 63.0625 490.725 63.1445 491.064 63.1445C491.342 63.1445 491.578 63.0879 491.773 62.9746C491.969 62.8574 492.066 62.6719 492.066 62.418C492.066 62.2461 492.014 62.1055 491.908 61.9961C491.803 61.8828 491.666 61.793 491.498 61.7266C491.334 61.6602 491.102 61.584 490.801 61.498C490.602 61.4434 490.42 61.3887 490.256 61.334C489.951 61.2363 489.693 61.127 489.482 61.0059C489.271 60.8848 489.098 60.7207 488.961 60.5137C488.824 60.3027 488.756 60.0371 488.756 59.7168C488.756 59.334 488.852 59.0156 489.043 58.7617C489.234 58.5039 489.496 58.3125 489.828 58.1875C490.16 58.0625 490.535 58 490.953 58C491.543 58 492.039 58.127 492.441 58.3809C492.848 58.6348 493.1 59.0234 493.197 59.5469L492.131 59.7988C492.057 59.502 491.914 59.2832 491.703 59.1426C491.496 59.002 491.248 58.9316 490.959 58.9316C490.689 58.9316 490.461 58.9883 490.273 59.1016C490.09 59.2109 489.998 59.3789 489.998 59.6055C489.998 59.7656 490.051 59.8965 490.156 59.998C490.262 60.0957 490.393 60.1738 490.549 60.2324C490.709 60.2871 490.934 60.3516 491.223 60.4258C491.258 60.4375 491.33 60.457 491.439 60.4844C491.822 60.5859 492.148 60.6992 492.418 60.8242C492.688 60.9492 492.912 61.1348 493.092 61.3809C493.275 61.623 493.367 61.9375 493.367 62.3242C493.367 62.7383 493.262 63.0801 493.051 63.3496C492.844 63.6152 492.566 63.8086 492.219 63.9297C491.875 64.0508 491.49 64.1113 491.064 64.1113ZM501.547 64.1113C500.746 64.1113 500.025 63.9375 499.385 63.5898C498.744 63.2383 498.24 62.7383 497.873 62.0898C497.51 61.4414 497.328 60.6836 497.328 59.8164C497.328 58.9531 497.51 58.1973 497.873 57.5488C498.24 56.9004 498.744 56.4023 499.385 56.0547C500.025 55.7031 500.746 55.5273 501.547 55.5273C502.129 55.5273 502.672 55.623 503.176 55.8145C503.68 56.002 504.119 56.2754 504.494 56.6348C504.873 56.9902 505.166 57.416 505.373 57.9121L504.066 58.4102C503.852 57.9141 503.52 57.5273 503.07 57.25C502.625 56.9727 502.117 56.834 501.547 56.834C501.016 56.834 500.535 56.9531 500.105 57.1914C499.68 57.4297 499.344 57.7754 499.098 58.2285C498.852 58.6777 498.729 59.207 498.729 59.8164C498.729 60.4297 498.852 60.9629 499.098 61.416C499.344 61.8652 499.68 62.209 500.105 62.4473C500.535 62.6855 501.016 62.8047 501.547 62.8047C502.121 62.8047 502.631 62.668 503.076 62.3945C503.521 62.1172 503.852 61.7305 504.066 61.2344L505.373 61.7324C505.166 62.2246 504.873 62.6504 504.494 63.0098C504.119 63.3652 503.68 63.6387 503.176 63.8301C502.672 64.0176 502.129 64.1113 501.547 64.1113ZM508.01 59.084C508.107 58.8926 508.252 58.7188 508.443 58.5625C508.635 58.4023 508.855 58.2754 509.105 58.1816C509.359 58.0879 509.625 58.041 509.902 58.041V59.2715C509.281 59.2715 508.818 59.4043 508.514 59.6699C508.213 59.9316 508.062 60.373 508.062 60.9941V64H506.709V58.1055H508.01V59.084ZM516.301 61.293H511.818C511.834 61.6719 511.92 61.9922 512.076 62.2539C512.232 62.5117 512.436 62.7051 512.686 62.834C512.936 62.9629 513.215 63.0273 513.523 63.0273C513.852 63.0273 514.143 62.9473 514.396 62.7871C514.654 62.627 514.85 62.3984 514.982 62.1016L516.213 62.3125C516.01 62.8789 515.67 63.3203 515.193 63.6367C514.717 63.9531 514.164 64.1113 513.535 64.1113C512.93 64.1113 512.398 63.9902 511.941 63.748C511.484 63.5059 511.129 63.1543 510.875 62.6934C510.621 62.2324 510.494 61.6855 510.494 61.0527C510.494 60.4199 510.621 59.873 510.875 59.4121C511.133 58.9512 511.488 58.5996 511.941 58.3574C512.395 58.1113 512.912 57.9883 513.494 57.9883C514.049 57.9883 514.537 58.0977 514.959 58.3164C515.381 58.5352 515.713 58.8672 515.955 59.3125C516.197 59.7539 516.318 60.3008 516.318 60.9531L516.301 61.293ZM513.5 58.9902C513.082 58.9902 512.732 59.0938 512.451 59.3008C512.174 59.5078 511.986 59.8203 511.889 60.2383H514.959C514.9 59.8281 514.74 59.5176 514.479 59.3066C514.221 59.0957 513.895 58.9902 513.5 58.9902ZM523.344 58.1055V64H522.055L522.02 63.0566C521.848 63.3926 521.586 63.6562 521.234 63.8477C520.883 64.0391 520.49 64.1348 520.057 64.1348C519.545 64.1348 519.076 64.0098 518.65 63.7598C518.225 63.5059 517.887 63.1465 517.637 62.6816C517.387 62.2168 517.262 61.6758 517.262 61.0586C517.262 60.4453 517.387 59.9082 517.637 59.4473C517.887 58.9824 518.225 58.625 518.65 58.375C519.076 58.1211 519.545 57.9941 520.057 57.9941C520.482 57.9941 520.867 58.0859 521.211 58.2695C521.555 58.4492 521.816 58.6992 521.996 59.0195V58.1055H523.344ZM520.355 62.9922C520.68 62.9922 520.975 62.9102 521.24 62.7461C521.506 62.582 521.715 62.3535 521.867 62.0605C522.02 61.7637 522.096 61.4297 522.096 61.0586C522.096 60.6875 522.018 60.3555 521.861 60.0625C521.709 59.7695 521.5 59.541 521.234 59.377C520.969 59.2129 520.676 59.1309 520.355 59.1309C520.031 59.1309 519.736 59.2109 519.471 59.3711C519.205 59.5273 518.994 59.752 518.838 60.0449C518.686 60.3379 518.609 60.6758 518.609 61.0586C518.609 61.4453 518.686 61.7852 518.838 62.0781C518.994 62.3711 519.205 62.5977 519.471 62.7578C519.736 62.9141 520.031 62.9922 520.355 62.9922ZM527.234 64C526.703 64 526.289 63.8496 525.992 63.5488C525.695 63.248 525.547 62.8242 525.547 62.2773V59.1602H524.369V58.1055C524.779 58.1055 525.084 58.0605 525.283 57.9707C525.486 57.8809 525.627 57.7129 525.705 57.4668C525.787 57.2207 525.828 56.8438 525.828 56.3359H526.912V58.1055H528.195V59.1602H526.912V62.1367C526.912 62.4062 526.979 62.6113 527.111 62.752C527.248 62.8887 527.432 62.957 527.662 62.957H528.195V64H527.234ZM534.84 61.293H530.357C530.373 61.6719 530.459 61.9922 530.615 62.2539C530.771 62.5117 530.975 62.7051 531.225 62.834C531.475 62.9629 531.754 63.0273 532.062 63.0273C532.391 63.0273 532.682 62.9473 532.936 62.7871C533.193 62.627 533.389 62.3984 533.521 62.1016L534.752 62.3125C534.549 62.8789 534.209 63.3203 533.732 63.6367C533.256 63.9531 532.703 64.1113 532.074 64.1113C531.469 64.1113 530.938 63.9902 530.48 63.748C530.023 63.5059 529.668 63.1543 529.414 62.6934C529.16 62.2324 529.033 61.6855 529.033 61.0527C529.033 60.4199 529.16 59.873 529.414 59.4121C529.672 58.9512 530.027 58.5996 530.48 58.3574C530.934 58.1113 531.451 57.9883 532.033 57.9883C532.588 57.9883 533.076 58.0977 533.498 58.3164C533.92 58.5352 534.252 58.8672 534.494 59.3125C534.736 59.7539 534.857 60.3008 534.857 60.9531L534.84 61.293ZM532.039 58.9902C531.621 58.9902 531.271 59.0938 530.99 59.3008C530.713 59.5078 530.525 59.8203 530.428 60.2383H533.498C533.439 59.8281 533.279 59.5176 533.018 59.3066C532.76 59.0957 532.434 58.9902 532.039 58.9902ZM541.883 55V64H540.594L540.559 63.0801C540.391 63.4199 540.131 63.6816 539.779 63.8652C539.432 64.0449 539.035 64.1348 538.59 64.1348C538.078 64.1348 537.609 64.0098 537.184 63.7598C536.758 63.5059 536.42 63.1465 536.17 62.6816C535.924 62.2168 535.801 61.6758 535.801 61.0586C535.801 60.4453 535.926 59.9082 536.176 59.4473C536.426 58.9824 536.762 58.625 537.184 58.375C537.609 58.1211 538.078 57.9941 538.59 57.9941C539.023 57.9941 539.412 58.0801 539.756 58.252C540.1 58.4238 540.359 58.6738 540.535 59.002L540.541 55H541.883ZM538.895 62.9922C539.223 62.9922 539.518 62.9141 539.779 62.7578C540.045 62.5977 540.254 62.373 540.406 62.084C540.559 61.791 540.635 61.4492 540.635 61.0586C540.635 60.6719 540.559 60.332 540.406 60.0391C540.254 59.7461 540.045 59.5215 539.779 59.3652C539.514 59.209 539.219 59.1309 538.895 59.1309C538.57 59.1309 538.275 59.2109 538.01 59.3711C537.744 59.5273 537.533 59.752 537.377 60.0449C537.225 60.3379 537.148 60.6758 537.148 61.0586C537.148 61.4453 537.225 61.7852 537.377 62.0781C537.533 62.3711 537.744 62.5977 538.01 62.7578C538.275 62.9141 538.57 62.9922 538.895 62.9922Z" fill="black"/>
<defs>
<filter id="filter0_d_1_3526" x="0" y="0" width="738" height="379" filterUnits="userSpaceOnUse" color-interpolation-filters="sRGB">
<feFlood flood-opacity="0" result="BackgroundImageFix"/>
<feColorMatrix in="SourceAlpha" type="matrix" values="0 0 0 0 0 0 0 0 0 0 0 0 0 0 0 0 0 0 127 0" result="hardAlpha"/>
<feOffset dy="2"/>
<feGaussianBlur stdDeviation="12"/>
<feColorMatrix type="matrix" values="0 0 0 0 0 0 0 0 0 0 0 0 0 0 0 0 0 0 0.05 0"/>
<feBlend mode="normal" in2="BackgroundImageFix" result="effect1_dropShadow_1_3526"/>
<feBlend mode="normal" in="SourceGraphic" in2="effect1_dropShadow_1_3526" result="shape"/>
</filter>
</defs>
</svg>
