<svg width="462" height="379" viewBox="0 0 462 379" fill="none" xmlns="http://www.w3.org/2000/svg">
<g filter="url(#filter0_d_97_3328)">
<rect x="24" y="22" width="414" height="331" rx="14" fill="white"/>
</g>
<path d="M62.5449 52.0059L57.3887 66H54.6445L49.5078 52.0059H52.1934L56.0215 62.9922L59.8496 52.0059H62.5449ZM68.043 66.1953C67.0273 66.1953 66.1191 65.9902 65.3184 65.5801C64.5241 65.1634 63.8991 64.5677 63.4434 63.793C62.9941 63.0117 62.7695 62.0938 62.7695 61.0391C62.7695 59.9974 62.9941 59.0892 63.4434 58.3145C63.8926 57.5397 64.5143 56.9473 65.3086 56.5371C66.1094 56.1204 67.0208 55.9121 68.043 55.9121C69.0716 55.9121 69.9831 56.1204 70.7773 56.5371C71.5781 56.9473 72.2031 57.5397 72.6523 58.3145C73.1016 59.0892 73.3262 59.9974 73.3262 61.0391C73.3262 62.0938 73.1016 63.0117 72.6523 63.793C72.2031 64.5677 71.5781 65.1634 70.7773 65.5801C69.9766 65.9902 69.0651 66.1953 68.043 66.1953ZM68.0234 64.2324C68.5833 64.2324 69.0814 64.1022 69.5176 63.8418C69.9538 63.5749 70.2956 63.2005 70.543 62.7188C70.7904 62.2305 70.9141 61.6706 70.9141 61.0391C70.9141 60.4141 70.7904 59.8607 70.543 59.3789C70.2956 58.8906 69.9505 58.5163 69.5078 58.2559C69.0716 57.9889 68.5768 57.8555 68.0234 57.8555C67.4831 57.8555 66.998 57.9889 66.5684 58.2559C66.1387 58.5163 65.8001 58.8906 65.5527 59.3789C65.3118 59.8607 65.1914 60.4141 65.1914 61.0391C65.1914 61.6706 65.3118 62.2305 65.5527 62.7188C65.7936 63.2005 66.1289 63.5749 66.5586 63.8418C66.9883 64.1022 67.4766 64.2324 68.0234 64.2324ZM75.4941 56.1074H77.9355V66H75.4941V56.1074ZM76.7344 54.3496C76.4674 54.3496 76.2201 54.2845 75.9922 54.1543C75.7708 54.0241 75.5918 53.8483 75.4551 53.627C75.3249 53.3991 75.2598 53.1549 75.2598 52.8945C75.2598 52.6276 75.3249 52.3835 75.4551 52.1621C75.5918 51.9408 75.7708 51.765 75.9922 51.6348C76.2201 51.5046 76.4674 51.4395 76.7344 51.4395C76.9883 51.4395 77.2259 51.5046 77.4473 51.6348C77.6751 51.765 77.8542 51.9408 77.9844 52.1621C78.1146 52.3835 78.1797 52.6276 78.1797 52.8945C78.1797 53.1549 78.1146 53.3991 77.9844 53.627C77.8542 53.8483 77.6751 54.0241 77.4473 54.1543C77.2259 54.2845 76.9883 54.3496 76.7344 54.3496ZM85.2598 66.1855C84.2637 66.1855 83.3717 65.9707 82.584 65.541C81.7962 65.1113 81.181 64.5091 80.7383 63.7344C80.2956 62.9531 80.0742 62.0547 80.0742 61.0391C80.0742 60.0299 80.2956 59.138 80.7383 58.3633C81.181 57.582 81.7962 56.9798 82.584 56.5566C83.3717 56.127 84.2637 55.9121 85.2598 55.9121C86.0605 55.9121 86.7865 56.0488 87.4375 56.3223C88.0951 56.5957 88.6452 56.9993 89.0879 57.5332C89.5306 58.0605 89.8366 58.6921 90.0059 59.4277L87.75 59.7012C87.5742 59.0957 87.2682 58.6367 86.832 58.3242C86.3958 58.0117 85.8652 57.8555 85.2402 57.8555C84.7129 57.8555 84.2409 57.9889 83.8242 58.2559C83.4076 58.5163 83.082 58.8874 82.8477 59.3691C82.6198 59.8509 82.5059 60.4076 82.5059 61.0391C82.5059 61.6706 82.6198 62.2272 82.8477 62.709C83.082 63.1908 83.4076 63.5651 83.8242 63.832C84.2409 64.0924 84.7129 64.2227 85.2402 64.2227C85.8652 64.2227 86.3958 64.0664 86.832 63.7539C87.2682 63.4414 87.5742 62.9824 87.75 62.377L90.0059 62.6504C89.8366 63.3926 89.5273 64.0306 89.0781 64.5645C88.6289 65.0918 88.0755 65.4954 87.418 65.7754C86.7669 66.0488 86.0475 66.1855 85.2598 66.1855ZM101.227 61.498H93.7656C93.7982 62.0905 93.9382 62.5951 94.1855 63.0117C94.4395 63.4219 94.7682 63.7311 95.1719 63.9395C95.5755 64.1413 96.0247 64.2422 96.5195 64.2422C97.0534 64.2422 97.5221 64.1152 97.9258 63.8613C98.3359 63.6074 98.6484 63.2428 98.8633 62.7676L101.09 63.1289C100.868 63.7669 100.536 64.3171 100.094 64.7793C99.651 65.235 99.1237 65.5866 98.5117 65.834C97.9062 66.0749 97.2487 66.1953 96.5391 66.1953C95.5039 66.1953 94.5957 65.9935 93.8145 65.5898C93.0397 65.1797 92.4375 64.5872 92.0078 63.8125C91.5846 63.0378 91.373 62.1198 91.373 61.0586C91.373 59.9974 91.5879 59.0794 92.0176 58.3047C92.4538 57.5234 93.056 56.9277 93.8242 56.5176C94.5924 56.1074 95.4714 55.9023 96.4609 55.9023C97.3984 55.9023 98.2253 56.0846 98.9414 56.4492C99.6641 56.8138 100.23 57.3704 100.641 58.1191C101.051 58.8613 101.259 59.7858 101.266 60.8926L101.227 61.498ZM96.4707 57.6602C95.8066 57.6602 95.2533 57.8229 94.8105 58.1484C94.3678 58.474 94.0651 58.9622 93.9023 59.6133H98.8047C98.7005 58.9753 98.4401 58.4902 98.0234 58.1582C97.6068 57.8262 97.0892 57.6602 96.4707 57.6602ZM115.914 58.5586C116.747 58.7799 117.389 59.1803 117.838 59.7598C118.287 60.3392 118.512 61.1107 118.512 62.0742C118.512 63.3047 118.147 64.2682 117.418 64.9648C116.689 65.6549 115.553 66 114.01 66H108.609V52.0059H112.75C114.391 52.0059 115.592 52.3411 116.354 53.0117C117.122 53.6758 117.506 54.5905 117.506 55.7559C117.506 56.4069 117.369 56.9766 117.096 57.4648C116.829 57.9466 116.435 58.3112 115.914 58.5586ZM111.061 54.1445V57.7676H113.18C113.857 57.7676 114.355 57.6016 114.674 57.2695C114.999 56.9375 115.162 56.4883 115.162 55.9219C115.162 55.3099 114.951 54.8607 114.527 54.5742C114.111 54.2878 113.521 54.1445 112.76 54.1445H111.061ZM113.551 63.8125C114.475 63.8125 115.123 63.6335 115.494 63.2754C115.865 62.9108 116.051 62.4258 116.051 61.8203C116.051 61.1823 115.862 60.6777 115.484 60.3066C115.113 59.9355 114.498 59.75 113.639 59.75H111.061V63.8125H113.551ZM125.387 66.1953C124.371 66.1953 123.463 65.9902 122.662 65.5801C121.868 65.1634 121.243 64.5677 120.787 63.793C120.338 63.0117 120.113 62.0938 120.113 61.0391C120.113 59.9974 120.338 59.0892 120.787 58.3145C121.236 57.5397 121.858 56.9473 122.652 56.5371C123.453 56.1204 124.365 55.9121 125.387 55.9121C126.415 55.9121 127.327 56.1204 128.121 56.5371C128.922 56.9473 129.547 57.5397 129.996 58.3145C130.445 59.0892 130.67 59.9974 130.67 61.0391C130.67 62.0938 130.445 63.0117 129.996 63.793C129.547 64.5677 128.922 65.1634 128.121 65.5801C127.32 65.9902 126.409 66.1953 125.387 66.1953ZM125.367 64.2324C125.927 64.2324 126.425 64.1022 126.861 63.8418C127.298 63.5749 127.639 63.2005 127.887 62.7188C128.134 62.2305 128.258 61.6706 128.258 61.0391C128.258 60.4141 128.134 59.8607 127.887 59.3789C127.639 58.8906 127.294 58.5163 126.852 58.2559C126.415 57.9889 125.921 57.8555 125.367 57.8555C124.827 57.8555 124.342 57.9889 123.912 58.2559C123.482 58.5163 123.144 58.8906 122.896 59.3789C122.656 59.8607 122.535 60.4141 122.535 61.0391C122.535 61.6706 122.656 62.2305 122.896 62.7188C123.137 63.2005 123.473 63.5749 123.902 63.8418C124.332 64.1022 124.82 64.2324 125.367 64.2324ZM136.559 66C135.647 66 134.938 65.7428 134.43 65.2285C133.922 64.7077 133.668 63.9785 133.668 63.041V57.9922H131.695V56.1074C132.392 56.1074 132.91 56.0326 133.248 55.8828C133.593 55.7266 133.834 55.4401 133.971 55.0234C134.114 54.6003 134.186 53.9622 134.186 53.1094H136.129V56.1074H138.248V57.9922H136.129V62.7773C136.129 63.2266 136.236 63.5651 136.451 63.793C136.666 64.0143 136.965 64.125 137.35 64.125H138.248V66H136.559Z" fill="#8A8A8A"/>
<path d="M254 207.511C254 194.286 251.238 181.207 245.892 169.111C240.546 157.015 232.733 146.169 222.953 137.267C213.173 128.364 201.642 121.602 189.098 117.413C176.554 113.225 163.274 111.701 150.107 112.941C136.94 114.181 124.178 118.156 112.636 124.613C101.094 131.069 91.0282 139.865 83.0819 150.436C75.1356 161.008 69.4843 173.122 66.4897 186.003C63.4952 198.884 63.2235 212.249 65.692 225.242L111.399 216.557C110.139 209.929 110.278 203.11 111.806 196.538C113.334 189.965 116.217 183.785 120.271 178.391C124.326 172.997 129.462 168.51 135.35 165.216C141.239 161.921 147.751 159.893 154.468 159.261C161.186 158.628 167.962 159.405 174.362 161.543C180.762 163.68 186.645 167.13 191.635 171.672C196.625 176.214 200.611 181.748 203.339 187.919C206.066 194.091 207.475 200.764 207.475 207.511H254Z" fill="#FFBC42"/>
<path d="M254 207.511C254 223.733 249.846 239.685 241.932 253.846C234.019 268.008 222.611 279.906 208.796 288.408C194.98 296.911 179.218 301.733 163.01 302.416C146.802 303.099 130.69 299.619 116.208 292.309C101.726 284.999 89.3577 274.102 80.2815 260.657C71.2053 247.212 65.7238 231.666 64.3593 215.501C62.9948 199.337 65.7928 183.092 72.4866 168.315C79.1805 153.539 89.5472 140.723 102.599 131.088L130.229 168.52C123.57 173.435 118.281 179.974 114.866 187.513C111.45 195.052 110.023 203.341 110.719 211.588C111.415 219.835 114.212 227.767 118.843 234.627C123.473 241.487 129.784 247.047 137.173 250.776C144.561 254.506 152.782 256.281 161.051 255.933C169.321 255.584 177.363 253.124 184.412 248.786C191.461 244.448 197.281 238.377 201.318 231.152C205.356 223.927 207.475 215.788 207.475 207.511H254Z" fill="#424BD1"/>
<circle cx="81.8407" cy="266.203" r="27.8407" fill="#F0F6FF"/>
<circle cx="223.271" cy="130.341" r="27.8407" fill="#FFF8EB"/>
<rect x="299" y="220" width="7" height="7" rx="3.5" fill="#FFBC42"/>
<path d="M318.692 228.12C318.084 228.12 317.528 228.016 317.024 227.808C316.52 227.6 316.084 227.304 315.716 226.92C315.348 226.528 315.06 226.068 314.852 225.54C314.652 225.004 314.552 224.42 314.552 223.788C314.552 223.18 314.66 222.616 314.876 222.096C315.092 221.576 315.392 221.12 315.776 220.728C316.16 220.336 316.608 220.032 317.12 219.816C317.632 219.6 318.188 219.492 318.788 219.492C319.196 219.492 319.592 219.552 319.976 219.672C320.36 219.792 320.712 219.96 321.032 220.176C321.352 220.384 321.62 220.628 321.836 220.908L320.84 222C320.632 221.784 320.416 221.604 320.192 221.46C319.976 221.308 319.748 221.196 319.508 221.124C319.276 221.044 319.036 221.004 318.788 221.004C318.42 221.004 318.072 221.072 317.744 221.208C317.424 221.344 317.144 221.536 316.904 221.784C316.672 222.032 316.488 222.328 316.352 222.672C316.216 223.008 316.148 223.384 316.148 223.8C316.148 224.224 316.212 224.608 316.34 224.952C316.476 225.296 316.664 225.592 316.904 225.84C317.152 226.088 317.444 226.28 317.78 226.416C318.124 226.544 318.5 226.608 318.908 226.608C319.172 226.608 319.428 226.572 319.676 226.5C319.924 226.428 320.152 226.328 320.36 226.2C320.576 226.064 320.772 225.908 320.948 225.732L321.716 226.968C321.524 227.184 321.268 227.38 320.948 227.556C320.628 227.732 320.268 227.872 319.868 227.976C319.476 228.072 319.084 228.12 318.692 228.12ZM325.455 228.12C324.935 228.12 324.463 227.976 324.039 227.688C323.615 227.4 323.275 227.008 323.019 226.512C322.763 226.016 322.635 225.452 322.635 224.82C322.635 224.188 322.763 223.624 323.019 223.128C323.275 222.632 323.623 222.244 324.063 221.964C324.503 221.684 324.999 221.544 325.551 221.544C325.871 221.544 326.163 221.592 326.427 221.688C326.691 221.776 326.923 221.904 327.123 222.072C327.323 222.24 327.487 222.432 327.615 222.648C327.751 222.864 327.843 223.096 327.891 223.344L327.567 223.26V221.676H329.055V228H327.555V226.488L327.903 226.428C327.847 226.644 327.743 226.856 327.591 227.064C327.447 227.264 327.263 227.444 327.039 227.604C326.823 227.756 326.579 227.88 326.307 227.976C326.043 228.072 325.759 228.12 325.455 228.12ZM325.863 226.812C326.207 226.812 326.511 226.728 326.775 226.56C327.039 226.392 327.243 226.16 327.387 225.864C327.539 225.56 327.615 225.212 327.615 224.82C327.615 224.436 327.539 224.096 327.387 223.8C327.243 223.504 327.039 223.272 326.775 223.104C326.511 222.936 326.207 222.852 325.863 222.852C325.519 222.852 325.215 222.936 324.951 223.104C324.695 223.272 324.495 223.504 324.351 223.8C324.207 224.096 324.135 224.436 324.135 224.82C324.135 225.212 324.207 225.56 324.351 225.864C324.495 226.16 324.695 226.392 324.951 226.56C325.215 226.728 325.519 226.812 325.863 226.812ZM330.778 228V219.12H332.266V228H330.778ZM334.013 228V219.12H335.501V228H334.013ZM341.026 228V219.6H342.586V226.56H346.462V228H341.026ZM350.711 228.12C350.047 228.12 349.459 227.98 348.947 227.7C348.443 227.42 348.047 227.04 347.759 226.56C347.479 226.072 347.339 225.516 347.339 224.892C347.339 224.396 347.419 223.944 347.579 223.536C347.739 223.128 347.959 222.776 348.239 222.48C348.527 222.176 348.867 221.944 349.259 221.784C349.659 221.616 350.095 221.532 350.567 221.532C350.983 221.532 351.371 221.612 351.731 221.772C352.091 221.932 352.403 222.152 352.667 222.432C352.931 222.704 353.131 223.032 353.267 223.416C353.411 223.792 353.479 224.204 353.471 224.652L353.459 225.168H348.335L348.059 224.16H352.223L352.031 224.364V224.1C352.007 223.852 351.927 223.636 351.791 223.452C351.655 223.26 351.479 223.112 351.263 223.008C351.055 222.896 350.823 222.84 350.567 222.84C350.175 222.84 349.843 222.916 349.571 223.068C349.307 223.22 349.107 223.44 348.971 223.728C348.835 224.008 348.767 224.36 348.767 224.784C348.767 225.192 348.851 225.548 349.019 225.852C349.195 226.156 349.439 226.392 349.751 226.56C350.071 226.72 350.443 226.8 350.867 226.8C351.163 226.8 351.435 226.752 351.683 226.656C351.931 226.56 352.199 226.388 352.487 226.14L353.219 227.16C353.003 227.36 352.755 227.532 352.475 227.676C352.203 227.812 351.915 227.92 351.611 228C351.307 228.08 351.007 228.12 350.711 228.12ZM357.166 228.12C356.646 228.12 356.174 227.976 355.75 227.688C355.326 227.4 354.986 227.008 354.73 226.512C354.474 226.016 354.346 225.452 354.346 224.82C354.346 224.188 354.474 223.624 354.73 223.128C354.986 222.632 355.334 222.244 355.774 221.964C356.214 221.684 356.71 221.544 357.262 221.544C357.582 221.544 357.874 221.592 358.138 221.688C358.402 221.776 358.634 221.904 358.834 222.072C359.034 222.24 359.198 222.432 359.326 222.648C359.462 222.864 359.554 223.096 359.602 223.344L359.278 223.26V221.676H360.766V228H359.266V226.488L359.614 226.428C359.558 226.644 359.454 226.856 359.302 227.064C359.158 227.264 358.974 227.444 358.75 227.604C358.534 227.756 358.29 227.88 358.018 227.976C357.754 228.072 357.47 228.12 357.166 228.12ZM357.574 226.812C357.918 226.812 358.222 226.728 358.486 226.56C358.75 226.392 358.954 226.16 359.098 225.864C359.25 225.56 359.326 225.212 359.326 224.82C359.326 224.436 359.25 224.096 359.098 223.8C358.954 223.504 358.75 223.272 358.486 223.104C358.222 222.936 357.918 222.852 357.574 222.852C357.23 222.852 356.926 222.936 356.662 223.104C356.406 223.272 356.206 223.504 356.062 223.8C355.918 224.096 355.846 224.436 355.846 224.82C355.846 225.212 355.918 225.56 356.062 225.864C356.206 226.16 356.406 226.392 356.662 226.56C356.926 226.728 357.23 226.812 357.574 226.812ZM365.021 228.12C364.461 228.12 363.957 227.98 363.509 227.7C363.069 227.412 362.717 227.024 362.453 226.536C362.197 226.04 362.069 225.472 362.069 224.832C362.069 224.2 362.197 223.636 362.453 223.14C362.709 222.644 363.057 222.256 363.497 221.976C363.945 221.688 364.449 221.544 365.009 221.544C365.313 221.544 365.605 221.592 365.885 221.688C366.173 221.784 366.429 221.916 366.653 222.084C366.877 222.244 367.053 222.424 367.181 222.624C367.317 222.824 367.393 223.032 367.409 223.248L367.013 223.296V219.12H368.489V228H367.061L367.025 226.512L367.313 226.536C367.305 226.736 367.233 226.928 367.097 227.112C366.969 227.296 366.801 227.464 366.593 227.616C366.385 227.768 366.141 227.892 365.861 227.988C365.589 228.076 365.309 228.12 365.021 228.12ZM365.309 226.872C365.653 226.872 365.957 226.784 366.221 226.608C366.485 226.432 366.689 226.192 366.833 225.888C366.985 225.584 367.061 225.232 367.061 224.832C367.061 224.44 366.985 224.092 366.833 223.788C366.689 223.476 366.485 223.236 366.221 223.068C365.957 222.892 365.653 222.804 365.309 222.804C364.965 222.804 364.661 222.892 364.397 223.068C364.133 223.236 363.925 223.476 363.773 223.788C363.629 224.092 363.557 224.44 363.557 224.832C363.557 225.232 363.629 225.584 363.773 225.888C363.925 226.192 364.133 226.432 364.397 226.608C364.661 226.784 364.965 226.872 365.309 226.872ZM372.277 228.12C371.717 228.12 371.213 228.028 370.765 227.844C370.325 227.652 369.965 227.38 369.685 227.028L370.645 226.2C370.885 226.472 371.153 226.668 371.449 226.788C371.745 226.908 372.057 226.968 372.385 226.968C372.521 226.968 372.641 226.952 372.745 226.92C372.857 226.888 372.953 226.84 373.033 226.776C373.113 226.712 373.173 226.64 373.213 226.56C373.261 226.472 373.285 226.376 373.285 226.272C373.285 226.08 373.213 225.928 373.069 225.816C372.989 225.76 372.861 225.7 372.685 225.636C372.517 225.572 372.297 225.508 372.025 225.444C371.593 225.332 371.233 225.204 370.945 225.06C370.657 224.908 370.433 224.74 370.273 224.556C370.137 224.404 370.033 224.232 369.961 224.04C369.897 223.848 369.865 223.64 369.865 223.416C369.865 223.136 369.925 222.884 370.045 222.66C370.173 222.428 370.345 222.228 370.561 222.06C370.777 221.892 371.029 221.764 371.317 221.676C371.605 221.588 371.905 221.544 372.217 221.544C372.537 221.544 372.845 221.584 373.141 221.664C373.445 221.744 373.725 221.86 373.981 222.012C374.245 222.156 374.469 222.332 374.653 222.54L373.837 223.44C373.685 223.296 373.517 223.168 373.333 223.056C373.157 222.944 372.977 222.856 372.793 222.792C372.609 222.72 372.437 222.684 372.277 222.684C372.125 222.684 371.989 222.7 371.869 222.732C371.749 222.756 371.649 222.796 371.569 222.852C371.489 222.908 371.425 222.98 371.377 223.068C371.337 223.148 371.317 223.244 371.317 223.356C371.325 223.452 371.349 223.544 371.389 223.632C371.437 223.712 371.501 223.78 371.581 223.836C371.669 223.892 371.801 223.956 371.977 224.028C372.153 224.1 372.381 224.168 372.661 224.232C373.053 224.336 373.381 224.452 373.645 224.58C373.909 224.708 374.117 224.856 374.269 225.024C374.421 225.168 374.529 225.336 374.593 225.528C374.657 225.72 374.689 225.932 374.689 226.164C374.689 226.54 374.581 226.876 374.365 227.172C374.157 227.468 373.869 227.7 373.501 227.868C373.141 228.036 372.733 228.12 372.277 228.12Z" fill="black"/>
<rect x="299" y="185" width="7" height="7" rx="3.5" fill="#424BD1"/>
<path d="M316.808 193V186.04H314.408V184.6H320.84V186.04H318.368V193H316.808ZM323.803 193.12C323.171 193.12 322.607 192.98 322.111 192.7C321.615 192.412 321.223 192.02 320.935 191.524C320.647 191.028 320.503 190.464 320.503 189.832C320.503 189.2 320.647 188.636 320.935 188.14C321.223 187.644 321.615 187.256 322.111 186.976C322.607 186.688 323.171 186.544 323.803 186.544C324.427 186.544 324.987 186.688 325.483 186.976C325.979 187.256 326.367 187.644 326.647 188.14C326.935 188.636 327.079 189.2 327.079 189.832C327.079 190.464 326.935 191.028 326.647 191.524C326.367 192.02 325.979 192.412 325.483 192.7C324.987 192.98 324.427 193.12 323.803 193.12ZM323.803 191.812C324.147 191.812 324.451 191.724 324.715 191.548C324.987 191.372 325.199 191.136 325.351 190.84C325.511 190.544 325.587 190.208 325.579 189.832C325.587 189.448 325.511 189.108 325.351 188.812C325.199 188.516 324.987 188.284 324.715 188.116C324.451 187.94 324.147 187.852 323.803 187.852C323.459 187.852 323.147 187.94 322.867 188.116C322.595 188.284 322.383 188.52 322.231 188.824C322.079 189.12 322.003 189.456 322.003 189.832C322.003 190.208 322.079 190.544 322.231 190.84C322.383 191.136 322.595 191.372 322.867 191.548C323.147 191.724 323.459 191.812 323.803 191.812ZM329.083 193V185.068H330.559V193H329.083ZM327.835 188.044V186.676H331.939V188.044H327.835ZM335.393 193.12C334.873 193.12 334.401 192.976 333.977 192.688C333.553 192.4 333.213 192.008 332.957 191.512C332.701 191.016 332.573 190.452 332.573 189.82C332.573 189.188 332.701 188.624 332.957 188.128C333.213 187.632 333.561 187.244 334.001 186.964C334.441 186.684 334.937 186.544 335.489 186.544C335.809 186.544 336.101 186.592 336.365 186.688C336.629 186.776 336.861 186.904 337.061 187.072C337.261 187.24 337.425 187.432 337.553 187.648C337.689 187.864 337.781 188.096 337.829 188.344L337.505 188.26V186.676H338.993V193H337.493V191.488L337.841 191.428C337.785 191.644 337.681 191.856 337.529 192.064C337.385 192.264 337.201 192.444 336.977 192.604C336.761 192.756 336.517 192.88 336.245 192.976C335.981 193.072 335.697 193.12 335.393 193.12ZM335.801 191.812C336.145 191.812 336.449 191.728 336.713 191.56C336.977 191.392 337.181 191.16 337.325 190.864C337.477 190.56 337.553 190.212 337.553 189.82C337.553 189.436 337.477 189.096 337.325 188.8C337.181 188.504 336.977 188.272 336.713 188.104C336.449 187.936 336.145 187.852 335.801 187.852C335.457 187.852 335.153 187.936 334.889 188.104C334.633 188.272 334.433 188.504 334.289 188.8C334.145 189.096 334.073 189.436 334.073 189.82C334.073 190.212 334.145 190.56 334.289 190.864C334.433 191.16 334.633 191.392 334.889 191.56C335.153 191.728 335.457 191.812 335.801 191.812ZM340.716 193V184.12H342.204V193H340.716ZM351.294 193.12C350.686 193.12 350.13 193.016 349.626 192.808C349.122 192.6 348.686 192.304 348.318 191.92C347.95 191.528 347.662 191.068 347.454 190.54C347.254 190.004 347.154 189.42 347.154 188.788C347.154 188.18 347.262 187.616 347.478 187.096C347.694 186.576 347.994 186.12 348.378 185.728C348.762 185.336 349.21 185.032 349.722 184.816C350.234 184.6 350.79 184.492 351.39 184.492C351.798 184.492 352.194 184.552 352.578 184.672C352.962 184.792 353.314 184.96 353.634 185.176C353.954 185.384 354.222 185.628 354.438 185.908L353.442 187C353.234 186.784 353.018 186.604 352.794 186.46C352.578 186.308 352.35 186.196 352.11 186.124C351.878 186.044 351.638 186.004 351.39 186.004C351.022 186.004 350.674 186.072 350.346 186.208C350.026 186.344 349.746 186.536 349.506 186.784C349.274 187.032 349.09 187.328 348.954 187.672C348.818 188.008 348.75 188.384 348.75 188.8C348.75 189.224 348.814 189.608 348.942 189.952C349.078 190.296 349.266 190.592 349.506 190.84C349.754 191.088 350.046 191.28 350.382 191.416C350.726 191.544 351.102 191.608 351.51 191.608C351.774 191.608 352.03 191.572 352.278 191.5C352.526 191.428 352.754 191.328 352.962 191.2C353.178 191.064 353.374 190.908 353.55 190.732L354.318 191.968C354.126 192.184 353.87 192.38 353.55 192.556C353.23 192.732 352.87 192.872 352.47 192.976C352.078 193.072 351.686 193.12 351.294 193.12ZM358.057 193.12C357.537 193.12 357.065 192.976 356.641 192.688C356.217 192.4 355.877 192.008 355.621 191.512C355.365 191.016 355.237 190.452 355.237 189.82C355.237 189.188 355.365 188.624 355.621 188.128C355.877 187.632 356.225 187.244 356.665 186.964C357.105 186.684 357.601 186.544 358.153 186.544C358.473 186.544 358.765 186.592 359.029 186.688C359.293 186.776 359.525 186.904 359.725 187.072C359.925 187.24 360.089 187.432 360.217 187.648C360.353 187.864 360.445 188.096 360.493 188.344L360.169 188.26V186.676H361.657V193H360.157V191.488L360.505 191.428C360.449 191.644 360.345 191.856 360.193 192.064C360.049 192.264 359.865 192.444 359.641 192.604C359.425 192.756 359.181 192.88 358.909 192.976C358.645 193.072 358.361 193.12 358.057 193.12ZM358.465 191.812C358.809 191.812 359.113 191.728 359.377 191.56C359.641 191.392 359.845 191.16 359.989 190.864C360.141 190.56 360.217 190.212 360.217 189.82C360.217 189.436 360.141 189.096 359.989 188.8C359.845 188.504 359.641 188.272 359.377 188.104C359.113 187.936 358.809 187.852 358.465 187.852C358.121 187.852 357.817 187.936 357.553 188.104C357.297 188.272 357.097 188.504 356.953 188.8C356.809 189.096 356.737 189.436 356.737 189.82C356.737 190.212 356.809 190.56 356.953 190.864C357.097 191.16 357.297 191.392 357.553 191.56C357.817 191.728 358.121 191.812 358.465 191.812ZM363.38 193V184.12H364.868V193H363.38ZM366.614 193V184.12H368.102V193H366.614ZM371.949 193.12C371.389 193.12 370.885 193.028 370.437 192.844C369.997 192.652 369.637 192.38 369.357 192.028L370.317 191.2C370.557 191.472 370.825 191.668 371.121 191.788C371.417 191.908 371.729 191.968 372.057 191.968C372.193 191.968 372.313 191.952 372.417 191.92C372.529 191.888 372.625 191.84 372.705 191.776C372.785 191.712 372.845 191.64 372.885 191.56C372.933 191.472 372.957 191.376 372.957 191.272C372.957 191.08 372.885 190.928 372.741 190.816C372.661 190.76 372.533 190.7 372.357 190.636C372.189 190.572 371.969 190.508 371.697 190.444C371.265 190.332 370.905 190.204 370.617 190.06C370.329 189.908 370.105 189.74 369.945 189.556C369.809 189.404 369.705 189.232 369.633 189.04C369.569 188.848 369.537 188.64 369.537 188.416C369.537 188.136 369.597 187.884 369.717 187.66C369.845 187.428 370.017 187.228 370.233 187.06C370.449 186.892 370.701 186.764 370.989 186.676C371.277 186.588 371.577 186.544 371.889 186.544C372.209 186.544 372.517 186.584 372.813 186.664C373.117 186.744 373.397 186.86 373.653 187.012C373.917 187.156 374.141 187.332 374.325 187.54L373.509 188.44C373.357 188.296 373.189 188.168 373.005 188.056C372.829 187.944 372.649 187.856 372.465 187.792C372.281 187.72 372.109 187.684 371.949 187.684C371.797 187.684 371.661 187.7 371.541 187.732C371.421 187.756 371.321 187.796 371.241 187.852C371.161 187.908 371.097 187.98 371.049 188.068C371.009 188.148 370.989 188.244 370.989 188.356C370.997 188.452 371.021 188.544 371.061 188.632C371.109 188.712 371.173 188.78 371.253 188.836C371.341 188.892 371.473 188.956 371.649 189.028C371.825 189.1 372.053 189.168 372.333 189.232C372.725 189.336 373.053 189.452 373.317 189.58C373.581 189.708 373.789 189.856 373.941 190.024C374.093 190.168 374.201 190.336 374.265 190.528C374.329 190.72 374.361 190.932 374.361 191.164C374.361 191.54 374.253 191.876 374.037 192.172C373.829 192.468 373.541 192.7 373.173 192.868C372.813 193.036 372.405 193.12 371.949 193.12Z" fill="black"/>
<path d="M73.8125 259.711V261.445L68.7109 271H66.1641L71.2812 261.711H65.8672V259.711H73.8125ZM83.4922 267.234C83.4922 267.979 83.2995 268.651 82.9141 269.25C82.5339 269.844 82.0234 270.31 81.3828 270.648C80.7422 270.982 80.0495 271.148 79.3047 271.148C78.5391 271.148 77.8385 270.977 77.2031 270.633C76.5729 270.289 76.0755 269.818 75.7109 269.219C75.3464 268.62 75.1641 267.953 75.1641 267.219C75.1641 266.76 75.2422 266.307 75.3984 265.859C75.5599 265.406 75.8151 264.94 76.1641 264.461L79.6797 259.711H82.2344L79.3047 263.531C79.4557 263.51 79.6276 263.5 79.8203 263.5C80.4714 263.5 81.0781 263.656 81.6406 263.969C82.2031 264.281 82.651 264.721 82.9844 265.289C83.3229 265.852 83.4922 266.5 83.4922 267.234ZM81.2891 267.125C81.2891 266.74 81.2031 266.396 81.0312 266.094C80.8646 265.792 80.6276 265.557 80.3203 265.391C80.0182 265.219 79.6667 265.133 79.2656 265.133C78.875 265.133 78.526 265.224 78.2188 265.406C77.9167 265.583 77.6823 265.828 77.5156 266.141C77.349 266.448 77.2656 266.789 77.2656 267.164C77.2656 267.549 77.3464 267.891 77.5078 268.188C77.6693 268.484 77.8984 268.716 78.1953 268.883C78.4974 269.044 78.8464 269.125 79.2422 269.125C79.638 269.125 79.9896 269.042 80.2969 268.875C80.6094 268.703 80.8516 268.466 81.0234 268.164C81.2005 267.862 81.2891 267.516 81.2891 267.125ZM87.4766 264.82C86.9974 264.82 86.5573 264.703 86.1562 264.469C85.7552 264.234 85.4375 263.914 85.2031 263.508C84.9688 263.102 84.8516 262.659 84.8516 262.18C84.8516 261.706 84.9688 261.268 85.2031 260.867C85.4427 260.461 85.763 260.141 86.1641 259.906C86.5651 259.667 87.0026 259.547 87.4766 259.547C87.9557 259.547 88.3958 259.667 88.7969 259.906C89.2031 260.141 89.5234 260.461 89.7578 260.867C89.9922 261.268 90.1094 261.706 90.1094 262.18C90.1094 262.659 89.9922 263.102 89.7578 263.508C89.5234 263.909 89.2031 264.229 88.7969 264.469C88.3958 264.703 87.9557 264.82 87.4766 264.82ZM92.8125 259.703H94.6953L88.7812 271.008H86.9062L92.8125 259.703ZM87.4766 263.32C87.6901 263.32 87.8828 263.271 88.0547 263.172C88.2318 263.068 88.3698 262.93 88.4688 262.758C88.5677 262.586 88.6172 262.393 88.6172 262.18C88.6172 261.977 88.5651 261.789 88.4609 261.617C88.3568 261.44 88.2161 261.302 88.0391 261.203C87.8672 261.099 87.6797 261.047 87.4766 261.047C87.2682 261.047 87.0755 261.096 86.8984 261.195C86.7266 261.294 86.5885 261.432 86.4844 261.609C86.3854 261.781 86.3359 261.971 86.3359 262.18C86.3359 262.393 86.3854 262.589 86.4844 262.766C86.5885 262.938 86.7266 263.073 86.8984 263.172C87.0755 263.271 87.2682 263.32 87.4766 263.32ZM94.2031 271.133C93.7188 271.133 93.2734 271.016 92.8672 270.781C92.4661 270.547 92.1458 270.229 91.9062 269.828C91.6719 269.422 91.5547 268.979 91.5547 268.5C91.5547 268.021 91.6719 267.581 91.9062 267.18C92.1458 266.773 92.4688 266.453 92.875 266.219C93.2812 265.984 93.724 265.867 94.2031 265.867C94.6771 265.867 95.112 265.984 95.5078 266.219C95.9089 266.453 96.2266 266.773 96.4609 267.18C96.6953 267.581 96.8125 268.021 96.8125 268.5C96.8125 268.974 96.6953 269.414 96.4609 269.82C96.2266 270.221 95.9089 270.542 95.5078 270.781C95.112 271.016 94.6771 271.133 94.2031 271.133ZM94.2031 269.625C94.4062 269.625 94.5964 269.576 94.7734 269.477C94.9505 269.372 95.0885 269.234 95.1875 269.062C95.2917 268.891 95.3438 268.703 95.3438 268.5C95.3438 268.297 95.2917 268.109 95.1875 267.938C95.0833 267.76 94.9427 267.62 94.7656 267.516C94.5938 267.411 94.4062 267.359 94.2031 267.359C93.9896 267.359 93.7943 267.409 93.6172 267.508C93.4401 267.607 93.2995 267.745 93.1953 267.922C93.0964 268.094 93.0469 268.286 93.0469 268.5C93.0469 268.703 93.0964 268.891 93.1953 269.062C93.2995 269.234 93.4401 269.372 93.6172 269.477C93.7943 269.576 93.9896 269.625 94.2031 269.625Z" fill="black"/>
<path d="M215.742 136.992V139H207.781V137.305L212.273 132.719C212.924 132.062 213.25 131.414 213.25 130.773C213.25 130.331 213.115 129.982 212.844 129.727C212.578 129.471 212.201 129.344 211.711 129.344C211.211 129.344 210.818 129.487 210.531 129.773C210.25 130.06 210.109 130.523 210.109 131.164V132L207.867 131.773V131.211C207.867 130.43 208.023 129.766 208.336 129.219C208.654 128.667 209.099 128.25 209.672 127.969C210.245 127.682 210.919 127.539 211.695 127.539C212.424 127.539 213.073 127.669 213.641 127.93C214.214 128.185 214.661 128.557 214.984 129.047C215.307 129.536 215.469 130.117 215.469 130.789C215.469 131.352 215.349 131.867 215.109 132.336C214.875 132.805 214.5 133.307 213.984 133.844L210.93 136.992H215.742ZM225.531 136.859H224.172V139H221.922V136.859H217.07V134.844L221.07 127.711H224.172V134.852H225.531V136.859ZM221.922 134.852V129.688L219.156 134.852H221.922ZM229.477 132.82C228.997 132.82 228.557 132.703 228.156 132.469C227.755 132.234 227.438 131.914 227.203 131.508C226.969 131.102 226.852 130.659 226.852 130.18C226.852 129.706 226.969 129.268 227.203 128.867C227.443 128.461 227.763 128.141 228.164 127.906C228.565 127.667 229.003 127.547 229.477 127.547C229.956 127.547 230.396 127.667 230.797 127.906C231.203 128.141 231.523 128.461 231.758 128.867C231.992 129.268 232.109 129.706 232.109 130.18C232.109 130.659 231.992 131.102 231.758 131.508C231.523 131.909 231.203 132.229 230.797 132.469C230.396 132.703 229.956 132.82 229.477 132.82ZM234.812 127.703H236.695L230.781 139.008H228.906L234.812 127.703ZM229.477 131.32C229.69 131.32 229.883 131.271 230.055 131.172C230.232 131.068 230.37 130.93 230.469 130.758C230.568 130.586 230.617 130.393 230.617 130.18C230.617 129.977 230.565 129.789 230.461 129.617C230.357 129.44 230.216 129.302 230.039 129.203C229.867 129.099 229.68 129.047 229.477 129.047C229.268 129.047 229.076 129.096 228.898 129.195C228.727 129.294 228.589 129.432 228.484 129.609C228.385 129.781 228.336 129.971 228.336 130.18C228.336 130.393 228.385 130.589 228.484 130.766C228.589 130.938 228.727 131.073 228.898 131.172C229.076 131.271 229.268 131.32 229.477 131.32ZM236.203 139.133C235.719 139.133 235.273 139.016 234.867 138.781C234.466 138.547 234.146 138.229 233.906 137.828C233.672 137.422 233.555 136.979 233.555 136.5C233.555 136.021 233.672 135.581 233.906 135.18C234.146 134.773 234.469 134.453 234.875 134.219C235.281 133.984 235.724 133.867 236.203 133.867C236.677 133.867 237.112 133.984 237.508 134.219C237.909 134.453 238.227 134.773 238.461 135.18C238.695 135.581 238.812 136.021 238.812 136.5C238.812 136.974 238.695 137.414 238.461 137.82C238.227 138.221 237.909 138.542 237.508 138.781C237.112 139.016 236.677 139.133 236.203 139.133ZM236.203 137.625C236.406 137.625 236.596 137.576 236.773 137.477C236.951 137.372 237.089 137.234 237.188 137.062C237.292 136.891 237.344 136.703 237.344 136.5C237.344 136.297 237.292 136.109 237.188 135.938C237.083 135.76 236.943 135.62 236.766 135.516C236.594 135.411 236.406 135.359 236.203 135.359C235.99 135.359 235.794 135.409 235.617 135.508C235.44 135.607 235.299 135.745 235.195 135.922C235.096 136.094 235.047 136.286 235.047 136.5C235.047 136.703 235.096 136.891 235.195 137.062C235.299 137.234 235.44 137.372 235.617 137.477C235.794 137.576 235.99 137.625 236.203 137.625Z" fill="black"/>
<defs>
<filter id="filter0_d_97_3328" x="0" y="0" width="462" height="379" filterUnits="userSpaceOnUse" color-interpolation-filters="sRGB">
<feFlood flood-opacity="0" result="BackgroundImageFix"/>
<feColorMatrix in="SourceAlpha" type="matrix" values="0 0 0 0 0 0 0 0 0 0 0 0 0 0 0 0 0 0 127 0" result="hardAlpha"/>
<feOffset dy="2"/>
<feGaussianBlur stdDeviation="12"/>
<feColorMatrix type="matrix" values="0 0 0 0 0 0 0 0 0 0 0 0 0 0 0 0 0 0 0.05 0"/>
<feBlend mode="normal" in2="BackgroundImageFix" result="effect1_dropShadow_97_3328"/>
<feBlend mode="normal" in="SourceGraphic" in2="effect1_dropShadow_97_3328" result="shape"/>
</filter>
</defs>
</svg>
