<svg width="40" height="40" viewBox="0 0 40 40" fill="none" xmlns="http://www.w3.org/2000/svg">
<path d="M8.84495 34.1654C8.003 34.1654 7.29036 33.8737 6.70703 33.2904C6.1237 32.707 5.83203 31.9944 5.83203 31.1524V8.84495C5.83203 8.003 6.1237 7.29036 6.70703 6.70703C7.29036 6.1237 8.003 5.83203 8.84495 5.83203H31.1524C31.9944 5.83203 32.707 6.1237 33.2904 6.70703C33.8737 7.29036 34.1654 8.003 34.1654 8.84495V31.1524C34.1654 31.9944 33.8737 32.707 33.2904 33.2904C32.707 33.8737 31.9944 34.1654 31.1524 34.1654H8.84495ZM8.84495 31.6654H31.1524C31.2808 31.6654 31.3983 31.6119 31.5049 31.5049C31.6119 31.3983 31.6654 31.2808 31.6654 31.1524V8.84495C31.6654 8.71661 31.6119 8.59911 31.5049 8.49245C31.3983 8.3855 31.2808 8.33203 31.1524 8.33203H8.84495C8.71661 8.33203 8.59911 8.3855 8.49245 8.49245C8.3855 8.59911 8.33203 8.71661 8.33203 8.84495V31.1524C8.33203 31.2808 8.3855 31.3983 8.49245 31.5049C8.59911 31.6119 8.71661 31.6654 8.84495 31.6654ZM12.7554 27.9154H27.3704C27.6718 27.9154 27.8951 27.7786 28.0404 27.5049C28.1856 27.2316 28.1631 26.9668 27.9729 26.7104L23.9987 21.3866C23.8426 21.1858 23.6418 21.0854 23.3962 21.0854C23.1504 21.0854 22.9495 21.1858 22.7937 21.3866L18.7166 26.6974L15.9858 23.1974C15.8299 23.0072 15.6318 22.912 15.3912 22.912C15.1509 22.912 14.9527 23.0126 14.7966 23.2137L12.1687 26.7104C11.9679 26.9668 11.9401 27.2316 12.0854 27.5049C12.2306 27.7786 12.454 27.9154 12.7554 27.9154Z" fill="#71717A"/>
</svg>
