<svg width="48" height="48" viewBox="0 0 48 48" fill="none" xmlns="http://www.w3.org/2000/svg">
<rect width="48" height="48" rx="10" fill="#FFBC42"/>
<path d="M14.3077 32.3076C13.8026 32.3076 13.375 32.1326 13.025 31.7826C12.675 31.4326 12.5 31.0051 12.5 30.4999V17.4999C12.5 16.9947 12.675 16.5671 13.025 16.2171C13.375 15.8671 13.8026 15.6921 14.3077 15.6921H33.6923C34.1974 15.6921 34.625 15.8671 34.975 16.2171C35.325 16.5671 35.5 16.9947 35.5 17.4999V30.4999C35.5 31.0051 35.325 31.4326 34.975 31.7826C34.625 32.1326 34.1974 32.3076 33.6923 32.3076H14.3077ZM21 26.1154C21.7628 26.1154 22.4118 25.8477 22.947 25.3124C23.4823 24.7772 23.75 24.1282 23.75 23.3654C23.75 22.6026 23.4823 21.9535 22.947 21.4181C22.4118 20.883 21.7628 20.6154 21 20.6154C20.2372 20.6154 19.5882 20.883 19.053 21.4181C18.5177 21.9535 18.25 22.6026 18.25 23.3654C18.25 24.1282 18.5177 24.7772 19.053 25.3124C19.5882 25.8477 20.2372 26.1154 21 26.1154ZM14.6577 30.8076H27.3422C26.6423 29.7306 25.7332 28.8781 24.6152 28.2499C23.4974 27.6217 22.2923 27.3076 21 27.3076C19.7077 27.3076 18.5026 27.6217 17.3847 28.2499C16.2668 28.8781 15.3577 29.7306 14.6577 30.8076ZM29.0578 23.9999C29.0578 23.6371 29.0878 23.2931 29.148 22.9681C29.2083 22.6431 29.2949 22.2947 29.4078 21.9229H30.6443C30.7916 21.9229 30.9255 21.8928 31.046 21.8326C31.1667 21.7723 31.2738 21.6819 31.3673 21.5614L31.9943 20.7286C32.1314 20.548 32.1917 20.3455 32.175 20.1211C32.1583 19.8968 32.0679 19.7026 31.9038 19.5384L31.271 18.9056C31.1005 18.7351 30.8948 18.6473 30.6538 18.6421C30.4128 18.6371 30.2019 18.7199 30.0212 18.8904C29.3366 19.5442 28.8061 20.3215 28.4298 21.2221C28.0534 22.1226 27.8652 23.0486 27.8652 23.9999C27.8652 24.9512 28.0534 25.8771 28.4298 26.7776C28.8061 27.6783 29.3366 28.4556 30.0212 29.1094C30.2019 29.2799 30.4128 29.3626 30.6538 29.3576C30.8948 29.3525 31.1005 29.2646 31.271 29.0941L31.9038 28.4614C32.0679 28.2972 32.1583 28.103 32.175 27.8786C32.1917 27.6543 32.1314 27.4518 31.9943 27.2711L31.3673 26.4384C31.2738 26.3179 31.1667 26.2275 31.046 26.1671C30.9255 26.107 30.7916 26.0769 30.6443 26.0769H29.4078C29.2949 25.7384 29.2083 25.3983 29.148 25.0566C29.0878 24.715 29.0578 24.3627 29.0578 23.9999Z" fill="black"/>
</svg>
