<svg width="40" height="40" viewBox="0 0 40 40" fill="none" xmlns="http://www.w3.org/2000/svg">
<path d="M24.4617 20C24.4617 20.2008 24.4296 20.3877 24.3654 20.5608C24.3013 20.7338 24.1913 20.8984 24.0354 21.0545L16.545 28.545C16.3142 28.7755 16.024 28.8936 15.6746 28.8991C15.3254 28.9044 15.03 28.7863 14.7884 28.545C14.547 28.3033 14.4263 28.0105 14.4263 27.6666C14.4263 27.3227 14.547 27.03 14.7884 26.7883L21.5771 20L14.7884 13.2116C14.5578 12.9808 14.4397 12.6907 14.4342 12.3412C14.4289 11.992 14.547 11.6966 14.7884 11.455C15.03 11.2136 15.3228 11.0929 15.6667 11.0929C16.0106 11.0929 16.3034 11.2136 16.545 11.455L24.0354 18.9454C24.1913 19.1015 24.3013 19.2661 24.3654 19.4391C24.4296 19.6122 24.4617 19.7991 24.4617 20Z" fill="#0E0E0E"/>
</svg>
