<svg width="32" height="32" viewBox="0 0 32 32" fill="none" xmlns="http://www.w3.org/2000/svg">
<path d="M8.30762 18C7.75762 18 7.28684 17.8041 6.89528 17.4123C6.50351 17.0208 6.30762 16.55 6.30762 16C6.30762 15.45 6.50351 14.9792 6.89528 14.5877C7.28684 14.1959 7.75762 14 8.30762 14C8.85762 14 9.32851 14.1959 9.72028 14.5877C10.1118 14.9792 10.3076 15.45 10.3076 16C10.3076 16.55 10.1118 17.0208 9.72028 17.4123C9.32851 17.8041 8.85762 18 8.30762 18ZM16 18C15.45 18 14.9792 17.8041 14.5876 17.4123C14.1958 17.0208 14 16.55 14 16C14 15.45 14.1958 14.9792 14.5876 14.5877C14.9792 14.1959 15.45 14 16 14C16.55 14 17.0207 14.1959 17.4123 14.5877C17.8041 14.9792 18 15.45 18 16C18 16.55 17.8041 17.0208 17.4123 17.4123C17.0207 17.8041 16.55 18 16 18ZM23.6923 18C23.1423 18 22.6714 17.8041 22.2796 17.4123C21.8881 17.0208 21.6923 16.55 21.6923 16C21.6923 15.45 21.8881 14.9792 22.2796 14.5877C22.6714 14.1959 23.1423 14 23.6923 14C24.2423 14 24.7131 14.1959 25.1046 14.5877C25.4964 14.9792 25.6923 15.45 25.6923 16C25.6923 16.55 25.4964 17.0208 25.1046 17.4123C24.7131 17.8041 24.2423 18 23.6923 18Z" fill="#5F6368"/>
</svg>
