<svg width="24" height="24" viewBox="0 0 24 24" fill="none" xmlns="http://www.w3.org/2000/svg">
<path d="M5.30775 20.5C4.80258 20.5 4.375 20.325 4.025 19.975C3.675 19.625 3.5 19.1974 3.5 18.6923V5.30775C3.5 4.80258 3.675 4.375 4.025 4.025C4.375 3.675 4.80258 3.5 5.30775 3.5H18.6923C19.1974 3.5 19.625 3.675 19.975 4.025C20.325 4.375 20.5 4.80258 20.5 5.30775V6H13.3077C12.3168 6 11.5177 6.30358 10.9107 6.91075C10.3036 7.51775 10 8.31675 10 9.30775V14.6923C10 15.6833 10.3036 16.4823 10.9107 17.0893C11.5177 17.6964 12.3168 18 13.3077 18H20.5V18.6923C20.5 19.1974 20.325 19.625 19.975 19.975C19.625 20.325 19.1974 20.5 18.6923 20.5H5.30775ZM13.3077 16.5C12.8026 16.5 12.375 16.325 12.025 15.975C11.675 15.625 11.5 15.1974 11.5 14.6923V9.30775C11.5 8.80258 11.675 8.375 12.025 8.025C12.375 7.675 12.8026 7.5 13.3077 7.5H19.6923C20.1974 7.5 20.625 7.675 20.975 8.025C21.325 8.375 21.5 8.80258 21.5 9.30775V14.6923C21.5 15.1974 21.325 15.625 20.975 15.975C20.625 16.325 20.1974 16.5 19.6923 16.5H13.3077ZM16 13.5C16.4333 13.5 16.7917 13.3583 17.075 13.075C17.3583 12.7917 17.5 12.4333 17.5 12C17.5 11.5667 17.3583 11.2083 17.075 10.925C16.7917 10.6417 16.4333 10.5 16 10.5C15.5667 10.5 15.2083 10.6417 14.925 10.925C14.6417 11.2083 14.5 11.5667 14.5 12C14.5 12.4333 14.6417 12.7917 14.925 13.075C15.2083 13.3583 15.5667 13.5 16 13.5Z" fill="white"/>
</svg>
