<svg width="30" height="31" viewBox="0 0 30 31" fill="none" xmlns="http://www.w3.org/2000/svg">
<path d="M19.2288 27.2101L8.2871 16.1604C8.18077 16.0745 8.10633 15.9779 8.0638 15.8705C8.02127 15.7631 8 15.645 8 15.5161C8 15.3872 8.02127 15.2691 8.0638 15.1617C8.10633 15.0544 8.18077 14.9577 8.2871 14.8718L19.2288 3.78993C19.4202 3.59664 19.6648 3.5 19.9625 3.5C20.2602 3.5 20.5048 3.60738 20.6962 3.82215C20.8876 4.01544 20.9833 4.26242 20.9833 4.56309C20.9833 4.86376 20.8876 5.11074 20.6962 5.30403L10.5839 15.5161L20.6962 25.7282C20.9089 25.943 21.0099 26.1899 20.9992 26.4691C20.9886 26.7483 20.8876 26.9953 20.6962 27.2101C20.4835 27.4034 20.2336 27.5 19.9465 27.5C19.6594 27.5 19.4202 27.4034 19.2288 27.2101Z" fill="#1A1C18"/>
</svg>
