<svg width="70" height="70" viewBox="0 0 70 70" fill="none" xmlns="http://www.w3.org/2000/svg">
<g clip-path="url(#clip0_1767_10)">
<path fill-rule="evenodd" clip-rule="evenodd" d="M38.9827 0C38.9827 0 35.3968 11.8917 31.4632 15.7419C27.5296 19.5922 15.3859 23.1059 15.3859 23.1059C15.3859 23.1059 27.5296 26.6197 31.4632 30.4746C35.3968 34.3295 38.9827 46.2352 38.9827 46.2352C38.9827 46.2352 42.5687 34.3435 46.5023 30.4933C50.4359 26.6431 62.5796 23.1246 62.5796 23.1246C62.5796 23.1246 50.4121 19.6015 46.4975 15.7419C42.583 11.8824 38.9827 0 38.9827 0ZM15.3859 39.8712C15.3859 39.8712 13.0476 47.623 10.4808 50.1509C7.91396 52.6787 0.00390625 54.9543 0.00390625 54.9543C0.00390625 54.9543 7.91873 57.2438 10.4808 59.753C13.0429 62.2622 15.3859 70.0327 15.3859 70.0327C15.3859 70.0327 17.7242 62.2809 20.2862 59.753C22.8483 57.2251 30.7631 54.9543 30.7631 54.9543C30.7631 54.9543 22.8483 52.6647 20.2862 50.1509C17.7242 47.637 15.3811 39.8712 15.3811 39.8712H15.3859ZM59.8556 40.4225C59.8556 40.4225 58.3126 45.5343 56.603 47.1697C54.8934 48.8052 49.693 50.3378 49.693 50.3378C49.693 50.3378 54.9314 51.847 56.603 53.5011C58.2745 55.1552 59.8318 60.2717 59.8318 60.2717C59.8318 60.2717 61.3748 55.1599 63.0653 53.5011C64.7559 51.8423 69.9753 50.3378 69.9753 50.3378C69.9753 50.3378 64.7369 48.8285 63.0653 47.1697C61.3938 45.511 59.8508 40.4225 59.8508 40.4225H59.8556Z" fill="#FFBC42"/>
</g>
<defs>
<clipPath id="clip0_1767_10">
<rect width="70" height="70" fill="white"/>
</clipPath>
</defs>
</svg>
