<svg width="48" height="48" viewBox="0 0 48 48" fill="none" xmlns="http://www.w3.org/2000/svg">
<rect width="48" height="48" rx="10" fill="#FFBC42"/>
<path d="M24.0001 22.8889C21.5455 22.8889 19.5557 20.899 19.5557 18.4444C19.5557 15.9898 21.5455 14 24.0001 14C26.4547 14 28.4446 15.9898 28.4446 18.4444C28.4446 20.899 26.4547 22.8889 24.0001 22.8889Z" fill="black"/>
<path d="M14.0007 33.1102C14.4314 27.8072 18.7355 25.1111 23.9815 25.1111C29.3014 25.1111 33.6721 27.6591 33.9977 33.1111C34.0107 33.3283 33.9977 34 33.163 34C29.0457 34 22.9275 34 14.8083 34C14.5297 34 13.9773 33.3991 14.0007 33.1102Z" fill="black"/>
</svg>
