<svg width="120" height="120" viewBox="0 0 120 120" fill="none" xmlns="http://www.w3.org/2000/svg">
<mask id="mask0_127_2877" style="mask-type:alpha" maskUnits="userSpaceOnUse" x="0" y="0" width="120" height="120">
<rect width="120" height="120" rx="10" fill="#D9D9D9"/>
</mask>
<g mask="url(#mask0_127_2877)">
<rect width="120" height="120" fill="#F0F6FF"/>
</g>
<path d="M58.6875 66.6299V51.9299L54.3733 56.2441L52.5288 54.3462L60 46.875L67.4712 54.3462L65.6267 56.2441L61.3125 51.9299V66.6299H58.6875ZM50.0386 73.125C49.1545 73.125 48.4062 72.8188 47.7937 72.2062C47.1813 71.5938 46.875 70.8455 46.875 69.9614V65.2163H49.5V69.9614C49.5 70.0962 49.5561 70.2196 49.6684 70.3316C49.7804 70.4439 49.9038 70.5 50.0386 70.5H69.9614C70.0962 70.5 70.2196 70.4439 70.3316 70.3316C70.4439 70.2196 70.5 70.0962 70.5 69.9614V65.2163H73.125V69.9614C73.125 70.8455 72.8188 71.5938 72.2062 72.2062C71.5938 72.8188 70.8455 73.125 69.9614 73.125H50.0386Z" fill="#424BD1"/>
</svg>
