<svg width="40" height="40" viewBox="0 0 40 40" fill="none" xmlns="http://www.w3.org/2000/svg">
<path d="M24.4612 20.0001C24.4612 20.2009 24.4291 20.3879 24.3649 20.5609C24.3008 20.734 24.1908 20.8986 24.0349 21.0547L16.5445 28.5451C16.3137 28.7756 16.0236 28.8937 15.6741 28.8992C15.3249 28.9045 15.0295 28.7865 14.7879 28.5451C14.5465 28.3034 14.4258 28.0106 14.4258 27.6667C14.4258 27.3229 14.5465 27.0301 14.7879 26.7884L21.5766 20.0001L14.7879 13.2117C14.5573 12.9809 14.4393 12.6908 14.4337 12.3413C14.4284 11.9922 14.5465 11.6967 14.7879 11.4551C15.0295 11.2137 15.3223 11.093 15.6662 11.093C16.0101 11.093 16.3029 11.2137 16.5445 11.4551L24.0349 18.9455C24.1908 19.1016 24.3008 19.2662 24.3649 19.4392C24.4291 19.6123 24.4612 19.7992 24.4612 20.0001Z" fill="#FFBC42"/>
</svg>
